Lemonada-Arabic-Light Italic.ufo
<glyph name="dollar" format="1">
  <advance width="673"/>
  <unicode hex="0024"/>
  <outline>
    <contour>
      <point x="496" y="-24"/>
      <point x="584" y="78"/>
      <point x="584" y="178" type="curve" smooth="yes"/>
      <point x="584" y="392"/>
      <point x="224" y="370"/>
      <point x="224" y="498" type="curve" smooth="yes"/>
      <point x="224" y="567"/>
      <point x="300" y="621"/>
      <point x="436" y="639" type="curve"/>
      <point x="453" y="574"/>
      <point x="487" y="535"/>
      <point x="545" y="535" type="curve" smooth="yes"/>
      <point x="598" y="535"/>
      <point x="635" y="561"/>
      <point x="635" y="613" type="curve" smooth="yes"/>
      <point x="635" y="667"/>
      <point x="553" y="702"/>
      <point x="446" y="702" type="curve" smooth="yes"/>
      <point x="246" y="702"/>
      <point x="119" y="604"/>
      <point x="119" y="487" type="curve" smooth="yes"/>
      <point x="119" y="267"/>
      <point x="481" y="300"/>
      <point x="481" y="159" type="curve" smooth="yes"/>
      <point x="481" y="79"/>
      <point x="403" y="39"/>
      <point x="294" y="39" type="curve" smooth="yes"/>
      <point x="222" y="39"/>
      <point x="150" y="79"/>
      <point x="114" y="161" type="curve"/>
      <point x="90" y="148"/>
      <point x="74" y="124"/>
      <point x="74" y="96" type="curve" smooth="yes"/>
      <point x="74" y="18"/>
      <point x="172" y="-24"/>
      <point x="299" y="-24" type="curve" smooth="yes"/>
    </contour>
    <contour>
      <point x="287" y="-195"/>
      <point x="305" y="-178"/>
      <point x="311" y="-143" type="curve" smooth="yes"/>
      <point x="320" y="-96"/>
      <point x="327" y="-50"/>
      <point x="335" y="-5" type="curve"/>
      <point x="257" y="-9" type="line"/>
      <point x="242" y="-73"/>
      <point x="227" y="-130"/>
      <point x="215" y="-183" type="curve"/>
      <point x="228" y="-191"/>
      <point x="243" y="-195"/>
      <point x="258" y="-195" type="curve" smooth="yes"/>
    </contour>
    <contour>
      <point x="455" y="644" type="line"/>
      <point x="479" y="726"/>
      <point x="501" y="804"/>
      <point x="523" y="873" type="curve"/>
      <point x="509" y="882"/>
      <point x="495" y="886"/>
      <point x="480" y="886" type="curve" smooth="yes"/>
      <point x="450" y="886"/>
      <point x="432" y="870"/>
      <point x="424" y="837" type="curve" smooth="yes"/>
      <point x="408" y="768"/>
      <point x="395" y="704"/>
      <point x="380" y="644" type="curve"/>
    </contour>
  </outline>
</glyph>
<glyph name="quotesingle" format="1">
  <advance width="228"/>
  <unicode hex="0027"/>
  <outline>
    <contour>
      <point x="148" y="446"/>
      <point x="174" y="453"/>
      <point x="196" y="467" type="curve"/>
      <point x="191" y="481"/>
      <point x="189" y="495"/>
      <point x="189" y="510" type="curve" smooth="yes"/>
      <point x="189" y="590"/>
      <point x="241" y="667"/>
      <point x="241" y="730" type="curve" smooth="yes"/>
      <point x="241" y="759"/>
      <point x="233" y="780"/>
      <point x="205" y="780" type="curve" smooth="yes"/>
      <point x="184" y="780"/>
      <point x="158" y="773"/>
      <point x="135" y="759" type="curve"/>
      <point x="140" y="745"/>
      <point x="142" y="731"/>
      <point x="142" y="716" type="curve" smooth="yes"/>
      <point x="142" y="637"/>
      <point x="90" y="560"/>
      <point x="90" y="496" type="curve" smooth="yes"/>
      <point x="90" y="467"/>
      <point x="98" y="446"/>
      <point x="127" y="446" type="curve" smooth="yes"/>
    </contour>
  </outline>
</glyph>
<glyph name="plus" format="1">
  <advance width="700"/>
  <unicode hex="002B"/>
  <outline>
    <contour>
      <point x="279" y="165"/>
      <point x="286" y="151"/>
      <point x="313" y="151" type="curve" smooth="yes"/>
      <point x="331" y="151"/>
      <point x="354" y="157"/>
      <point x="383" y="167" type="curve"/>
      <point x="442" y="540" type="line" smooth="yes"/>
      <point x="448" y="581"/>
      <point x="443" y="594"/>
      <point x="416" y="594" type="curve" smooth="yes"/>
      <point x="399" y="594"/>
      <point x="376" y="589"/>
      <point x="346" y="578" type="curve"/>
      <point x="287" y="206" type="line" smooth="yes"/>
    </contour>
    <component base="minus"/>
  </outline>
</glyph>
<glyph name="comma" format="1">
  <advance width="334"/>
  <unicode hex="002C"/>
  <outline>
    <contour>
      <point x="129" y="-31" type="line"/>
      <point x="129" y="-66"/>
      <point x="101" y="-120"/>
      <point x="57" y="-143" type="curve"/>
      <point x="68" y="-172" type="line"/>
      <point x="170" y="-133"/>
      <point x="238" y="-65"/>
      <point x="238" y="33" type="curve" smooth="yes"/>
      <point x="238" y="72"/>
      <point x="212" y="108"/>
      <point x="167" y="108" type="curve" smooth="yes"/>
      <point x="123" y="108"/>
      <point x="84" y="71"/>
      <point x="83" y="30" type="curve"/>
    </contour>
  </outline>
</glyph>
<glyph name="hyphen" format="1">
  <advance width="499"/>
  <unicode hex="002D"/>
  <outline>
    <contour>
      <point x="88" y="243"/>
      <point x="69" y="253"/>
      <point x="69" y="288" type="curve" smooth="yes"/>
      <point x="69" y="303"/>
      <point x="75" y="321"/>
      <point x="85" y="339" type="curve"/>
      <point x="102" y="336"/>
      <point x="114" y="335"/>
      <point x="130" y="335" type="curve" smooth="yes"/>
      <point x="226" y="335"/>
      <point x="300" y="367"/>
      <point x="391" y="367" type="curve" smooth="yes"/>
      <point x="416" y="367"/>
      <point x="436" y="358"/>
      <point x="436" y="323" type="curve" smooth="yes"/>
      <point x="436" y="308"/>
      <point x="431" y="290"/>
      <point x="420" y="272" type="curve"/>
      <point x="404" y="275"/>
      <point x="392" y="276"/>
      <point x="376" y="276" type="curve" smooth="yes"/>
      <point x="278" y="276"/>
      <point x="205" y="243"/>
      <point x="114" y="243" type="curve" smooth="yes"/>
    </contour>
  </outline>
</glyph>
<glyph name="period" format="1">
  <advance width="284"/>
  <unicode hex="002E"/>
  <outline>
    <contour>
      <point x="75" y="2"/>
      <point x="102" y="-25"/>
      <point x="137" y="-25" type="curve" smooth="yes"/>
      <point x="177" y="-25"/>
      <point x="209" y="10"/>
      <point x="209" y="48" type="curve" smooth="yes"/>
      <point x="209" y="82"/>
      <point x="183" y="108"/>
      <point x="147" y="108" type="curve" smooth="yes"/>
      <point x="103" y="108"/>
      <point x="75" y="74"/>
      <point x="75" y="35" type="curve" smooth="yes"/>
    </contour>
  </outline>
</glyph>
<glyph name="slash" format="1">
  <advance width="398"/>
  <unicode hex="002F"/>
  <outline>
    <contour>
      <point x="51" y="-76"/>
      <point x="66" y="-80"/>
      <point x="81" y="-80" type="curve" smooth="yes"/>
      <point x="112" y="-80"/>
      <point x="131" y="-65"/>
      <point x="139" y="-31" type="curve" smooth="yes"/>
      <point x="224" y="349"/>
      <point x="294" y="619"/>
      <point x="360" y="823" type="curve"/>
      <point x="346" y="832"/>
      <point x="331" y="836"/>
      <point x="317" y="836" type="curve" smooth="yes"/>
      <point x="286" y="836"/>
      <point x="267" y="821"/>
      <point x="259" y="787" type="curve" smooth="yes"/>
      <point x="173" y="408"/>
      <point x="103" y="137"/>
      <point x="37" y="-67" type="curve"/>
    </contour>
    <contour>
      <point x="199" y="378" type="move" name="_center"/>
    </contour>
  </outline>
</glyph>
<glyph name="zero" format="1">
  <advance width="731"/>
  <unicode hex="0030"/>
  <outline>
    <contour>
      <point x="85" y="532"/>
      <point x="239" y="700"/>
      <point x="463" y="700" type="curve" smooth="yes"/>
      <point x="488" y="700"/>
      <point x="524" y="693"/>
      <point x="544" y="685" type="curve"/>
      <point x="550" y="678"/>
      <point x="552" y="662"/>
      <point x="554" y="637" type="curve"/>
      <point x="633" y="614"/>
      <point x="676" y="527"/>
      <point x="676" y="394" type="curve" smooth="yes"/>
      <point x="676" y="157"/>
      <point x="527" y="-25"/>
      <point x="337" y="-25" type="curve" smooth="yes"/>
      <point x="182" y="-25"/>
      <point x="85" y="95"/>
      <point x="85" y="283" type="curve" smooth="yes"/>
    </contour>
    <contour>
      <point x="474" y="35"/>
      <point x="568" y="180"/>
      <point x="568" y="382" type="curve" smooth="yes"/>
      <point x="568" y="543"/>
      <point x="509" y="621"/>
      <point x="384" y="621" type="curve" smooth="yes"/>
      <point x="356" y="621"/>
      <point x="329" y="614"/>
      <point x="297" y="604" type="curve"/>
      <point x="228" y="503"/>
      <point x="193" y="383"/>
      <point x="193" y="270" type="curve" smooth="yes"/>
      <point x="193" y="125"/>
      <point x="254" y="35"/>
      <point x="347" y="35" type="curve" smooth="yes"/>
    </contour>
  </outline>
</glyph>
<glyph name="one" format="1">
  <advance width="443"/>
  <unicode hex="0031"/>
  <outline>
    <contour>
      <point x="160" y="9"/>
      <point x="181" y="-25"/>
      <point x="218" y="-25" type="curve" smooth="yes"/>
      <point x="236" y="-25"/>
      <point x="256" y="-19"/>
      <point x="277" y="-8" type="curve"/>
      <point x="268" y="16"/>
      <point x="264" y="46"/>
      <point x="264" y="79" type="curve" smooth="yes"/>
      <point x="264" y="305"/>
      <point x="363" y="605"/>
      <point x="363" y="662" type="curve" smooth="yes"/>
      <point x="363" y="687"/>
      <point x="351" y="700"/>
      <point x="330" y="700" type="curve" smooth="yes"/>
      <point x="291" y="700"/>
      <point x="248" y="655"/>
      <point x="120" y="616" type="curve"/>
      <point x="129" y="579"/>
      <point x="172" y="557"/>
      <point x="235" y="557" type="curve"/>
      <point x="184" y="346"/>
      <point x="160" y="193"/>
      <point x="160" y="70" type="curve" smooth="yes"/>
    </contour>
  </outline>
</glyph>
<glyph name="six" format="1">
  <advance width="699"/>
  <unicode hex="0036"/>
  <outline>
    <contour>
      <point x="491" y="-25"/>
      <point x="628" y="97"/>
      <point x="628" y="261" type="curve" smooth="yes"/>
      <point x="628" y="396"/>
      <point x="553" y="497"/>
      <point x="415" y="497" type="curve" smooth="yes"/>
      <point x="352" y="497"/>
      <point x="284" y="476"/>
      <point x="222" y="390" type="curve"/>
      <point x="217" y="390" type="line"/>
      <point x="323" y="657"/>
      <point x="494" y="737"/>
      <point x="600" y="780" type="curve"/>
      <point x="584" y="818"/>
      <point x="564" y="827"/>
      <point x="529" y="827" type="curve" smooth="yes"/>
      <point x="374" y="827"/>
      <point x="99" y="557"/>
      <point x="99" y="250" type="curve" smooth="yes"/>
      <point x="99" y="66"/>
      <point x="198" y="-25"/>
      <point x="335" y="-25" type="curve" smooth="yes"/>
    </contour>
    <contour>
      <point x="241" y="39"/>
      <point x="207" y="128"/>
      <point x="207" y="215" type="curve" smooth="yes"/>
      <point x="207" y="357"/>
      <point x="304" y="428"/>
      <point x="371" y="428" type="curve" smooth="yes"/>
      <point x="486" y="428"/>
      <point x="520" y="347"/>
      <point x="520" y="268" type="curve" smooth="yes"/>
      <point x="520" y="113"/>
      <point x="417" y="39"/>
      <point x="344" y="39" type="curve" smooth="yes"/>
    </contour>
  </outline>
</glyph>
<glyph name="seven" format="1">
  <advance width="555"/>
  <unicode hex="0037"/>
  <outline>
    <contour>
      <point x="420" y="617" type="line"/>
      <point x="269" y="377"/>
      <point x="166" y="127"/>
      <point x="166" y="-30" type="curve" smooth="yes"/>
      <point x="166" y="-96"/>
      <point x="193" y="-121"/>
      <point x="236" y="-121" type="curve" smooth="yes"/>
      <point x="257" y="-121"/>
      <point x="280" y="-115"/>
      <point x="304" y="-98" type="curve"/>
      <point x="290" y="-68"/>
      <point x="289" y="-43"/>
      <point x="289" y="-6" type="curve" smooth="yes"/>
      <point x="289" y="221"/>
      <point x="422" y="497"/>
      <point x="532" y="661" type="curve"/>
    </contour>
    <contour>
      <point x="499" y="571"/>
      <point x="565" y="593"/>
      <point x="565" y="651" type="curve" smooth="yes"/>
      <point x="565" y="686"/>
      <point x="546" y="704"/>
      <point x="506" y="704" type="curve" smooth="yes"/>
      <point x="471" y="704"/>
      <point x="441" y="676"/>
      <point x="421" y="638" type="curve"/>
      <point x="321" y="643"/>
      <point x="195" y="670"/>
      <point x="97" y="711" type="curve"/>
      <point x="88" y="700"/>
      <point x="80" y="676"/>
      <point x="80" y="653" type="curve" smooth="yes"/>
      <point x="80" y="594"/>
      <point x="154" y="571"/>
      <point x="340" y="571" type="curve" smooth="yes"/>
    </contour>
  </outline>
</glyph>
<glyph name="nine" format="1">
  <advance width="679"/>
  <unicode hex="0039"/>
  <outline>
    <contour>
      <point x="335" y="-152"/>
      <point x="609" y="118"/>
      <point x="609" y="425" type="curve" smooth="yes"/>
      <point x="609" y="609"/>
      <point x="510" y="700"/>
      <point x="373" y="700" type="curve" smooth="yes"/>
      <point x="217" y="700"/>
      <point x="80" y="579"/>
      <point x="80" y="414" type="curve" smooth="yes"/>
      <point x="80" y="280"/>
      <point x="155" y="179"/>
      <point x="293" y="179" type="curve" smooth="yes"/>
      <point x="357" y="179"/>
      <point x="425" y="199"/>
      <point x="486" y="285" type="curve"/>
      <point x="491" y="285" type="line"/>
      <point x="386" y="19"/>
      <point x="215" y="-62"/>
      <point x="109" y="-105" type="curve"/>
      <point x="125" y="-143"/>
      <point x="145" y="-152"/>
      <point x="180" y="-152" type="curve" smooth="yes"/>
    </contour>
    <contour>
      <point x="222" y="247"/>
      <point x="188" y="329"/>
      <point x="188" y="407" type="curve" smooth="yes"/>
      <point x="188" y="562"/>
      <point x="291" y="636"/>
      <point x="364" y="636" type="curve" smooth="yes"/>
      <point x="467" y="636"/>
      <point x="501" y="547"/>
      <point x="501" y="460" type="curve" smooth="yes"/>
      <point x="501" y="318"/>
      <point x="404" y="247"/>
      <point x="337" y="247" type="curve" smooth="yes"/>
    </contour>
  </outline>
</glyph>
<glyph name="greater" format="1">
  <advance width="748"/>
  <unicode hex="003E"/>
  <outline>
    <contour>
      <point x="606" y="326"/>
      <point x="632" y="357"/>
      <point x="632" y="374" type="curve" smooth="yes"/>
      <point x="632" y="388"/>
      <point x="618" y="398"/>
      <point x="592" y="414" type="curve" smooth="yes"/>
      <point x="218" y="622" type="line"/>
      <point x="196" y="600"/>
      <point x="170" y="567"/>
      <point x="170" y="551" type="curve" smooth="yes"/>
      <point x="170" y="537"/>
      <point x="185" y="527"/>
      <point x="211" y="511" type="curve" smooth="yes"/>
      <point x="584" y="303" type="line"/>
    </contour>
    <contour>
      <point x="584" y="303" type="line"/>
      <point x="582" y="333"/>
      <point x="578" y="356"/>
      <point x="570" y="371" type="curve" smooth="yes"/>
      <point x="563" y="385"/>
      <point x="554" y="392"/>
      <point x="541" y="392" type="curve" smooth="yes"/>
      <point x="531" y="392"/>
      <point x="520" y="388"/>
      <point x="505" y="381" type="curve" smooth="yes"/>
      <point x="116" y="204" type="line"/>
      <point x="120" y="157"/>
      <point x="129" y="115"/>
      <point x="158" y="115" type="curve" smooth="yes"/>
      <point x="168" y="115"/>
      <point x="180" y="119"/>
      <point x="196" y="126" type="curve" smooth="yes"/>
    </contour>
  </outline>
</glyph>
<glyph name="question" format="1">
  <advance width="601"/>
  <unicode hex="003F"/>
  <outline>
    <contour>
      <point x="201" y="258"/>
      <point x="230" y="235"/>
      <point x="262" y="235" type="curve" smooth="yes"/>
      <point x="388" y="235"/>
      <point x="541" y="362"/>
      <point x="541" y="542" type="curve" smooth="yes"/>
      <point x="541" y="659"/>
      <point x="481" y="775"/>
      <point x="313" y="775" type="curve" smooth="yes"/>
      <point x="112" y="775"/>
      <point x="60" y="625"/>
      <point x="60" y="568" type="curve" smooth="yes"/>
      <point x="60" y="528"/>
      <point x="77" y="506"/>
      <point x="109" y="506" type="curve"/>
      <point x="134" y="626"/>
      <point x="217" y="684"/>
      <point x="295" y="684" type="curve" smooth="yes"/>
      <point x="378" y="684"/>
      <point x="427" y="626"/>
      <point x="427" y="537" type="curve" smooth="yes"/>
      <point x="427" y="397"/>
      <point x="311" y="297"/>
      <point x="201" y="289" type="curve"/>
    </contour>
    <component base="period" xOffset="62"/>
  </outline>
</glyph>
<glyph name="A" format="1">
  <advance width="674"/>
  <unicode hex="0041"/>
  <outline>
    <contour>
      <point x="127" y="-23"/>
      <point x="146" y="-17"/>
      <point x="166" y="-1" type="curve"/>
      <point x="157" y="20"/>
      <point x="153" y="47"/>
      <point x="153" y="83" type="curve" smooth="yes"/>
      <point x="153" y="181"/>
      <point x="234" y="355"/>
      <point x="431" y="644" type="curve"/>
      <point x="443" y="644" type="line"/>
      <point x="443" y="594"/>
      <point x="443" y="512"/>
      <point x="443" y="378" type="curve" smooth="yes"/>
      <point x="443" y="62"/>
      <point x="465" y="-23"/>
      <point x="554" y="-23" type="curve" smooth="yes"/>
      <point x="578" y="-23"/>
      <point x="600" y="-16"/>
      <point x="619" y="-1" type="curve"/>
      <point x="527" y="88"/>
      <point x="546" y="498"/>
      <point x="546" y="665" type="curve" smooth="yes"/>
      <point x="546" y="713"/>
      <point x="530" y="734"/>
      <point x="498" y="734" type="curve" smooth="yes"/>
      <point x="481" y="734"/>
      <point x="467" y="728"/>
      <point x="454" y="715" type="curve"/>
      <point x="449" y="728"/>
      <point x="436" y="734"/>
      <point x="411" y="734" type="curve" smooth="yes"/>
      <point x="379" y="734"/>
      <point x="355" y="726"/>
      <point x="325" y="707" type="curve"/>
      <point x="355" y="676" type="line"/>
      <point x="158" y="391"/>
      <point x="50" y="165"/>
      <point x="50" y="57" type="curve" smooth="yes"/>
      <point x="50" y="5"/>
      <point x="67" y="-23"/>
      <point x="98" y="-23" type="curve" smooth="yes"/>
    </contour>
    <contour>
      <point x="484" y="194" type="line"/>
      <point x="495" y="253" type="line"/>
      <point x="149" y="253" type="line"/>
      <point x="136" y="194" type="line"/>
    </contour>
    <contour>
      <point x="619" y="-1" type="move" name="ogonek"/>
    </contour>
    <contour>
      <point x="313" y="0" type="move" name="bottom"/>
    </contour>
    <contour>
      <point x="438" y="710" type="move" name="top"/>
    </contour>
  </outline>
</glyph>
<glyph name="D" format="1">
  <advance width="839"/>
  <unicode hex="0044"/>
  <outline>
    <contour>
      <point x="585" y="-25"/>
      <point x="757" y="149"/>
      <point x="757" y="404" type="curve" smooth="yes"/>
      <point x="757" y="602"/>
      <point x="648" y="726"/>
      <point x="476" y="726" type="curve" smooth="yes"/>
      <point x="356" y="726"/>
      <point x="305" y="676"/>
      <point x="241" y="635" type="curve"/>
      <point x="241" y="592" type="line"/>
      <point x="313" y="632"/>
      <point x="340" y="659"/>
      <point x="445" y="659" type="curve" smooth="yes"/>
      <point x="579" y="659"/>
      <point x="650" y="565"/>
      <point x="650" y="387" type="curve" smooth="yes"/>
      <point x="650" y="183"/>
      <point x="525" y="38"/>
      <point x="348" y="38" type="curve" smooth="yes"/>
      <point x="300" y="38"/>
      <point x="265" y="43"/>
      <point x="222" y="55" type="curve"/>
      <point x="222" y="165"/>
      <point x="307" y="654"/>
      <point x="307" y="683" type="curve" smooth="yes"/>
      <point x="307" y="712"/>
      <point x="294" y="726"/>
      <point x="270" y="726" type="curve" smooth="yes"/>
      <point x="250" y="726"/>
      <point x="215" y="713"/>
      <point x="175" y="692" type="curve"/>
      <point x="201" y="642" type="line"/>
      <point x="145" y="313"/>
      <point x="123" y="154"/>
      <point x="123" y="85" type="curve" smooth="yes"/>
      <point x="123" y="8"/>
      <point x="190" y="-25"/>
      <point x="334" y="-25" type="curve" smooth="yes"/>
    </contour>
    <contour>
      <point x="228" y="355" type="move" name="center"/>
    </contour>
    <contour>
      <point x="358" y="0" type="move" name="bottom"/>
    </contour>
    <contour>
      <point x="483" y="710" type="move" name="top"/>
    </contour>
  </outline>
</glyph>
<glyph name="G" format="1">
  <advance width="704"/>
  <unicode hex="0047"/>
  <outline>
    <contour>
      <point x="455" y="-30"/>
      <point x="562" y="76"/>
      <point x="562" y="201" type="curve" smooth="yes"/>
      <point x="562" y="269"/>
      <point x="554" y="294"/>
      <point x="545" y="294" type="curve"/>
      <point x="537" y="148"/>
      <point x="452" y="36"/>
      <point x="320" y="36" type="curve" smooth="yes"/>
      <point x="221" y="36"/>
      <point x="162" y="115"/>
      <point x="162" y="247" type="curve" smooth="yes"/>
      <point x="162" y="440"/>
      <point x="269" y="594"/>
      <point x="413" y="653" type="curve"/>
      <point x="446" y="590"/>
      <point x="499" y="575"/>
      <point x="548" y="575" type="curve" smooth="yes"/>
      <point x="601" y="575"/>
      <point x="640" y="607"/>
      <point x="640" y="649" type="curve" smooth="yes"/>
      <point x="640" y="698"/>
      <point x="587" y="726"/>
      <point x="495" y="726" type="curve" smooth="yes"/>
      <point x="256" y="726"/>
      <point x="56" y="523"/>
      <point x="56" y="256" type="curve" smooth="yes"/>
      <point x="56" y="75"/>
      <point x="159" y="-30"/>
      <point x="328" y="-30" type="curve" smooth="yes"/>
    </contour>
    <contour>
      <point x="523" y="-185"/>
      <point x="540" y="-179"/>
      <point x="557" y="-167" type="curve"/>
      <point x="548" y="-160"/>
      <point x="543" y="-147"/>
      <point x="543" y="-128" type="curve" smooth="yes"/>
      <point x="543" y="17"/>
      <point x="642" y="313"/>
      <point x="642" y="333" type="curve" smooth="yes"/>
      <point x="642" y="367"/>
      <point x="627" y="377"/>
      <point x="591" y="377" type="curve" smooth="yes"/>
      <point x="560" y="377"/>
      <point x="513" y="361"/>
      <point x="483" y="332" type="curve"/>
      <point x="545" y="294" type="line"/>
      <point x="552" y="221" type="line"/>
      <point x="475" y="40" type="line"/>
      <point x="453" y="-51"/>
      <point x="445" y="-105"/>
      <point x="445" y="-134" type="curve" smooth="yes"/>
      <point x="445" y="-172"/>
      <point x="464" y="-185"/>
      <point x="500" y="-185" type="curve" smooth="yes"/>
    </contour>
    <contour>
      <point x="557" y="-167" type="move" name="ogonek"/>
    </contour>
    <contour>
      <point x="211" y="0" type="move" name="bottom"/>
    </contour>
    <contour>
      <point x="418" y="696" type="move" name="top"/>
    </contour>
  </outline>
</glyph>
<glyph name="H" format="1">
  <advance width="814"/>
  <unicode hex="0048"/>
  <outline>
    <contour>
      <point x="640" y="356" type="line"/>
      <point x="204" y="356" type="line"/>
      <point x="191" y="297" type="line"/>
      <point x="629" y="297" type="line"/>
    </contour>
    <contour>
      <point x="120" y="-6"/>
      <point x="138" y="-26"/>
      <point x="178" y="-26" type="curve" smooth="yes"/>
      <point x="199" y="-26"/>
      <point x="219" y="-20"/>
      <point x="243" y="-5" type="curve"/>
      <point x="229" y="13"/>
      <point x="221" y="41"/>
      <point x="221" y="74" type="curve" smooth="yes"/>
      <point x="221" y="169"/>
      <point x="308" y="654"/>
      <point x="308" y="683" type="curve" smooth="yes"/>
      <point x="308" y="712"/>
      <point x="296" y="726"/>
      <point x="272" y="726" type="curve" smooth="yes"/>
      <point x="245" y="726"/>
      <point x="210" y="713"/>
      <point x="175" y="692" type="curve"/>
      <point x="201" y="642" type="line"/>
      <point x="138" y="259"/>
      <point x="120" y="124"/>
      <point x="120" y="42" type="curve" smooth="yes"/>
    </contour>
    <contour>
      <point x="565" y="-6"/>
      <point x="583" y="-26"/>
      <point x="623" y="-26" type="curve" smooth="yes"/>
      <point x="644" y="-26"/>
      <point x="664" y="-20"/>
      <point x="688" y="-5" type="curve"/>
      <point x="674" y="13"/>
      <point x="666" y="41"/>
      <point x="666" y="74" type="curve" smooth="yes"/>
      <point x="666" y="169"/>
      <point x="753" y="654"/>
      <point x="753" y="683" type="curve" smooth="yes"/>
      <point x="753" y="712"/>
      <point x="741" y="726"/>
      <point x="717" y="726" type="curve" smooth="yes"/>
      <point x="690" y="726"/>
      <point x="655" y="713"/>
      <point x="620" y="692" type="curve"/>
      <point x="646" y="642" type="line"/>
      <point x="583" y="259"/>
      <point x="565" y="124"/>
      <point x="565" y="42" type="curve" smooth="yes"/>
    </contour>
    <contour>
      <point x="384" y="0" type="move" name="bottom"/>
    </contour>
    <contour>
      <point x="484" y="710" type="move" name="top"/>
    </contour>
    <contour>
      <point x="20" y="710" type="move" name="topleft"/>
    </contour>
    <contour>
      <point x="458" y="522" type="move" name="center"/>
    </contour>
  </outline>
</glyph>
<glyph name="L" format="1">
  <advance width="540"/>
  <unicode hex="004C"/>
  <outline>
    <contour>
      <point x="208" y="-26"/>
      <point x="238" y="-15"/>
      <point x="273" y="10" type="curve"/>
      <point x="238" y="25"/>
      <point x="221" y="47"/>
      <point x="221" y="74" type="curve" smooth="yes"/>
      <point x="221" y="169"/>
      <point x="308" y="654"/>
      <point x="308" y="683" type="curve" smooth="yes"/>
      <point x="308" y="712"/>
      <point x="296" y="726"/>
      <point x="272" y="726" type="curve" smooth="yes"/>
      <point x="245" y="726"/>
      <point x="210" y="713"/>
      <point x="175" y="692" type="curve"/>
      <point x="201" y="642" type="line"/>
      <point x="137" y="254"/>
      <point x="120" y="123"/>
      <point x="120" y="42" type="curve" smooth="yes"/>
      <point x="120" y="-6"/>
      <point x="138" y="-26"/>
      <point x="178" y="-26" type="curve" smooth="yes"/>
    </contour>
    <contour>
      <point x="459" y="-25"/>
      <point x="500" y="-5"/>
      <point x="500" y="44" type="curve" smooth="yes"/>
      <point x="500" y="54"/>
      <point x="499" y="61"/>
      <point x="492" y="82" type="curve"/>
      <point x="462" y="71"/>
      <point x="433" y="64"/>
      <point x="393" y="60" type="curve"/>
      <point x="188" y="60" type="line"/>
      <point x="157" y="26" type="line"/>
      <point x="198" y="-3"/>
      <point x="282" y="-25"/>
      <point x="363" y="-25" type="curve" smooth="yes"/>
    </contour>
    <contour>
      <point x="270" y="0" type="move" name="bottom"/>
    </contour>
    <contour>
      <point x="240" y="710" type="move" name="top"/>
    </contour>
    <contour>
      <point x="370" y="610" type="move" name="topright"/>
    </contour>
    <contour>
      <point x="410" y="385" type="move" name="center"/>
    </contour>
  </outline>
</glyph>
<glyph name="M" format="1">
  <advance width="1029"/>
  <unicode hex="004D"/>
  <outline>
    <contour>
      <point x="201" y="-26"/>
      <point x="222" y="-20"/>
      <point x="245" y="-5" type="curve"/>
      <point x="229" y="12"/>
      <point x="222" y="35"/>
      <point x="222" y="64" type="curve" smooth="yes"/>
      <point x="222" y="137"/>
      <point x="267" y="411"/>
      <point x="292" y="594" type="curve"/>
      <point x="297" y="594" type="line"/>
      <point x="417" y="76"/>
      <point x="417" y="41"/>
      <point x="505" y="41" type="curve" smooth="yes"/>
      <point x="530" y="41"/>
      <point x="558" y="52"/>
      <point x="581" y="72" type="curve"/>
      <point x="600" y="184"/>
      <point x="694" y="471"/>
      <point x="848" y="594" type="curve"/>
      <point x="853" y="594" type="line"/>
      <point x="794" y="222"/>
      <point x="782" y="108"/>
      <point x="782" y="30" type="curve" smooth="yes"/>
      <point x="782" y="-13"/>
      <point x="802" y="-28"/>
      <point x="838" y="-28" type="curve" smooth="yes"/>
      <point x="860" y="-28"/>
      <point x="881" y="-21"/>
      <point x="904" y="-7" type="curve"/>
      <point x="888" y="11"/>
      <point x="881" y="33"/>
      <point x="881" y="62" type="curve" smooth="yes"/>
      <point x="881" y="160"/>
      <point x="966" y="660"/>
      <point x="966" y="692" type="curve" smooth="yes"/>
      <point x="966" y="723"/>
      <point x="951" y="728"/>
      <point x="944" y="728" type="curve" smooth="yes"/>
      <point x="790" y="728"/>
      <point x="580" y="435"/>
      <point x="509" y="131" type="curve"/>
      <point x="498" y="131" type="line"/>
      <point x="385" y="643"/>
      <point x="386" y="726"/>
      <point x="270" y="726" type="curve" smooth="yes"/>
      <point x="249" y="726"/>
      <point x="215" y="717"/>
      <point x="175" y="692" type="curve"/>
      <point x="201" y="642" type="line"/>
      <point x="136" y="223"/>
      <point x="123" y="109"/>
      <point x="123" y="32" type="curve" smooth="yes"/>
      <point x="123" y="-11"/>
      <point x="143" y="-26"/>
      <point x="181" y="-26" type="curve" smooth="yes"/>
    </contour>
  </outline>
</glyph>
<glyph name="O" format="1">
  <advance width="737"/>
  <unicode hex="004F"/>
  <outline>
    <contour>
      <point x="603" y="157"/>
      <point x="466" y="36"/>
      <point x="355" y="36" type="curve" smooth="yes"/>
      <point x="242" y="36"/>
      <point x="167" y="118"/>
      <point x="167" y="286" type="curve" smooth="yes"/>
      <point x="167" y="510"/>
      <point x="301" y="650"/>
      <point x="465" y="650" type="curve" smooth="yes"/>
      <point x="482" y="650"/>
      <point x="509" y="646"/>
      <point x="524" y="642" type="curve"/>
      <point x="529" y="654"/>
      <point x="531" y="662"/>
      <point x="531" y="674" type="curve" smooth="yes"/>
      <point x="531" y="709"/>
      <point x="500" y="725"/>
      <point x="440" y="725" type="curve" smooth="yes"/>
      <point x="236" y="725"/>
      <point x="60" y="556"/>
      <point x="60" y="280" type="curve" smooth="yes"/>
      <point x="60" y="94"/>
      <point x="168" y="-25"/>
      <point x="334" y="-25" type="curve" smooth="yes"/>
      <point x="551" y="-25"/>
      <point x="710" y="182"/>
      <point x="710" y="445" type="curve" smooth="yes"/>
      <point x="710" y="547"/>
      <point x="673" y="610"/>
      <point x="610" y="610" type="curve" smooth="yes"/>
      <point x="558" y="610"/>
      <point x="520" y="563"/>
      <point x="520" y="501" type="curve" smooth="yes"/>
      <point x="520" y="441"/>
      <point x="542" y="382"/>
      <point x="626" y="346" type="curve"/>
    </contour>
    <contour>
      <point x="357" y="0" type="move" name="bottom"/>
    </contour>
    <contour>
      <point x="498" y="10" type="move" name="ogonek"/>
    </contour>
    <contour>
      <point x="485" y="710" type="move" name="top"/>
    </contour>
    <contour>
      <point x="610" y="610" type="move" name="topright"/>
    </contour>
    <contour>
      <point x="24" y="710" type="move" name="topleft"/>
    </contour>
    <contour>
      <point x="407" y="355" type="move" name="center"/>
    </contour>
  </outline>
</glyph>
<glyph name="T" format="1">
  <advance width="530"/>
  <unicode hex="0054"/>
  <outline>
    <contour>
      <point x="277" y="-26"/>
      <point x="297" y="-20"/>
      <point x="320" y="-5" type="curve"/>
      <point x="305" y="12"/>
      <point x="298" y="35"/>
      <point x="298" y="64" type="curve" smooth="yes"/>
      <point x="298" y="133"/>
      <point x="358" y="490"/>
      <point x="383" y="656" type="curve"/>
      <point x="285" y="675" type="line"/>
      <point x="223" y="293"/>
      <point x="197" y="106"/>
      <point x="197" y="32" type="curve" smooth="yes"/>
      <point x="197" y="-11"/>
      <point x="217" y="-26"/>
      <point x="255" y="-26" type="curve" smooth="yes"/>
    </contour>
    <contour>
      <point x="554" y="611"/>
      <point x="587" y="634"/>
      <point x="587" y="675" type="curve" smooth="yes"/>
      <point x="587" y="690"/>
      <point x="585" y="704"/>
      <point x="580" y="713" type="curve"/>
      <point x="416" y="691" type="line"/>
      <point x="328" y="692"/>
      <point x="247" y="715"/>
      <point x="165" y="715" type="curve" smooth="yes"/>
      <point x="112" y="715"/>
      <point x="77" y="708"/>
      <point x="77" y="651" type="curve" smooth="yes"/>
      <point x="77" y="635"/>
      <point x="80" y="623"/>
      <point x="85" y="613" type="curve"/>
      <point x="249" y="634" type="line"/>
      <point x="337" y="634"/>
      <point x="417" y="611"/>
      <point x="500" y="611" type="curve" smooth="yes"/>
    </contour>
    <contour>
      <point x="297" y="350" type="move" name="center"/>
    </contour>
    <contour>
      <point x="184" y="0" type="move" name="bottom"/>
    </contour>
    <contour>
      <point x="359" y="710" type="move" name="top"/>
    </contour>
  </outline>
</glyph>
<glyph name="V" format="1">
  <advance width="589"/>
  <unicode hex="0056"/>
  <outline>
    <contour>
      <point x="93" y="24"/>
      <point x="116" y="-30"/>
      <point x="209" y="-30" type="curve" smooth="yes"/>
      <point x="245" y="-30"/>
      <point x="290" y="-17"/>
      <point x="306" y="-1" type="curve"/>
      <point x="285" y="27" type="line"/>
      <point x="483" y="314"/>
      <point x="589" y="537"/>
      <point x="589" y="640" type="curve" smooth="yes"/>
      <point x="589" y="692"/>
      <point x="568" y="726"/>
      <point x="537" y="726" type="curve" smooth="yes"/>
      <point x="515" y="726"/>
      <point x="504" y="724"/>
      <point x="463" y="704" type="curve"/>
      <point x="481" y="675"/>
      <point x="487" y="642"/>
      <point x="487" y="599" type="curve" smooth="yes"/>
      <point x="487" y="512"/>
      <point x="411" y="356"/>
      <point x="209" y="59" type="curve"/>
      <point x="197" y="59" type="line"/>
      <point x="197" y="73"/>
      <point x="197" y="75"/>
      <point x="197" y="326" type="curve" smooth="yes"/>
      <point x="197" y="624"/>
      <point x="180" y="726"/>
      <point x="85" y="726" type="curve" smooth="yes"/>
      <point x="61" y="726"/>
      <point x="40" y="719"/>
      <point x="20" y="704" type="curve"/>
      <point x="112" y="605"/>
      <point x="93" y="405"/>
      <point x="93" y="214" type="curve" smooth="yes"/>
    </contour>
  </outline>
</glyph>
<glyph name="X" format="1">
  <advance width="761"/>
  <unicode hex="0058"/>
  <outline>
    <contour>
      <point x="652" y="-30"/>
      <point x="689" y="-8"/>
      <point x="708" y="25" type="curve"/>
      <point x="651" y="46"/>
      <point x="610" y="71"/>
      <point x="556" y="171" type="curve" smooth="yes"/>
      <point x="332" y="588" type="line" smooth="yes"/>
      <point x="278" y="689"/>
      <point x="239" y="727"/>
      <point x="181" y="727" type="curve" smooth="yes"/>
      <point x="147" y="727"/>
      <point x="110" y="705"/>
      <point x="90" y="671" type="curve"/>
      <point x="148" y="651"/>
      <point x="190" y="624"/>
      <point x="244" y="525" type="curve" smooth="yes"/>
      <point x="469" y="108" type="line" smooth="yes"/>
      <point x="524" y="8"/>
      <point x="561" y="-30"/>
      <point x="619" y="-30" type="curve" smooth="yes"/>
    </contour>
    <contour>
      <point x="130" y="-30"/>
      <point x="158" y="-16"/>
      <point x="164" y="-8" type="curve"/>
      <point x="158" y="5"/>
      <point x="154" y="18"/>
      <point x="154" y="35" type="curve" smooth="yes"/>
      <point x="154" y="99"/>
      <point x="220" y="193"/>
      <point x="397" y="316" type="curve"/>
      <point x="370" y="368" type="line"/>
      <point x="204" y="233" type="line" smooth="yes"/>
      <point x="69" y="121"/>
      <point x="46" y="79"/>
      <point x="46" y="39" type="curve" smooth="yes"/>
      <point x="46" y="-2"/>
      <point x="67" y="-30"/>
      <point x="103" y="-30" type="curve" smooth="yes"/>
    </contour>
    <contour>
      <point x="585" y="464" type="line" smooth="yes"/>
      <point x="719" y="575"/>
      <point x="741" y="620"/>
      <point x="741" y="656" type="curve" smooth="yes"/>
      <point x="741" y="698"/>
      <point x="720" y="726"/>
      <point x="685" y="726" type="curve" smooth="yes"/>
      <point x="657" y="726"/>
      <point x="629" y="712"/>
      <point x="624" y="704" type="curve"/>
      <point x="630" y="692"/>
      <point x="633" y="679"/>
      <point x="633" y="661" type="curve" smooth="yes"/>
      <point x="633" y="597"/>
      <point x="568" y="504"/>
      <point x="390" y="381" type="curve"/>
      <point x="418" y="328" type="line"/>
    </contour>
  </outline>
</glyph>
<glyph name="Y" format="1">
  <advance width="781"/>
  <unicode hex="0059"/>
  <outline>
    <contour>
      <point x="468" y="11" type="line"/>
      <point x="155" y="11"/>
      <point x="432" y="726"/>
      <point x="180" y="726" type="curve" smooth="yes"/>
      <point x="157" y="726"/>
      <point x="138" y="719"/>
      <point x="118" y="704" type="curve"/>
      <point x="284" y="545"/>
      <point x="63" y="-30"/>
      <point x="409" y="-30" type="curve"/>
    </contour>
    <contour>
      <point x="730" y="691"/>
      <point x="708" y="726"/>
      <point x="677" y="726" type="curve" smooth="yes"/>
      <point x="655" y="726"/>
      <point x="644" y="724"/>
      <point x="603" y="704" type="curve"/>
      <point x="621" y="675"/>
      <point x="627" y="642"/>
      <point x="627" y="599" type="curve" smooth="yes"/>
      <point x="627" y="20"/>
      <point x="262" y="-165"/>
      <point x="115" y="-165" type="curve" smooth="yes"/>
      <point x="25" y="-165"/>
      <point x="-8" y="-130"/>
      <point x="-32" y="-105" type="curve"/>
      <point x="-39" y="-120"/>
      <point x="-46" y="-141"/>
      <point x="-46" y="-157" type="curve" smooth="yes"/>
      <point x="-46" y="-205"/>
      <point x="-9" y="-242"/>
      <point x="81" y="-242" type="curve" smooth="yes"/>
      <point x="481" y="-242"/>
      <point x="730" y="237"/>
      <point x="730" y="639" type="curve" smooth="yes"/>
    </contour>
    <contour>
      <point x="454" y="710" type="move" name="top"/>
    </contour>
    <contour>
      <point x="308" y="-200" type="move" name="bottom"/>
    </contour>
    <contour>
      <point x="20" y="710" type="move" name="topleft"/>
    </contour>
  </outline>
</glyph>
<glyph name="Z" format="1">
  <advance width="638"/>
  <unicode hex="005A"/>
  <outline>
    <contour>
      <point x="555" y="627" type="line"/>
      <point x="435" y="597" type="line"/>
      <point x="117" y="98" type="line"/>
      <point x="206" y="83" type="line"/>
    </contour>
    <contour>
      <point x="529" y="-30"/>
      <point x="583" y="5"/>
      <point x="583" y="52" type="curve" smooth="yes"/>
      <point x="583" y="67"/>
      <point x="577" y="81"/>
      <point x="558" y="106" type="curve"/>
      <point x="460" y="49" type="line"/>
      <point x="377" y="49"/>
      <point x="218" y="114"/>
      <point x="142" y="114" type="curve" smooth="yes"/>
      <point x="77" y="115"/>
      <point x="30" y="79"/>
      <point x="30" y="29" type="curve" smooth="yes"/>
      <point x="30" y="0"/>
      <point x="53" y="-22"/>
      <point x="84" y="-22" type="curve" smooth="yes"/>
      <point x="117" y="-22"/>
      <point x="142" y="-7"/>
      <point x="179" y="33" type="curve"/>
      <point x="333" y="-23"/>
      <point x="390" y="-30"/>
      <point x="460" y="-30" type="curve" smooth="yes"/>
    </contour>
    <contour>
      <point x="548" y="585"/>
      <point x="623" y="611"/>
      <point x="623" y="676" type="curve" smooth="yes"/>
      <point x="623" y="709"/>
      <point x="601" y="726"/>
      <point x="558" y="726" type="curve" smooth="yes"/>
      <point x="524" y="726"/>
      <point x="480" y="695"/>
      <point x="463" y="656" type="curve"/>
      <point x="360" y="660"/>
      <point x="228" y="690"/>
      <point x="126" y="732" type="curve"/>
      <point x="116" y="721"/>
      <point x="108" y="696"/>
      <point x="108" y="673" type="curve" smooth="yes"/>
      <point x="108" y="610"/>
      <point x="181" y="585"/>
      <point x="365" y="585" type="curve" smooth="yes"/>
    </contour>
    <contour>
      <point x="397" y="710" type="move" name="top"/>
    </contour>
    <contour>
      <point x="272" y="0" type="move" name="bottom"/>
    </contour>
  </outline>
</glyph>
<glyph name="bracketleft" format="1">
  <advance width="382"/>
  <unicode hex="005B"/>
  <outline>
    <contour>
      <point x="252" y="-156"/>
      <point x="293" y="-135"/>
      <point x="293" y="-102" type="curve" smooth="yes"/>
      <point x="293" y="-96"/>
      <point x="292" y="-82"/>
      <point x="288" y="-71" type="curve"/>
      <point x="277" y="-75"/>
      <point x="217" y="-81"/>
      <point x="188" y="-81" type="curve"/>
      <point x="188" y="188"/>
      <point x="241" y="529"/>
      <point x="318" y="722" type="curve"/>
      <point x="347" y="722"/>
      <point x="416" y="717"/>
      <point x="430" y="712" type="curve"/>
      <point x="431" y="723"/>
      <point x="432" y="732"/>
      <point x="432" y="740" type="curve" smooth="yes"/>
      <point x="432" y="780"/>
      <point x="386" y="800"/>
      <point x="330" y="800" type="curve" smooth="yes"/>
      <point x="238" y="800"/>
      <point x="201" y="758"/>
      <point x="162" y="584" type="curve" smooth="yes"/>
      <point x="110" y="354"/>
      <point x="84" y="187"/>
      <point x="84" y="15" type="curve" smooth="yes"/>
      <point x="84" y="-127"/>
      <point x="119" y="-156"/>
      <point x="180" y="-156" type="curve" smooth="yes"/>
    </contour>
  </outline>
</glyph>
<glyph name="asciicircum" format="1">
  <advance width="689"/>
  <unicode hex="005E"/>
  <outline>
    <contour>
      <point x="479" y="929"/>
      <point x="472" y="938"/>
      <point x="460" y="938" type="curve" smooth="yes"/>
      <point x="434" y="938" type="line" smooth="yes"/>
      <point x="422" y="938"/>
      <point x="409" y="927"/>
      <point x="391" y="898" type="curve" smooth="yes"/>
      <point x="123" y="499" type="line"/>
      <point x="156" y="463"/>
      <point x="181" y="451"/>
      <point x="189" y="451" type="curve" smooth="yes"/>
      <point x="201" y="451"/>
      <point x="214" y="463"/>
      <point x="233" y="492" type="curve" smooth="yes"/>
      <point x="434" y="793" type="line"/>
      <point x="411" y="795" type="line"/>
      <point x="518" y="492" type="line" smooth="yes"/>
      <point x="529" y="461"/>
      <point x="536" y="451"/>
      <point x="549" y="451" type="curve" smooth="yes"/>
      <point x="558" y="451"/>
      <point x="591" y="465"/>
      <point x="632" y="499" type="curve"/>
      <point x="490" y="898" type="line" smooth="yes"/>
    </contour>
  </outline>
</glyph>
<glyph name="a" format="1">
  <advance width="748"/>
  <unicode hex="0061"/>
  <outline>
    <contour>
      <point x="350" y="-25"/>
      <point x="427" y="28"/>
      <point x="477" y="121" type="curve"/>
      <point x="487" y="116" type="line"/>
      <point x="482" y="91"/>
      <point x="479" y="68"/>
      <point x="479" y="50" type="curve" smooth="yes"/>
      <point x="479" y="1"/>
      <point x="501" y="-25"/>
      <point x="540" y="-25" type="curve" smooth="yes"/>
      <point x="558" y="-25"/>
      <point x="574" y="-19"/>
      <point x="591" y="-2" type="curve"/>
      <point x="582" y="7"/>
      <point x="577" y="21"/>
      <point x="577" y="40" type="curve" smooth="yes"/>
      <point x="577" y="252"/>
      <point x="658" y="447"/>
      <point x="658" y="538" type="curve" smooth="yes"/>
      <point x="658" y="562"/>
      <point x="639" y="575"/>
      <point x="609" y="575" type="curve" smooth="yes"/>
      <point x="593" y="575"/>
      <point x="572" y="566"/>
      <point x="562" y="554" type="curve"/>
      <point x="519" y="218"/>
      <point x="434" y="50"/>
      <point x="304" y="50" type="curve" smooth="yes"/>
      <point x="231" y="50"/>
      <point x="189" y="106"/>
      <point x="189" y="204" type="curve" smooth="yes"/>
      <point x="189" y="403"/>
      <point x="325" y="554"/>
      <point x="575" y="554" type="curve"/>
      <point x="575" y="567"/>
      <point x="571" y="579"/>
      <point x="563" y="592" type="curve"/>
      <point x="531" y="597"/>
      <point x="496" y="600"/>
      <point x="465" y="600" type="curve" smooth="yes"/>
      <point x="255" y="600"/>
      <point x="85" y="427"/>
      <point x="85" y="210" type="curve" smooth="yes"/>
      <point x="85" y="68"/>
      <point x="158" y="-25"/>
      <point x="266" y="-25" type="curve" smooth="yes"/>
    </contour>
    <contour>
      <point x="591" y="-2" type="move" name="ogonek"/>
    </contour>
    <contour>
      <point x="324" y="0" type="move" name="bottom"/>
    </contour>
    <contour>
      <point x="426" y="575" type="move" name="top"/>
    </contour>
  </outline>
</glyph>
<glyph name="b" format="1">
  <advance width="737"/>
  <unicode hex="0062"/>
  <outline>
    <contour>
      <point x="384" y="600"/>
      <point x="305" y="542"/>
      <point x="252" y="440" type="curve"/>
      <point x="242" y="445" type="line"/>
      <point x="272" y="578"/>
      <point x="305" y="681"/>
      <point x="305" y="723" type="curve" smooth="yes"/>
      <point x="305" y="761"/>
      <point x="292" y="774"/>
      <point x="261" y="774" type="curve" smooth="yes"/>
      <point x="233" y="774"/>
      <point x="191" y="762"/>
      <point x="164" y="739" type="curve"/>
      <point x="205" y="696" type="line"/>
      <point x="150" y="458"/>
      <point x="98" y="195"/>
      <point x="98" y="90" type="curve" smooth="yes"/>
      <point x="98" y="-19"/>
      <point x="156" y="-25"/>
      <point x="204" y="-25" type="curve" smooth="yes"/>
      <point x="453" y="-25"/>
      <point x="654" y="154"/>
      <point x="654" y="380" type="curve" smooth="yes"/>
      <point x="654" y="513"/>
      <point x="581" y="600"/>
      <point x="473" y="600" type="curve" smooth="yes"/>
    </contour>
    <contour>
      <point x="177" y="327"/>
      <point x="305" y="526"/>
      <point x="435" y="526" type="curve" smooth="yes"/>
      <point x="508" y="526"/>
      <point x="550" y="469"/>
      <point x="550" y="371" type="curve" smooth="yes"/>
      <point x="550" y="181"/>
      <point x="390" y="37"/>
      <point x="177" y="30" type="curve"/>
    </contour>
  </outline>
</glyph>
<glyph name="c" format="1">
  <advance width="614"/>
  <unicode hex="0063"/>
  <outline>
    <contour>
      <point x="429" y="-25"/>
      <point x="529" y="51"/>
      <point x="529" y="141" type="curve" smooth="yes"/>
      <point x="529" y="181"/>
      <point x="501" y="196"/>
      <point x="458" y="196" type="curve"/>
      <point x="452" y="104"/>
      <point x="394" y="33"/>
      <point x="305" y="33" type="curve" smooth="yes"/>
      <point x="233" y="33"/>
      <point x="190" y="98"/>
      <point x="190" y="206" type="curve" smooth="yes"/>
      <point x="190" y="362"/>
      <point x="269" y="488"/>
      <point x="376" y="536" type="curve"/>
      <point x="403" y="483"/>
      <point x="445" y="469"/>
      <point x="487" y="469" type="curve" smooth="yes"/>
      <point x="530" y="469"/>
      <point x="563" y="497"/>
      <point x="563" y="533" type="curve" smooth="yes"/>
      <point x="563" y="575"/>
      <point x="517" y="600"/>
      <point x="441" y="600" type="curve" smooth="yes"/>
      <point x="245" y="600"/>
      <point x="85" y="433"/>
      <point x="85" y="213" type="curve" smooth="yes"/>
      <point x="85" y="63"/>
      <point x="170" y="-25"/>
      <point x="309" y="-25" type="curve" smooth="yes"/>
    </contour>
    <contour>
      <point x="384" y="575" type="move" name="top"/>
    </contour>
    <contour>
      <point x="272" y="0" type="move" name="bottom"/>
    </contour>
  </outline>
</glyph>
<glyph name="e" format="1">
  <advance width="646"/>
  <unicode hex="0065"/>
  <outline>
    <contour>
      <point x="438" y="-25"/>
      <point x="539" y="53"/>
      <point x="539" y="133" type="curve" smooth="yes"/>
      <point x="539" y="172"/>
      <point x="511" y="187"/>
      <point x="468" y="187" type="curve"/>
      <point x="462" y="93"/>
      <point x="399" y="33"/>
      <point x="309" y="33" type="curve" smooth="yes"/>
      <point x="235" y="33"/>
      <point x="191" y="101"/>
      <point x="191" y="211" type="curve" smooth="yes"/>
      <point x="191" y="400"/>
      <point x="298" y="551"/>
      <point x="427" y="551" type="curve" smooth="yes"/>
      <point x="477" y="551"/>
      <point x="509" y="517"/>
      <point x="509" y="467" type="curve" smooth="yes"/>
      <point x="509" y="348"/>
      <point x="383" y="280"/>
      <point x="172" y="284" type="curve"/>
      <point x="160" y="232" type="line"/>
      <point x="443" y="235"/>
      <point x="601" y="315"/>
      <point x="601" y="458" type="curve" smooth="yes"/>
      <point x="601" y="547"/>
      <point x="541" y="600"/>
      <point x="440" y="600" type="curve" smooth="yes"/>
      <point x="238" y="600"/>
      <point x="86" y="438"/>
      <point x="86" y="218" type="curve" smooth="yes"/>
      <point x="86" y="67"/>
      <point x="166" y="-25"/>
      <point x="302" y="-25" type="curve" smooth="yes"/>
    </contour>
    <contour>
      <point x="428" y="0" type="move" name="ogonek"/>
    </contour>
    <contour>
      <point x="308" y="0" type="move" name="bottom"/>
    </contour>
    <contour>
      <point x="410" y="575" type="move" name="top"/>
    </contour>
  </outline>
</glyph>
<glyph name="h" format="1">
  <advance width="730"/>
  <unicode hex="0068"/>
  <outline>
    <contour>
      <point x="161" y="-25"/>
      <point x="179" y="-18"/>
      <point x="195" y="-2" type="curve"/>
      <point x="188" y="6"/>
      <point x="185" y="23"/>
      <point x="185" y="40" type="curve" smooth="yes"/>
      <point x="185" y="332"/>
      <point x="347" y="533"/>
      <point x="476" y="533" type="curve" smooth="yes"/>
      <point x="525" y="533"/>
      <point x="544" y="499"/>
      <point x="544" y="442" type="curve" smooth="yes"/>
      <point x="544" y="344"/>
      <point x="480" y="143"/>
      <point x="480" y="33" type="curve" smooth="yes"/>
      <point x="480" y="-5"/>
      <point x="496" y="-25"/>
      <point x="535" y="-25" type="curve" smooth="yes"/>
      <point x="553" y="-25"/>
      <point x="570" y="-18"/>
      <point x="587" y="-2" type="curve"/>
      <point x="580" y="6"/>
      <point x="576" y="23"/>
      <point x="576" y="40" type="curve" smooth="yes"/>
      <point x="576" y="185"/>
      <point x="649" y="338"/>
      <point x="649" y="464" type="curve" smooth="yes"/>
      <point x="649" y="558"/>
      <point x="606" y="600"/>
      <point x="519" y="600" type="curve" smooth="yes"/>
      <point x="436" y="600"/>
      <point x="328" y="555"/>
      <point x="250" y="413" type="curve"/>
      <point x="240" y="418" type="line"/>
      <point x="278" y="595"/>
      <point x="306" y="678"/>
      <point x="306" y="724" type="curve" smooth="yes"/>
      <point x="306" y="762"/>
      <point x="293" y="775"/>
      <point x="262" y="775" type="curve" smooth="yes"/>
      <point x="234" y="775"/>
      <point x="192" y="763"/>
      <point x="165" y="740" type="curve"/>
      <point x="206" y="697" type="line"/>
      <point x="153" y="411"/>
      <point x="88" y="102"/>
      <point x="88" y="33" type="curve" smooth="yes"/>
      <point x="88" y="-5"/>
      <point x="105" y="-25"/>
      <point x="144" y="-25" type="curve" smooth="yes"/>
    </contour>
    <contour>
      <point x="242" y="612" type="move" name="center"/>
    </contour>
    <contour>
      <point x="356" y="0" type="move" name="bottom"/>
    </contour>
    <contour>
      <point x="263" y="725" type="move" name="top"/>
    </contour>
  </outline>
</glyph>
<glyph name="i" format="1">
  <advance width="388"/>
  <unicode hex="0069"/>
  <outline>
    <contour>
      <point x="190" y="-25"/>
      <point x="207" y="-18"/>
      <point x="224" y="-3" type="curve"/>
      <point x="215" y="5"/>
      <point x="210" y="18"/>
      <point x="210" y="40" type="curve" smooth="yes"/>
      <point x="210" y="201"/>
      <point x="305" y="529"/>
      <point x="305" y="550" type="curve" smooth="yes"/>
      <point x="305" y="588"/>
      <point x="290" y="600"/>
      <point x="255" y="600" type="curve" smooth="yes"/>
      <point x="229" y="600"/>
      <point x="189" y="588"/>
      <point x="163" y="566" type="curve"/>
      <point x="204" y="525" type="line"/>
      <point x="131" y="197"/>
      <point x="113" y="85"/>
      <point x="113" y="33" type="curve" smooth="yes"/>
      <point x="113" y="-10"/>
      <point x="133" y="-25"/>
      <point x="168" y="-25" type="curve" smooth="yes"/>
    </contour>
    <contour>
      <point x="311" y="693"/>
      <point x="342" y="723"/>
      <point x="342" y="760" type="curve" smooth="yes"/>
      <point x="342" y="789"/>
      <point x="320" y="810"/>
      <point x="281" y="810" type="curve" smooth="yes"/>
      <point x="229" y="810"/>
      <point x="203" y="774"/>
      <point x="203" y="743" type="curve" smooth="yes"/>
      <point x="203" y="713"/>
      <point x="226" y="693"/>
      <point x="264" y="693" type="curve" smooth="yes"/>
    </contour>
    <contour>
      <point x="224" y="-3" type="move" name="ogonek"/>
    </contour>
    <contour>
      <point x="160" y="0" type="move" name="bottom"/>
    </contour>
  </outline>
</glyph>
<glyph name="l" format="1">
  <advance width="372"/>
  <unicode hex="006C"/>
  <outline>
    <contour>
      <point x="185" y="-25"/>
      <point x="205" y="-15"/>
      <point x="220" y="-2" type="curve"/>
      <point x="208" y="7"/>
      <point x="202" y="34"/>
      <point x="202" y="47" type="curve" smooth="yes"/>
      <point x="202" y="270"/>
      <point x="306" y="676"/>
      <point x="306" y="724" type="curve" smooth="yes"/>
      <point x="306" y="762"/>
      <point x="293" y="775"/>
      <point x="262" y="775" type="curve" smooth="yes"/>
      <point x="234" y="775"/>
      <point x="192" y="763"/>
      <point x="165" y="740" type="curve"/>
      <point x="206" y="697" type="line"/>
      <point x="171" y="505"/>
      <point x="107" y="107"/>
      <point x="107" y="38" type="curve" smooth="yes"/>
      <point x="107" y="-5"/>
      <point x="127" y="-25"/>
      <point x="157" y="-25" type="curve" smooth="yes"/>
    </contour>
    <contour>
      <point x="140" y="0" type="move" name="bottom"/>
    </contour>
    <contour>
      <point x="257" y="725" type="move" name="top"/>
    </contour>
    <contour>
      <point x="279" y="575" type="move" name="topright"/>
    </contour>
    <contour>
      <point x="202" y="391" type="move" name="center"/>
    </contour>
  </outline>
</glyph>
<glyph name="o" format="1">
  <advance width="727"/>
  <unicode hex="006F"/>
  <outline>
    <contour>
      <point x="505" y="-25"/>
      <point x="649" y="154"/>
      <point x="649" y="380" type="curve" smooth="yes"/>
      <point x="649" y="476"/>
      <point x="616" y="532"/>
      <point x="559" y="532" type="curve" smooth="yes"/>
      <point x="519" y="532"/>
      <point x="491" y="500"/>
      <point x="491" y="456" type="curve" smooth="yes"/>
      <point x="491" y="402"/>
      <point x="514" y="363"/>
      <point x="570" y="326" type="curve"/>
      <point x="552" y="150"/>
      <point x="457" y="33"/>
      <point x="327" y="33" type="curve" smooth="yes"/>
      <point x="241" y="33"/>
      <point x="195" y="111"/>
      <point x="195" y="230" type="curve" smooth="yes"/>
      <point x="195" y="419"/>
      <point x="310" y="554"/>
      <point x="525" y="554" type="curve"/>
      <point x="524" y="569"/>
      <point x="520" y="581"/>
      <point x="511" y="592" type="curve"/>
      <point x="486" y="598"/>
      <point x="462" y="600"/>
      <point x="433" y="600" type="curve" smooth="yes"/>
      <point x="231" y="600"/>
      <point x="90" y="452"/>
      <point x="90" y="238" type="curve" smooth="yes"/>
      <point x="90" y="78"/>
      <point x="181" y="-25"/>
      <point x="322" y="-25" type="curve" smooth="yes"/>
    </contour>
    <contour>
      <point x="317" y="0" type="move" name="bottom"/>
    </contour>
    <contour>
      <point x="655" y="10" type="move" name="ogonek"/>
    </contour>
    <contour>
      <point x="419" y="575" type="move" name="top"/>
    </contour>
    <contour>
      <point x="559" y="532" type="move" name="topright"/>
    </contour>
    <contour>
      <point x="373" y="288" type="move" name="center"/>
    </contour>
  </outline>
</glyph>
<glyph name="p" format="1">
  <advance width="774"/>
  <unicode hex="0070"/>
  <outline>
    <contour>
      <point x="424" y="600"/>
      <point x="347" y="540"/>
      <point x="297" y="434" type="curve"/>
      <point x="253" y="474" type="line"/>
      <point x="222" y="89" type="line"/>
      <point x="282" y="374"/>
      <point x="359" y="526"/>
      <point x="470" y="526" type="curve" smooth="yes"/>
      <point x="543" y="526"/>
      <point x="586" y="469"/>
      <point x="586" y="371" type="curve" smooth="yes"/>
      <point x="586" y="174"/>
      <point x="434" y="46"/>
      <point x="199" y="46" type="curve"/>
      <point x="199" y="33"/>
      <point x="203" y="21"/>
      <point x="211" y="8" type="curve"/>
      <point x="240" y="3"/>
      <point x="275" y="0"/>
      <point x="310" y="0" type="curve" smooth="yes"/>
      <point x="520" y="0"/>
      <point x="689" y="163"/>
      <point x="689" y="365" type="curve" smooth="yes"/>
      <point x="689" y="507"/>
      <point x="617" y="600"/>
      <point x="508" y="600" type="curve" smooth="yes"/>
    </contour>
    <contour>
      <point x="188" y="-200"/>
      <point x="209" y="-192"/>
      <point x="225" y="-177" type="curve"/>
      <point x="216" y="-172"/>
      <point x="207" y="-148"/>
      <point x="207" y="-129" type="curve" smooth="yes"/>
      <point x="207" y="170"/>
      <point x="311" y="471"/>
      <point x="311" y="549" type="curve" smooth="yes"/>
      <point x="311" y="586"/>
      <point x="299" y="600"/>
      <point x="267" y="600" type="curve" smooth="yes"/>
      <point x="236" y="600"/>
      <point x="194" y="585"/>
      <point x="170" y="565" type="curve"/>
      <point x="211" y="522" type="line"/>
      <point x="156" y="214"/>
      <point x="112" y="-75"/>
      <point x="112" y="-127" type="curve" smooth="yes"/>
      <point x="112" y="-176"/>
      <point x="131" y="-200"/>
      <point x="162" y="-200" type="curve" smooth="yes"/>
    </contour>
  </outline>
</glyph>
<glyph name="r" format="1">
  <advance width="480"/>
  <unicode hex="0072"/>
  <outline>
    <contour>
      <point x="191" y="-25"/>
      <point x="208" y="-17"/>
      <point x="223" y="-2" type="curve"/>
      <point x="216" y="6"/>
      <point x="213" y="21"/>
      <point x="213" y="40" type="curve" smooth="yes"/>
      <point x="213" y="262"/>
      <point x="329" y="491"/>
      <point x="440" y="491" type="curve" smooth="yes"/>
      <point x="488" y="491"/>
      <point x="525" y="513"/>
      <point x="525" y="552" type="curve" smooth="yes"/>
      <point x="525" y="587"/>
      <point x="506" y="601"/>
      <point x="467" y="601" type="curve" smooth="yes"/>
      <point x="409" y="601"/>
      <point x="335" y="538"/>
      <point x="268" y="383" type="curve"/>
      <point x="258" y="388" type="line"/>
      <point x="284" y="450"/>
      <point x="301" y="502"/>
      <point x="301" y="547" type="curve" smooth="yes"/>
      <point x="301" y="571"/>
      <point x="290" y="596"/>
      <point x="255" y="596" type="curve" smooth="yes"/>
      <point x="231" y="596"/>
      <point x="200" y="580"/>
      <point x="167" y="552" type="curve"/>
      <point x="209" y="509" type="line"/>
      <point x="164" y="342"/>
      <point x="116" y="104"/>
      <point x="116" y="48" type="curve" smooth="yes"/>
      <point x="116" y="-4"/>
      <point x="136" y="-25"/>
      <point x="172" y="-25" type="curve" smooth="yes"/>
    </contour>
    <contour>
      <point x="348" y="575" type="move" name="top"/>
    </contour>
    <contour>
      <point x="126" y="0" type="move" name="bottom"/>
    </contour>
  </outline>
</glyph>
<glyph name="s" format="1">
  <advance width="611"/>
  <unicode hex="0073"/>
  <outline>
    <contour>
      <point x="441" y="-25"/>
      <point x="523" y="65"/>
      <point x="523" y="160" type="curve" smooth="yes"/>
      <point x="523" y="339"/>
      <point x="189" y="319"/>
      <point x="189" y="426" type="curve" smooth="yes"/>
      <point x="189" y="484"/>
      <point x="258" y="532"/>
      <point x="382" y="546" type="curve"/>
      <point x="398" y="488"/>
      <point x="430" y="454"/>
      <point x="481" y="454" type="curve" smooth="yes"/>
      <point x="529" y="454"/>
      <point x="562" y="476"/>
      <point x="562" y="523" type="curve" smooth="yes"/>
      <point x="562" y="569"/>
      <point x="488" y="600"/>
      <point x="390" y="600" type="curve" smooth="yes"/>
      <point x="211" y="600"/>
      <point x="97" y="518"/>
      <point x="97" y="416" type="curve" smooth="yes"/>
      <point x="97" y="232"/>
      <point x="432" y="260"/>
      <point x="432" y="145" type="curve" smooth="yes"/>
      <point x="432" y="68"/>
      <point x="366" y="28"/>
      <point x="258" y="28" type="curve" smooth="yes"/>
      <point x="196" y="28"/>
      <point x="136" y="63"/>
      <point x="103" y="131" type="curve"/>
      <point x="76" y="118"/>
      <point x="59" y="96"/>
      <point x="59" y="72" type="curve" smooth="yes"/>
      <point x="59" y="8"/>
      <point x="147" y="-25"/>
      <point x="263" y="-25" type="curve" smooth="yes"/>
    </contour>
    <contour>
      <point x="360" y="575" type="move" name="top"/>
    </contour>
    <contour>
      <point x="268" y="0" type="move" name="bottom"/>
    </contour>
  </outline>
</glyph>
<glyph name="t" format="1">
  <advance width="442"/>
  <unicode hex="0074"/>
  <outline>
    <contour>
      <point x="229" y="-25"/>
      <point x="256" y="-16"/>
      <point x="277" y="4" type="curve"/>
      <point x="251" y="48" type="line"/>
      <point x="248" y="285"/>
      <point x="375" y="547"/>
      <point x="375" y="647" type="curve" smooth="yes"/>
      <point x="375" y="684"/>
      <point x="359" y="698"/>
      <point x="326" y="698" type="curve" smooth="yes"/>
      <point x="298" y="698"/>
      <point x="263" y="687"/>
      <point x="246" y="667" type="curve"/>
      <point x="250" y="642"/>
      <point x="255" y="614"/>
      <point x="255" y="585" type="curve" smooth="yes"/>
      <point x="255" y="451"/>
      <point x="153" y="196"/>
      <point x="153" y="50" type="curve" smooth="yes"/>
      <point x="153" y="-13"/>
      <point x="179" y="-25"/>
      <point x="208" y="-25" type="curve" smooth="yes"/>
    </contour>
    <contour>
      <point x="232" y="442"/>
      <point x="301" y="465"/>
      <point x="363" y="465" type="curve" smooth="yes"/>
      <point x="387" y="465"/>
      <point x="428" y="463"/>
      <point x="449" y="457" type="curve"/>
      <point x="462" y="471"/>
      <point x="465" y="486"/>
      <point x="465" y="499" type="curve" smooth="yes"/>
      <point x="465" y="520"/>
      <point x="456" y="535"/>
      <point x="425" y="535" type="curve" smooth="yes"/>
      <point x="358" y="535"/>
      <point x="290" y="513"/>
      <point x="229" y="513" type="curve" smooth="yes"/>
      <point x="203" y="513"/>
      <point x="160" y="515"/>
      <point x="139" y="521" type="curve"/>
      <point x="126" y="506"/>
      <point x="123" y="490"/>
      <point x="123" y="477" type="curve" smooth="yes"/>
      <point x="123" y="456"/>
      <point x="134" y="442"/>
      <point x="164" y="442" type="curve" smooth="yes"/>
    </contour>
    <contour>
      <point x="246" y="259" type="move" name="center"/>
    </contour>
    <contour>
      <point x="222" y="575" type="move" name="top"/>
    </contour>
    <contour>
      <point x="412" y="575" type="move" name="topright"/>
    </contour>
    <contour>
      <point x="294" y="488" type="move" name="_center"/>
    </contour>
    <contour>
      <point x="192" y="0" type="move" name="bottom"/>
    </contour>
  </outline>
</glyph>
<glyph name="v" format="1">
  <advance width="645"/>
  <unicode hex="0076"/>
  <outline>
    <contour>
      <point x="148" y="21"/>
      <point x="169" y="-25"/>
      <point x="252" y="-25" type="curve" smooth="yes"/>
      <point x="286" y="-25"/>
      <point x="327" y="-12"/>
      <point x="343" y="5" type="curve"/>
      <point x="329" y="29" type="line"/>
      <point x="496" y="268"/>
      <point x="585" y="445"/>
      <point x="585" y="528" type="curve" smooth="yes"/>
      <point x="585" y="572"/>
      <point x="566" y="600"/>
      <point x="538" y="600" type="curve" smooth="yes"/>
      <point x="517" y="600"/>
      <point x="506" y="597"/>
      <point x="471" y="580" type="curve"/>
      <point x="486" y="556"/>
      <point x="492" y="529"/>
      <point x="492" y="494" type="curve" smooth="yes"/>
      <point x="492" y="423"/>
      <point x="426" y="293"/>
      <point x="253" y="52" type="curve"/>
      <point x="243" y="52" type="line"/>
      <point x="243" y="67"/>
      <point x="242" y="76"/>
      <point x="242" y="275" type="curve" smooth="yes"/>
      <point x="242" y="518"/>
      <point x="227" y="600"/>
      <point x="144" y="600" type="curve" smooth="yes"/>
      <point x="122" y="600"/>
      <point x="103" y="594"/>
      <point x="85" y="580" type="curve"/>
      <point x="164" y="499"/>
      <point x="148" y="336"/>
      <point x="148" y="178" type="curve" smooth="yes"/>
    </contour>
  </outline>
</glyph>
<glyph name="x" format="1">
  <advance width="640"/>
  <unicode hex="0078"/>
  <outline>
    <contour>
      <point x="552" y="-25"/>
      <point x="584" y="-6"/>
      <point x="602" y="24" type="curve"/>
      <point x="553" y="42"/>
      <point x="520" y="66"/>
      <point x="473" y="146" type="curve" smooth="yes"/>
      <point x="287" y="485" type="line" smooth="yes"/>
      <point x="245" y="570"/>
      <point x="212" y="600"/>
      <point x="163" y="600" type="curve" smooth="yes"/>
      <point x="132" y="600"/>
      <point x="100" y="581"/>
      <point x="82" y="550" type="curve"/>
      <point x="132" y="532"/>
      <point x="164" y="509"/>
      <point x="211" y="429" type="curve" smooth="yes"/>
      <point x="398" y="89" type="line" smooth="yes"/>
      <point x="440" y="6"/>
      <point x="473" y="-25"/>
      <point x="522" y="-25" type="curve" smooth="yes"/>
    </contour>
    <contour>
      <point x="119" y="-25"/>
      <point x="144" y="-13"/>
      <point x="151" y="-5" type="curve"/>
      <point x="146" y="6"/>
      <point x="143" y="17"/>
      <point x="143" y="31" type="curve" smooth="yes"/>
      <point x="143" y="84"/>
      <point x="197" y="160"/>
      <point x="341" y="259" type="curve"/>
      <point x="315" y="307" type="line"/>
      <point x="180" y="198" type="line" smooth="yes"/>
      <point x="66" y="108"/>
      <point x="45" y="70"/>
      <point x="45" y="35" type="curve" smooth="yes"/>
      <point x="45" y="-1"/>
      <point x="64" y="-25"/>
      <point x="95" y="-25" type="curve" smooth="yes"/>
    </contour>
    <contour>
      <point x="495" y="378" type="line" smooth="yes"/>
      <point x="609" y="467"/>
      <point x="630" y="507"/>
      <point x="630" y="540" type="curve" smooth="yes"/>
      <point x="630" y="577"/>
      <point x="611" y="601"/>
      <point x="580" y="601" type="curve" smooth="yes"/>
      <point x="556" y="601"/>
      <point x="531" y="589"/>
      <point x="524" y="580" type="curve"/>
      <point x="529" y="570"/>
      <point x="532" y="559"/>
      <point x="532" y="544" type="curve" smooth="yes"/>
      <point x="532" y="491"/>
      <point x="478" y="416"/>
      <point x="334" y="317" type="curve"/>
      <point x="360" y="269" type="line"/>
    </contour>
  </outline>
</glyph>
<glyph name="y" format="1">
  <advance width="654"/>
  <unicode hex="0079"/>
  <outline>
    <contour>
      <point x="408" y="-200"/>
      <point x="626" y="214"/>
      <point x="626" y="547" type="curve" smooth="yes"/>
      <point x="626" y="590"/>
      <point x="606" y="600"/>
      <point x="587" y="600" type="curve" smooth="yes"/>
      <point x="567" y="600"/>
      <point x="559" y="597"/>
      <point x="527" y="580" type="curve"/>
      <point x="529" y="566"/>
      <point x="529" y="541"/>
      <point x="529" y="525" type="curve" smooth="yes"/>
      <point x="529" y="12"/>
      <point x="214" y="-131"/>
      <point x="85" y="-131" type="curve" smooth="yes"/>
      <point x="6" y="-131"/>
      <point x="-23" y="-102"/>
      <point x="-44" y="-80" type="curve"/>
      <point x="-50" y="-93"/>
      <point x="-57" y="-112"/>
      <point x="-57" y="-127" type="curve" smooth="yes"/>
      <point x="-57" y="-169"/>
      <point x="-24" y="-200"/>
      <point x="56" y="-200" type="curve" smooth="yes"/>
    </contour>
    <contour>
      <point x="394" y="12" type="line"/>
      <point x="121" y="12"/>
      <point x="365" y="600"/>
      <point x="141" y="600" type="curve" smooth="yes"/>
      <point x="121" y="600"/>
      <point x="103" y="594"/>
      <point x="85" y="580" type="curve"/>
      <point x="231" y="449"/>
      <point x="37" y="-25"/>
      <point x="339" y="-25" type="curve"/>
    </contour>
    <contour>
      <point x="376" y="575" type="move" name="top"/>
    </contour>
    <contour>
      <point x="262" y="-125" type="move" name="bottom"/>
    </contour>
  </outline>
</glyph>
<glyph name="sterling" format="1">
  <advance width="593"/>
  <unicode hex="00A3"/>
  <outline>
    <contour>
      <point x="205" y="74" type="line"/>
      <point x="301" y="610" type="line"/>
      <point x="410" y="610"/>
      <point x="513" y="592"/>
      <point x="574" y="563" type="curve"/>
      <point x="579" y="587"/>
      <point x="581" y="597"/>
      <point x="581" y="606" type="curve" smooth="yes"/>
      <point x="581" y="669"/>
      <point x="513" y="698"/>
      <point x="407" y="698" type="curve" smooth="yes"/>
      <point x="266" y="698"/>
      <point x="191" y="639"/>
      <point x="175" y="469" type="curve" smooth="yes"/>
      <point x="138" y="72" type="line"/>
    </contour>
    <contour>
      <point x="514" y="-30"/>
      <point x="570" y="6"/>
      <point x="570" y="54" type="curve" smooth="yes"/>
      <point x="570" y="69"/>
      <point x="563" y="84"/>
      <point x="544" y="110" type="curve"/>
      <point x="444" y="51" type="line"/>
      <point x="368" y="51"/>
      <point x="205" y="118"/>
      <point x="149" y="118" type="curve" smooth="yes"/>
      <point x="82" y="118"/>
      <point x="35" y="81"/>
      <point x="35" y="30" type="curve" smooth="yes"/>
      <point x="35" y="1"/>
      <point x="59" y="-22"/>
      <point x="90" y="-22" type="curve" smooth="yes"/>
      <point x="124" y="-22"/>
      <point x="150" y="-7"/>
      <point x="188" y="34" type="curve"/>
      <point x="325" y="-21"/>
      <point x="380" y="-30"/>
      <point x="444" y="-30" type="curve" smooth="yes"/>
    </contour>
    <component base="uni0335" xOffset="-68" yOffset="53" xScale="0.9" yScale="0.8"/>
  </outline>
</glyph>
<glyph name="guillemotleft" format="1">
  <advance width="616"/>
  <unicode hex="00AB"/>
  <outline>
    <contour>
      <point x="90" y="377"/>
      <point x="61" y="353"/>
      <point x="61" y="288" type="curve" smooth="yes"/>
      <point x="61" y="238"/>
      <point x="156" y="111"/>
      <point x="225" y="25" type="curve"/>
      <point x="259" y="25"/>
      <point x="278" y="37"/>
      <point x="278" y="78" type="curve" smooth="yes"/>
      <point x="278" y="137"/>
      <point x="221" y="187"/>
      <point x="110" y="300" type="curve"/>
      <point x="232" y="376"/>
      <point x="339" y="453"/>
      <point x="339" y="501" type="curve" smooth="yes"/>
      <point x="339" y="546"/>
      <point x="292" y="549"/>
      <point x="296" y="549" type="curve"/>
    </contour>
    <contour>
      <point x="330" y="377"/>
      <point x="301" y="353"/>
      <point x="301" y="288" type="curve" smooth="yes"/>
      <point x="301" y="238"/>
      <point x="396" y="111"/>
      <point x="465" y="25" type="curve"/>
      <point x="499" y="25"/>
      <point x="517" y="37"/>
      <point x="517" y="78" type="curve" smooth="yes"/>
      <point x="517" y="137"/>
      <point x="461" y="187"/>
      <point x="348" y="300" type="curve"/>
      <point x="472" y="376"/>
      <point x="579" y="453"/>
      <point x="579" y="501" type="curve" smooth="yes"/>
      <point x="579" y="546"/>
      <point x="531" y="549"/>
      <point x="536" y="549" type="curve"/>
    </contour>
  </outline>
</glyph>
<glyph name="ordmasculine" format="1">
  <advance width="491"/>
  <unicode hex="00BA"/>
  <outline>
    <contour>
      <point x="401" y="333"/>
      <point x="489" y="450"/>
      <point x="489" y="610" type="curve" smooth="yes"/>
      <point x="489" y="681"/>
      <point x="459" y="725"/>
      <point x="421" y="725" type="curve" smooth="yes"/>
      <point x="402" y="725"/>
      <point x="384" y="716"/>
      <point x="373" y="700" type="curve"/>
      <point x="399" y="667"/>
      <point x="414" y="622"/>
      <point x="414" y="560" type="curve" smooth="yes"/>
      <point x="414" y="452"/>
      <point x="356" y="382"/>
      <point x="274" y="382" type="curve" smooth="yes"/>
      <point x="214" y="382"/>
      <point x="178" y="428"/>
      <point x="178" y="514" type="curve" smooth="yes"/>
      <point x="178" y="642"/>
      <point x="260" y="729"/>
      <point x="391" y="724" type="curve"/>
      <point x="390" y="740"/>
      <point x="389" y="755"/>
      <point x="385" y="766" type="curve"/>
      <point x="369" y="770"/>
      <point x="358" y="770"/>
      <point x="337" y="770" type="curve" smooth="yes"/>
      <point x="191" y="770"/>
      <point x="88" y="667"/>
      <point x="88" y="518" type="curve" smooth="yes"/>
      <point x="88" y="405"/>
      <point x="157" y="333"/>
      <point x="262" y="333" type="curve" smooth="yes"/>
    </contour>
  </outline>
</glyph>
<glyph name="AE" format="1">
  <advance width="831"/>
  <unicode hex="00C6"/>
  <outline>
    <contour>
      <point x="112" y="-29"/>
      <point x="138" y="-28"/>
      <point x="163" y="-7" type="curve"/>
      <point x="147" y="14"/>
      <point x="147" y="40"/>
      <point x="147" y="68" type="curve" smooth="yes"/>
      <point x="147" y="169"/>
      <point x="237" y="348"/>
      <point x="453" y="644" type="curve"/>
      <point x="465" y="644" type="line"/>
      <point x="487" y="682" type="line"/>
      <point x="479" y="712"/>
      <point x="465" y="726"/>
      <point x="433" y="726" type="curve" smooth="yes"/>
      <point x="401" y="726"/>
      <point x="377" y="720"/>
      <point x="347" y="707" type="curve"/>
      <point x="377" y="676" type="line"/>
      <point x="163" y="384"/>
      <point x="47" y="153"/>
      <point x="47" y="42" type="curve" smooth="yes"/>
      <point x="47" y="-1"/>
      <point x="60" y="-29"/>
      <point x="91" y="-29" type="curve" smooth="yes"/>
    </contour>
    <contour>
      <point x="465" y="194" type="line"/>
      <point x="476" y="253" type="line"/>
      <point x="150" y="253" type="line"/>
      <point x="137" y="194" type="line"/>
    </contour>
    <contour>
      <point x="470" y="-26"/>
      <point x="500" y="-15"/>
      <point x="536" y="10" type="curve"/>
      <point x="501" y="25"/>
      <point x="484" y="47"/>
      <point x="484" y="74" type="curve" smooth="yes"/>
      <point x="484" y="169"/>
      <point x="571" y="654"/>
      <point x="571" y="683" type="curve" smooth="yes"/>
      <point x="571" y="712"/>
      <point x="559" y="726"/>
      <point x="535" y="726" type="curve" smooth="yes"/>
      <point x="508" y="726"/>
      <point x="473" y="713"/>
      <point x="438" y="692" type="curve"/>
      <point x="465" y="644" type="line"/>
      <point x="402" y="256"/>
      <point x="383" y="123"/>
      <point x="383" y="42" type="curve" smooth="yes"/>
      <point x="383" y="-6"/>
      <point x="401" y="-26"/>
      <point x="441" y="-26" type="curve" smooth="yes"/>
    </contour>
    <contour>
      <point x="757" y="-25"/>
      <point x="802" y="-5"/>
      <point x="802" y="44" type="curve" smooth="yes"/>
      <point x="802" y="55"/>
      <point x="800" y="62"/>
      <point x="794" y="82" type="curve"/>
      <point x="764" y="71"/>
      <point x="735" y="64"/>
      <point x="695" y="60" type="curve"/>
      <point x="467" y="60" type="line"/>
      <point x="426" y="34" type="line"/>
      <point x="475" y="-1"/>
      <point x="567" y="-25"/>
      <point x="650" y="-25" type="curve" smooth="yes"/>
    </contour>
    <contour>
      <point x="676" y="288"/>
      <point x="706" y="313"/>
      <point x="706" y="358" type="curve" smooth="yes"/>
      <point x="706" y="363"/>
      <point x="706" y="370"/>
      <point x="706" y="377" type="curve"/>
      <point x="637" y="360" type="line"/>
      <point x="586" y="360"/>
      <point x="541" y="362"/>
      <point x="498" y="367" type="curve"/>
      <point x="485" y="309" type="line"/>
      <point x="540" y="294"/>
      <point x="579" y="288"/>
      <point x="620" y="288" type="curve" smooth="yes"/>
    </contour>
    <contour>
      <point x="798" y="604"/>
      <point x="855" y="621"/>
      <point x="855" y="683" type="curve" smooth="yes"/>
      <point x="855" y="693"/>
      <point x="855" y="704"/>
      <point x="850" y="720" type="curve"/>
      <point x="735" y="698"/>
      <point x="667" y="682"/>
      <point x="533" y="682" type="curve"/>
      <point x="506" y="640" type="line"/>
      <point x="590" y="612"/>
      <point x="662" y="604"/>
      <point x="747" y="604" type="curve" smooth="yes"/>
    </contour>
    <contour>
      <point x="602" y="710" type="move" name="top"/>
    </contour>
    <contour>
      <point x="489" y="0" type="move" name="bottom"/>
    </contour>
  </outline>
</glyph>
<glyph name="multiply" format="1">
  <advance width="662"/>
  <unicode hex="00D7"/>
  <outline>
    <contour>
      <point x="536" y="481" type="line" smooth="yes"/>
      <point x="562" y="502"/>
      <point x="570" y="518"/>
      <point x="570" y="530" type="curve" smooth="yes"/>
      <point x="570" y="553"/>
      <point x="536" y="575"/>
      <point x="500" y="588" type="curve"/>
      <point x="153" y="270" type="line" smooth="yes"/>
      <point x="128" y="249"/>
      <point x="119" y="233"/>
      <point x="119" y="221" type="curve" smooth="yes"/>
      <point x="119" y="198"/>
      <point x="154" y="176"/>
      <point x="190" y="164" type="curve"/>
    </contour>
    <contour>
      <point x="484" y="182"/>
      <point x="522" y="196"/>
      <point x="522" y="224" type="curve" smooth="yes"/>
      <point x="522" y="233"/>
      <point x="517" y="240"/>
      <point x="508" y="253" type="curve" smooth="yes"/>
      <point x="240" y="588" type="line"/>
      <point x="207" y="568"/>
      <point x="168" y="554"/>
      <point x="168" y="528" type="curve" smooth="yes"/>
      <point x="168" y="519"/>
      <point x="174" y="511"/>
      <point x="182" y="499" type="curve" smooth="yes"/>
      <point x="450" y="164" type="line"/>
    </contour>
  </outline>
</glyph>
<glyph name="Oslash" format="1">
  <advance width="737"/>
  <unicode hex="00D8"/>
  <outline>
    <component base="O"/>
    <component base="slash" xOffset="208" yOffset="-23"/>
    <contour>
      <point x="435" y="710" type="move" name="top"/>
    </contour>
    <contour>
      <point x="349" y="0" type="move" name="bottom"/>
    </contour>
  </outline>
</glyph>
<glyph name="ae" format="1">
  <advance width="1023"/>
  <unicode hex="00E6"/>
  <outline>
    <contour>
      <point x="347" y="-25"/>
      <point x="422" y="28"/>
      <point x="471" y="121" type="curve"/>
      <point x="477" y="121" type="line"/>
      <point x="506" y="247" type="line"/>
      <point x="464" y="124"/>
      <point x="379" y="50"/>
      <point x="303" y="50" type="curve" smooth="yes"/>
      <point x="230" y="50"/>
      <point x="188" y="106"/>
      <point x="188" y="204" type="curve" smooth="yes"/>
      <point x="188" y="396"/>
      <point x="332" y="529"/>
      <point x="574" y="529" type="curve"/>
      <point x="574" y="544"/>
      <point x="570" y="556"/>
      <point x="562" y="567" type="curve"/>
      <point x="536" y="572"/>
      <point x="501" y="575"/>
      <point x="464" y="575" type="curve" smooth="yes"/>
      <point x="254" y="575"/>
      <point x="84" y="412"/>
      <point x="84" y="210" type="curve" smooth="yes"/>
      <point x="84" y="68"/>
      <point x="157" y="-25"/>
      <point x="265" y="-25" type="curve" smooth="yes"/>
    </contour>
    <component base="e" xOffset="377"/>
    <contour>
      <point x="575" y="575" type="move" name="top"/>
    </contour>
    <contour>
      <point x="453" y="0" type="move" name="bottom"/>
    </contour>
  </outline>
</glyph>
<glyph name="eth" format="1">
  <advance width="700"/>
  <unicode hex="00F0"/>
  <outline>
    <contour>
      <point x="501" y="-25"/>
      <point x="633" y="131"/>
      <point x="633" y="354" type="curve" smooth="yes"/>
      <point x="633" y="604"/>
      <point x="469" y="827"/>
      <point x="285" y="827" type="curve" smooth="yes"/>
      <point x="249" y="827"/>
      <point x="221" y="799"/>
      <point x="221" y="763" type="curve"/>
      <point x="399" y="763"/>
      <point x="544" y="584"/>
      <point x="544" y="306" type="curve" smooth="yes"/>
      <point x="544" y="140"/>
      <point x="463" y="33"/>
      <point x="339" y="33" type="curve" smooth="yes"/>
      <point x="248" y="33"/>
      <point x="194" y="107"/>
      <point x="194" y="230" type="curve" smooth="yes"/>
      <point x="194" y="431"/>
      <point x="315" y="554"/>
      <point x="509" y="554" type="curve"/>
      <point x="508" y="567"/>
      <point x="504" y="579"/>
      <point x="495" y="592" type="curve"/>
      <point x="475" y="598"/>
      <point x="453" y="600"/>
      <point x="417" y="600" type="curve" smooth="yes"/>
      <point x="225" y="600"/>
      <point x="89" y="449"/>
      <point x="89" y="235" type="curve" smooth="yes"/>
      <point x="89" y="77"/>
      <point x="177" y="-25"/>
      <point x="315" y="-25" type="curve" smooth="yes"/>
    </contour>
    <component base="uni0335.Rhalf" xOffset="568" yOffset="353" xScale="0.94" yScale="0.94" xyScale="0.342" yxScale="-0.342"/>
  </outline>
</glyph>
<glyph name="OE" format="1">
  <advance width="1086"/>
  <unicode hex="0152"/>
  <outline>
    <contour>
      <point x="984" y="604"/>
      <point x="1041" y="621"/>
      <point x="1041" y="683" type="curve" smooth="yes"/>
      <point x="1041" y="693"/>
      <point x="1041" y="704"/>
      <point x="1036" y="720" type="curve"/>
      <point x="939" y="704"/>
      <point x="897" y="692"/>
      <point x="799" y="692" type="curve" smooth="yes"/>
      <point x="682" y="692"/>
      <point x="583" y="726"/>
      <point x="478" y="726" type="curve"/>
      <point x="331" y="608" type="line"/>
      <point x="542" y="752"/>
      <point x="686" y="604"/>
      <point x="933" y="604" type="curve" smooth="yes"/>
    </contour>
    <contour>
      <point x="924" y="-27"/>
      <point x="977" y="-6"/>
      <point x="977" y="44" type="curve" smooth="yes"/>
      <point x="977" y="55"/>
      <point x="976" y="62"/>
      <point x="969" y="82" type="curve"/>
      <point x="939" y="71"/>
      <point x="911" y="64"/>
      <point x="871" y="60" type="curve"/>
      <point x="523" y="60" type="line"/>
      <point x="473" y="26" type="line"/>
      <point x="550" y="-2"/>
      <point x="674" y="-27"/>
      <point x="806" y="-27" type="curve" smooth="yes"/>
    </contour>
    <contour>
      <point x="877" y="288"/>
      <point x="907" y="313"/>
      <point x="907" y="358" type="curve" smooth="yes"/>
      <point x="907" y="363"/>
      <point x="907" y="370"/>
      <point x="907" y="377" type="curve"/>
      <point x="838" y="360" type="line"/>
      <point x="784" y="360"/>
      <point x="734" y="362"/>
      <point x="689" y="367" type="curve"/>
      <point x="676" y="309" type="line"/>
      <point x="734" y="294"/>
      <point x="776" y="288"/>
      <point x="821" y="288" type="curve" smooth="yes"/>
    </contour>
    <component base="O.alt"/>
    <contour>
      <point x="598" y="710" type="move" name="top"/>
    </contour>
    <contour>
      <point x="485" y="0" type="move" name="bottom"/>
    </contour>
  </outline>
</glyph>
<glyph name="oe" format="1">
  <advance width="1100"/>
  <unicode hex="0153"/>
  <outline>
    <contour>
      <point x="508" y="-25"/>
      <point x="632" y="140"/>
      <point x="632" y="390" type="curve" smooth="yes"/>
      <point x="632" y="483"/>
      <point x="597" y="537"/>
      <point x="537" y="537" type="curve" smooth="yes"/>
      <point x="518" y="537"/>
      <point x="504" y="529"/>
      <point x="490" y="514" type="curve"/>
      <point x="522" y="467"/>
      <point x="543" y="389"/>
      <point x="543" y="311" type="curve" smooth="yes"/>
      <point x="543" y="142"/>
      <point x="462" y="33"/>
      <point x="338" y="33" type="curve" smooth="yes"/>
      <point x="247" y="33"/>
      <point x="193" y="107"/>
      <point x="193" y="230" type="curve" smooth="yes"/>
      <point x="193" y="416"/>
      <point x="314" y="554"/>
      <point x="508" y="554" type="curve"/>
      <point x="507" y="568"/>
      <point x="503" y="580"/>
      <point x="494" y="592" type="curve"/>
      <point x="472" y="598"/>
      <point x="449" y="600"/>
      <point x="416" y="600" type="curve" smooth="yes"/>
      <point x="224" y="600"/>
      <point x="88" y="436"/>
      <point x="88" y="235" type="curve" smooth="yes"/>
      <point x="88" y="77"/>
      <point x="178" y="-25"/>
      <point x="319" y="-25" type="curve" smooth="yes"/>
    </contour>
    <component base="e" xOffset="454"/>
    <contour>
      <point x="575" y="575" type="move" name="top"/>
    </contour>
    <contour>
      <point x="483" y="0" type="move" name="bottom"/>
    </contour>
  </outline>
</glyph>
<glyph name="florin" format="1">
  <advance width="522"/>
  <unicode hex="0192"/>
  <outline>
    <contour>
      <point x="209" y="-210"/>
      <point x="220" y="-152"/>
      <point x="239" y="5" type="curve" smooth="yes"/>
      <point x="266" y="288" type="line"/>
      <point x="280" y="599" type="line"/>
      <point x="368" y="599"/>
      <point x="446" y="584"/>
      <point x="493" y="555" type="curve"/>
      <point x="500" y="572"/>
      <point x="506" y="590"/>
      <point x="506" y="606" type="curve" smooth="yes"/>
      <point x="506" y="671"/>
      <point x="448" y="700"/>
      <point x="363" y="700" type="curve" smooth="yes"/>
      <point x="200" y="700"/>
      <point x="175" y="515"/>
      <point x="175" y="334" type="curve" smooth="yes"/>
      <point x="175" y="158"/>
      <point x="138" y="-66"/>
      <point x="72" y="-180" type="curve"/>
      <point x="88" y="-199"/>
      <point x="111" y="-210"/>
      <point x="139" y="-210" type="curve" smooth="yes"/>
    </contour>
    <component base="uni0335" xOffset="-76" yOffset="-32" xScale="0.897" yScale="0.797" xyScale="0.078" yxScale="-0.07"/>
  </outline>
</glyph>
<glyph name="uni0237" format="1">
  <advance width="397"/>
  <unicode hex="0237"/>
  <outline>
    <contour>
      <point x="117" y="-210"/>
      <point x="161" y="-161"/>
      <point x="183" y="-58" type="curve" smooth="yes"/>
      <point x="224" y="152"/>
      <point x="301" y="527"/>
      <point x="301" y="550" type="curve" smooth="yes"/>
      <point x="301" y="588"/>
      <point x="287" y="600"/>
      <point x="252" y="600" type="curve" smooth="yes"/>
      <point x="225" y="600"/>
      <point x="185" y="588"/>
      <point x="160" y="566" type="curve"/>
      <point x="201" y="525" type="line"/>
      <point x="165" y="288"/>
      <point x="111" y="50"/>
      <point x="111" y="-21" type="curve" smooth="yes"/>
      <point x="111" y="-60"/>
      <point x="118" y="-86"/>
      <point x="133" y="-102" type="curve"/>
      <point x="124" y="-117" type="line"/>
      <point x="111" y="-107"/>
      <point x="88" y="-89"/>
      <point x="58" y="-89" type="curve" smooth="yes"/>
      <point x="15" y="-89"/>
      <point x="-13" y="-112"/>
      <point x="-13" y="-149" type="curve" smooth="yes"/>
      <point x="-13" y="-182"/>
      <point x="7" y="-210"/>
      <point x="49" y="-210" type="curve" smooth="yes"/>
    </contour>
    <contour>
      <point x="245" y="575" type="move" name="top"/>
    </contour>
    <contour>
      <point x="153" y="0" type="move" name="bottom"/>
    </contour>
  </outline>
</glyph>
<glyph name="gravecomb" format="1">
  <advance width="376"/>
  <unicode hex="0300"/>
  <outline>
    <contour>
      <point x="315" y="676"/>
      <point x="326" y="690"/>
      <point x="332" y="720" type="curve"/>
      <point x="192" y="775"/>
      <point x="159" y="846"/>
      <point x="93" y="846" type="curve" smooth="yes"/>
      <point x="58" y="846"/>
      <point x="42" y="828"/>
      <point x="42" y="791" type="curve" smooth="yes"/>
      <point x="42" y="770"/>
      <point x="45" y="753"/>
      <point x="51" y="742" type="curve"/>
      <point x="160" y="742"/>
      <point x="265" y="676"/>
      <point x="300" y="676" type="curve" smooth="yes"/>
    </contour>
    <contour>
      <point x="188" y="864" type="move" name="top"/>
    </contour>
    <contour>
      <point x="188" y="575" type="move" name="_top"/>
    </contour>
  </outline>
</glyph>
<glyph name="acutecomb" format="1">
  <advance width="476"/>
  <unicode hex="0301"/>
  <outline>
    <contour>
      <point x="161" y="676"/>
      <point x="266" y="742"/>
      <point x="375" y="742" type="curve"/>
      <point x="381" y="753"/>
      <point x="384" y="770"/>
      <point x="384" y="791" type="curve" smooth="yes"/>
      <point x="384" y="828"/>
      <point x="368" y="846"/>
      <point x="333" y="846" type="curve" smooth="yes"/>
      <point x="267" y="846"/>
      <point x="234" y="775"/>
      <point x="94" y="720" type="curve"/>
      <point x="100" y="690"/>
      <point x="111" y="676"/>
      <point x="126" y="676" type="curve" smooth="yes"/>
    </contour>
    <contour>
      <point x="259" y="886" type="move" name="top"/>
    </contour>
    <contour>
      <point x="206" y="575" type="move" name="_top"/>
    </contour>
  </outline>
</glyph>
<glyph name="uni0302" format="1">
  <advance width="351"/>
  <unicode hex="0302"/>
  <outline>
    <contour>
      <point x="159" y="824"/>
      <point x="99" y="743"/>
      <point x="99" y="691" type="curve" smooth="yes"/>
      <point x="99" y="676"/>
      <point x="113" y="664"/>
      <point x="136" y="664" type="curve" smooth="yes"/>
      <point x="167" y="664"/>
      <point x="197" y="672"/>
      <point x="201" y="682" type="curve"/>
      <point x="198" y="743"/>
      <point x="230" y="811"/>
      <point x="263" y="841" type="curve"/>
      <point x="277" y="841" type="line"/>
      <point x="266" y="806"/>
      <point x="265" y="765"/>
      <point x="265" y="717" type="curve" smooth="yes"/>
      <point x="265" y="675"/>
      <point x="286" y="664"/>
      <point x="316" y="664" type="curve" smooth="yes"/>
      <point x="338" y="664"/>
      <point x="355" y="669"/>
      <point x="378" y="683" type="curve"/>
      <point x="363" y="695"/>
      <point x="350" y="714"/>
      <point x="349" y="748" type="curve" smooth="yes"/>
      <point x="344" y="841" type="line" smooth="yes"/>
      <point x="341" y="875"/>
      <point x="316" y="888"/>
      <point x="286" y="888" type="curve" smooth="yes"/>
      <point x="241" y="888"/>
      <point x="230" y="879"/>
      <point x="208" y="866" type="curve"/>
    </contour>
    <contour>
      <point x="260" y="868" type="move" name="top"/>
    </contour>
    <contour>
      <point x="202" y="575" type="move" name="_top"/>
    </contour>
  </outline>
</glyph>
<glyph name="tildecomb" format="1">
  <advance width="548"/>
  <unicode hex="0303"/>
  <outline>
    <contour>
      <point x="407" y="734"/>
      <point x="386" y="740"/>
      <point x="365" y="740" type="curve" smooth="yes"/>
      <point x="276" y="740"/>
      <point x="211" y="698"/>
      <point x="158" y="698" type="curve" smooth="yes"/>
      <point x="114" y="698"/>
      <point x="106" y="713"/>
      <point x="106" y="743" type="curve" smooth="yes"/>
      <point x="106" y="763"/>
      <point x="115" y="788"/>
      <point x="124" y="810" type="curve"/>
      <point x="142" y="805"/>
      <point x="162" y="799"/>
      <point x="183" y="799" type="curve" smooth="yes"/>
      <point x="273" y="799"/>
      <point x="338" y="842"/>
      <point x="390" y="842" type="curve" smooth="yes"/>
      <point x="435" y="842"/>
      <point x="442" y="827"/>
      <point x="442" y="797" type="curve" smooth="yes"/>
      <point x="442" y="777"/>
      <point x="434" y="751"/>
      <point x="424" y="729" type="curve"/>
    </contour>
    <contour>
      <point x="312" y="873" type="move" name="top"/>
    </contour>
    <contour>
      <point x="260" y="575" type="move" name="_top"/>
    </contour>
  </outline>
</glyph>
<glyph name="uni0304" format="1">
  <advance width="555"/>
  <unicode hex="0304"/>
  <outline>
    <contour>
      <point x="216" y="708"/>
      <point x="299" y="729"/>
      <point x="368" y="729" type="curve" smooth="yes"/>
      <point x="392" y="729"/>
      <point x="420" y="725"/>
      <point x="431" y="720" type="curve"/>
      <point x="440" y="746"/>
      <point x="443" y="760"/>
      <point x="443" y="778" type="curve" smooth="yes"/>
      <point x="443" y="806"/>
      <point x="421" y="819"/>
      <point x="377" y="819" type="curve" smooth="yes"/>
      <point x="313" y="819"/>
      <point x="251" y="811"/>
      <point x="193" y="811" type="curve" smooth="yes"/>
      <point x="174" y="811"/>
      <point x="148" y="816"/>
      <point x="133" y="823" type="curve"/>
      <point x="124" y="810"/>
      <point x="111" y="770"/>
      <point x="111" y="753" type="curve" smooth="yes"/>
      <point x="111" y="723"/>
      <point x="124" y="708"/>
      <point x="151" y="708" type="curve" smooth="yes"/>
    </contour>
    <contour>
      <point x="307" y="844" type="move" name="top"/>
    </contour>
    <contour>
      <point x="257" y="575" type="move" name="_top"/>
    </contour>
  </outline>
</glyph>
<glyph name="uni0306" format="1">
  <advance width="397"/>
  <unicode hex="0306"/>
  <outline>
    <contour>
      <point x="196" y="732"/>
      <point x="168" y="777"/>
      <point x="173" y="857" type="curve"/>
      <point x="132" y="845"/>
      <point x="105" y="808"/>
      <point x="105" y="772" type="curve" smooth="yes"/>
      <point x="105" y="715"/>
      <point x="159" y="669"/>
      <point x="263" y="669" type="curve" smooth="yes"/>
      <point x="369" y="669"/>
      <point x="450" y="731"/>
      <point x="450" y="801" type="curve" smooth="yes"/>
      <point x="450" y="843"/>
      <point x="423" y="865"/>
      <point x="377" y="867" type="curve"/>
      <point x="377" y="785"/>
      <point x="332" y="732"/>
      <point x="269" y="732" type="curve" smooth="yes"/>
    </contour>
    <contour>
      <point x="285" y="831" type="move" name="top"/>
    </contour>
    <contour>
      <point x="229" y="575" type="move" name="_top"/>
    </contour>
  </outline>
</glyph>
<glyph name="uni0307" format="1">
  <advance width="406"/>
  <unicode hex="0307"/>
  <outline>
    <contour>
      <point x="159" y="696"/>
      <point x="137" y="715"/>
      <point x="137" y="743" type="curve" smooth="yes"/>
      <point x="137" y="785"/>
      <point x="169" y="813"/>
      <point x="213" y="813" type="curve" smooth="yes"/>
      <point x="247" y="813"/>
      <point x="269" y="794"/>
      <point x="269" y="765" type="curve" smooth="yes"/>
      <point x="269" y="724"/>
      <point x="238" y="696"/>
      <point x="193" y="696" type="curve" smooth="yes"/>
    </contour>
    <contour>
      <point x="224" y="883" type="move" name="top"/>
    </contour>
    <contour>
      <point x="169" y="575" type="move" name="_top"/>
    </contour>
  </outline>
</glyph>
<glyph name="uni0308" format="1">
  <advance width="632"/>
  <unicode hex="0308"/>
  <outline>
    <contour>
      <point x="510" y="693"/>
      <point x="540" y="723"/>
      <point x="540" y="760" type="curve" smooth="yes"/>
      <point x="540" y="789"/>
      <point x="519" y="810"/>
      <point x="483" y="810" type="curve" smooth="yes"/>
      <point x="433" y="810"/>
      <point x="408" y="774"/>
      <point x="408" y="743" type="curve" smooth="yes"/>
      <point x="408" y="713"/>
      <point x="430" y="693"/>
      <point x="466" y="693" type="curve" smooth="yes"/>
    </contour>
    <contour>
      <point x="257" y="693"/>
      <point x="287" y="723"/>
      <point x="287" y="760" type="curve" smooth="yes"/>
      <point x="287" y="789"/>
      <point x="265" y="810"/>
      <point x="229" y="810" type="curve" smooth="yes"/>
      <point x="181" y="810"/>
      <point x="155" y="774"/>
      <point x="155" y="743" type="curve" smooth="yes"/>
      <point x="155" y="713"/>
      <point x="176" y="693"/>
      <point x="212" y="693" type="curve" smooth="yes"/>
    </contour>
    <contour>
      <point x="359" y="810" type="move" name="top"/>
    </contour>
    <contour>
      <point x="322" y="575" type="move" name="_top"/>
    </contour>
  </outline>
</glyph>
<glyph name="hookabovecomb" format="1">
  <advance width="253"/>
  <unicode hex="0309"/>
  <outline>
    <contour>
      <point x="107" y="625" type="line"/>
      <point x="253" y="654"/>
      <point x="334" y="721"/>
      <point x="334" y="817" type="curve" smooth="yes"/>
      <point x="334" y="880"/>
      <point x="293" y="917"/>
      <point x="223" y="917" type="curve" smooth="yes"/>
      <point x="157" y="917"/>
      <point x="94" y="864"/>
      <point x="79" y="795" type="curve"/>
      <point x="122" y="834"/>
      <point x="150" y="848"/>
      <point x="186" y="848" type="curve" smooth="yes"/>
      <point x="227" y="848"/>
      <point x="248" y="825"/>
      <point x="248" y="783" type="curve" smooth="yes"/>
      <point x="248" y="730"/>
      <point x="203" y="684"/>
      <point x="105" y="636" type="curve"/>
    </contour>
    <contour>
      <point x="230" y="917" type="move" name="top"/>
    </contour>
    <contour>
      <point x="176" y="575" type="move" name="_top"/>
    </contour>
  </outline>
</glyph>
<glyph name="uni030A" format="1">
  <advance width="482"/>
  <unicode hex="030A"/>
  <outline>
    <contour>
      <point x="190" y="679"/>
      <point x="164" y="713"/>
      <point x="164" y="760" type="curve" smooth="yes"/>
      <point x="164" y="799"/>
      <point x="178" y="836"/>
      <point x="204" y="865" type="curve"/>
      <point x="226" y="871"/>
      <point x="238" y="872"/>
      <point x="255" y="872" type="curve" smooth="yes"/>
      <point x="297" y="871"/>
      <point x="315" y="848"/>
      <point x="315" y="796" type="curve" smooth="yes"/>
      <point x="315" y="728"/>
      <point x="278" y="679"/>
      <point x="227" y="679" type="curve" smooth="yes"/>
    </contour>
    <contour>
      <point x="327" y="623"/>
      <point x="399" y="694"/>
      <point x="400" y="795" type="curve" smooth="yes"/>
      <point x="399" y="877"/>
      <point x="346" y="928"/>
      <point x="261" y="928" type="curve" smooth="yes"/>
      <point x="156" y="928"/>
      <point x="83" y="858"/>
      <point x="81" y="756" type="curve" smooth="yes"/>
      <point x="83" y="674"/>
      <point x="135" y="623"/>
      <point x="220" y="623" type="curve" smooth="yes"/>
    </contour>
    <contour>
      <point x="262" y="898" type="move" name="top"/>
    </contour>
    <contour>
      <point x="213" y="563" type="move" name="_top"/>
    </contour>
  </outline>
</glyph>
<glyph name="uni030B" format="1">
  <advance width="625"/>
  <unicode hex="030B"/>
  <outline>
    <contour>
      <point x="111" y="676"/>
      <point x="196" y="742"/>
      <point x="291" y="742" type="curve"/>
      <point x="297" y="753"/>
      <point x="299" y="770"/>
      <point x="299" y="791" type="curve" smooth="yes"/>
      <point x="299" y="828"/>
      <point x="285" y="846"/>
      <point x="254" y="846" type="curve" smooth="yes"/>
      <point x="196" y="846"/>
      <point x="164" y="775"/>
      <point x="48" y="720" type="curve"/>
      <point x="53" y="690"/>
      <point x="63" y="676"/>
      <point x="78" y="676" type="curve" smooth="yes"/>
    </contour>
    <contour>
      <point x="389" y="676"/>
      <point x="474" y="742"/>
      <point x="570" y="742" type="curve"/>
      <point x="575" y="753"/>
      <point x="577" y="770"/>
      <point x="577" y="791" type="curve" smooth="yes"/>
      <point x="577" y="828"/>
      <point x="563" y="846"/>
      <point x="533" y="846" type="curve" smooth="yes"/>
      <point x="474" y="846"/>
      <point x="442" y="775"/>
      <point x="326" y="720" type="curve"/>
      <point x="331" y="690"/>
      <point x="341" y="676"/>
      <point x="356" y="676" type="curve" smooth="yes"/>
    </contour>
    <contour>
      <point x="313" y="575" type="move" name="_top"/>
    </contour>
  </outline>
</glyph>
<glyph name="uni030C" format="1">
  <advance width="352"/>
  <unicode hex="030C"/>
  <outline>
    <contour>
      <point x="347" y="728"/>
      <point x="406" y="809"/>
      <point x="406" y="861" type="curve" smooth="yes"/>
      <point x="406" y="877"/>
      <point x="392" y="888"/>
      <point x="369" y="888" type="curve" smooth="yes"/>
      <point x="339" y="888"/>
      <point x="308" y="880"/>
      <point x="305" y="870" type="curve"/>
      <point x="308" y="809"/>
      <point x="275" y="741"/>
      <point x="242" y="711" type="curve"/>
      <point x="228" y="711" type="line"/>
      <point x="239" y="747"/>
      <point x="241" y="787"/>
      <point x="241" y="836" type="curve" smooth="yes"/>
      <point x="241" y="878"/>
      <point x="220" y="888"/>
      <point x="190" y="888" type="curve" smooth="yes"/>
      <point x="167" y="888"/>
      <point x="151" y="884"/>
      <point x="127" y="869" type="curve"/>
      <point x="143" y="857"/>
      <point x="155" y="838"/>
      <point x="157" y="804" type="curve" smooth="yes"/>
      <point x="161" y="711" type="line" smooth="yes"/>
      <point x="164" y="677"/>
      <point x="190" y="664"/>
      <point x="220" y="664" type="curve" smooth="yes"/>
      <point x="264" y="664"/>
      <point x="275" y="673"/>
      <point x="298" y="686" type="curve"/>
    </contour>
    <contour>
      <point x="284" y="858" type="move" name="top"/>
    </contour>
    <contour>
      <point x="236" y="575" type="move" name="_top"/>
    </contour>
  </outline>
</glyph>
<glyph name="uni0312" format="1">
  <advance width="300"/>
  <unicode hex="0312"/>
  <outline>
    <contour>
      <point x="191" y="832" type="line"/>
      <point x="194" y="866"/>
      <point x="229" y="914"/>
      <point x="275" y="936" type="curve"/>
      <point x="267" y="967" type="line"/>
      <point x="144" y="930"/>
      <point x="65" y="850"/>
      <point x="65" y="751" type="curve" smooth="yes"/>
      <point x="65" y="714"/>
      <point x="88" y="684"/>
      <point x="132" y="684" type="curve" smooth="yes"/>
      <point x="179" y="684"/>
      <point x="226" y="723"/>
      <point x="233" y="768" type="curve"/>
    </contour>
    <contour>
      <point x="180" y="982" type="move" name="top"/>
    </contour>
    <contour>
      <point x="108" y="575" type="move" name="_top"/>
    </contour>
  </outline>
</glyph>
<glyph name="uni031B" format="1">
  <advance width="171"/>
  <unicode hex="031B"/>
  <outline>
    <contour>
      <point x="54" y="710" type="line"/>
      <point x="203" y="710"/>
      <point x="294" y="793"/>
      <point x="294" y="929" type="curve"/>
      <point x="184" y="899" type="line"/>
      <point x="184" y="800"/>
      <point x="145" y="747"/>
      <point x="73" y="747" type="curve"/>
    </contour>
    <contour>
      <point x="74" y="747" type="move" name="_topright"/>
    </contour>
    <contour>
      <point x="136" y="575" type="move" name="topright"/>
    </contour>
  </outline>
</glyph>
<glyph name="dotbelowcomb" format="1">
  <advance width="130"/>
  <unicode hex="0323"/>
  <outline>
    <contour>
      <point x="-48" y="-207"/>
      <point x="-70" y="-188"/>
      <point x="-70" y="-160" type="curve" smooth="yes"/>
      <point x="-70" y="-118"/>
      <point x="-39" y="-89"/>
      <point x="6" y="-89" type="curve" smooth="yes"/>
      <point x="40" y="-89"/>
      <point x="62" y="-109"/>
      <point x="62" y="-138" type="curve" smooth="yes"/>
      <point x="62" y="-179"/>
      <point x="31" y="-207"/>
      <point x="-14" y="-207" type="curve" smooth="yes"/>
    </contour>
    <contour>
      <point x="19" y="0" type="move" name="_bottom"/>
    </contour>
    <contour>
      <point x="-13" y="-207" type="move" name="bottom"/>
    </contour>
  </outline>
</glyph>
<glyph name="uni0326" format="1">
  <advance width="300"/>
  <unicode hex="0326"/>
  <outline>
    <contour>
      <point x="109" y="-237" type="line"/>
      <point x="106" y="-271"/>
      <point x="71" y="-319"/>
      <point x="25" y="-341" type="curve"/>
      <point x="33" y="-372" type="line"/>
      <point x="156" y="-335"/>
      <point x="235" y="-255"/>
      <point x="235" y="-156" type="curve" smooth="yes"/>
      <point x="235" y="-119"/>
      <point x="212" y="-89"/>
      <point x="168" y="-89" type="curve" smooth="yes"/>
      <point x="121" y="-89"/>
      <point x="74" y="-128"/>
      <point x="67" y="-173" type="curve"/>
    </contour>
    <contour>
      <point x="148" y="0" type="move" name="_bottom"/>
    </contour>
    <contour>
      <point x="148" y="-369" type="move" name="bottom"/>
    </contour>
  </outline>
</glyph>
<glyph name="uni0327" format="1">
  <advance width="381"/>
  <unicode hex="0327"/>
  <outline>
    <contour>
      <point x="249" y="-287"/>
      <point x="328" y="-231"/>
      <point x="328" y="-159" type="curve" smooth="yes"/>
      <point x="328" y="-84"/>
      <point x="263" y="-39"/>
      <point x="153" y="-39" type="curve"/>
      <point x="208" y="-64"/>
      <point x="237" y="-103"/>
      <point x="237" y="-157" type="curve" smooth="yes"/>
      <point x="237" y="-201"/>
      <point x="201" y="-238"/>
      <point x="156" y="-238" type="curve" smooth="yes"/>
      <point x="122" y="-238"/>
      <point x="105" y="-224"/>
      <point x="105" y="-192" type="curve" smooth="yes"/>
      <point x="105" y="-164"/>
      <point x="124" y="-135"/>
      <point x="153" y="-120" type="curve"/>
      <point x="83" y="-120"/>
      <point x="27" y="-156"/>
      <point x="27" y="-203" type="curve" smooth="yes"/>
      <point x="27" y="-254"/>
      <point x="73" y="-287"/>
      <point x="145" y="-287" type="curve" smooth="yes"/>
    </contour>
    <contour>
      <point x="202" y="14" type="move" name="_bottom"/>
    </contour>
    <contour>
      <point x="136" y="-287" type="move" name="bottom"/>
    </contour>
  </outline>
</glyph>
<glyph name="uni0328" format="1">
  <advance width="317"/>
  <unicode hex="0328"/>
  <outline>
    <contour>
      <point x="254" y="36" type="line"/>
      <point x="108" y="6"/>
      <point x="27" y="-67"/>
      <point x="27" y="-168" type="curve" smooth="yes"/>
      <point x="27" y="-236"/>
      <point x="68" y="-276"/>
      <point x="138" y="-276" type="curve" smooth="yes"/>
      <point x="204" y="-276"/>
      <point x="267" y="-229"/>
      <point x="282" y="-169" type="curve"/>
      <point x="245" y="-193"/>
      <point x="221" y="-202"/>
      <point x="190" y="-202" type="curve" smooth="yes"/>
      <point x="140" y="-202"/>
      <point x="113" y="-179"/>
      <point x="113" y="-137" type="curve" smooth="yes"/>
      <point x="113" y="-75"/>
      <point x="164" y="-21"/>
      <point x="279" y="36" type="curve"/>
    </contour>
    <contour>
      <point x="279" y="36" type="move" name="_ogonek"/>
    </contour>
  </outline>
</glyph>
<glyph name="uni0335" format="1">
  <advance width="733"/>
  <unicode hex="0335"/>
  <outline>
    <contour>
      <point x="294" y="309"/>
      <point x="375" y="336"/>
      <point x="447" y="336" type="curve" smooth="yes"/>
      <point x="476" y="336"/>
      <point x="525" y="334"/>
      <point x="550" y="326" type="curve"/>
      <point x="565" y="344"/>
      <point x="567" y="362"/>
      <point x="567" y="377" type="curve" smooth="yes"/>
      <point x="567" y="401"/>
      <point x="557" y="419"/>
      <point x="521" y="419" type="curve" smooth="yes"/>
      <point x="441" y="419"/>
      <point x="363" y="393"/>
      <point x="291" y="393" type="curve" smooth="yes"/>
      <point x="260" y="393"/>
      <point x="210" y="394"/>
      <point x="184" y="403" type="curve"/>
      <point x="169" y="384"/>
      <point x="166" y="365"/>
      <point x="166" y="351" type="curve" smooth="yes"/>
      <point x="166" y="326"/>
      <point x="178" y="309"/>
      <point x="213" y="309" type="curve" smooth="yes"/>
    </contour>
    <contour>
      <point x="367" y="364" type="move" name="_center"/>
    </contour>
  </outline>
</glyph>
<glyph name="pi" format="1">
  <advance width="845"/>
  <unicode hex="03C0"/>
  <outline>
    <contour>
      <point x="595" y="-25"/>
      <point x="611" y="-18"/>
      <point x="628" y="-3" type="curve"/>
      <point x="619" y="5"/>
      <point x="613" y="19"/>
      <point x="613" y="41" type="curve" smooth="yes"/>
      <point x="613" y="203"/>
      <point x="710" y="529"/>
      <point x="710" y="550" type="curve"/>
      <point x="614" y="545" type="line"/>
      <point x="533" y="201"/>
      <point x="516" y="86"/>
      <point x="516" y="34" type="curve" smooth="yes"/>
      <point x="516" y="-9"/>
      <point x="536" y="-25"/>
      <point x="572" y="-25" type="curve" smooth="yes"/>
    </contour>
    <contour>
      <point x="383" y="493"/>
      <point x="546" y="519"/>
      <point x="690" y="519" type="curve" smooth="yes"/>
      <point x="737" y="519"/>
      <point x="775" y="516"/>
      <point x="816" y="508" type="curve"/>
      <point x="830" y="524"/>
      <point x="837" y="542"/>
      <point x="837" y="558" type="curve" smooth="yes"/>
      <point x="837" y="591"/>
      <point x="812" y="601"/>
      <point x="725" y="601" type="curve" smooth="yes"/>
      <point x="556" y="601"/>
      <point x="393" y="576"/>
      <point x="250" y="576" type="curve" smooth="yes"/>
      <point x="200" y="576"/>
      <point x="162" y="579"/>
      <point x="121" y="586" type="curve"/>
      <point x="108" y="570"/>
      <point x="100" y="553"/>
      <point x="100" y="536" type="curve" smooth="yes"/>
      <point x="100" y="502"/>
      <point x="122" y="493"/>
      <point x="212" y="493" type="curve" smooth="yes"/>
    </contour>
    <contour>
      <point x="242" y="-25"/>
      <point x="259" y="-18"/>
      <point x="276" y="-3" type="curve"/>
      <point x="266" y="5"/>
      <point x="261" y="19"/>
      <point x="261" y="41" type="curve" smooth="yes"/>
      <point x="261" y="203"/>
      <point x="357" y="529"/>
      <point x="357" y="550" type="curve"/>
      <point x="261" y="545" type="line"/>
      <point x="180" y="201"/>
      <point x="163" y="86"/>
      <point x="163" y="34" type="curve" smooth="yes"/>
      <point x="163" y="-9"/>
      <point x="183" y="-25"/>
      <point x="219" y="-25" type="curve" smooth="yes"/>
    </contour>
    <contour>
      <point x="252" y="-3" type="move" name="ogonek"/>
    </contour>
    <contour>
      <point x="171" y="0" type="move" name="bottom"/>
    </contour>
    <contour>
      <point x="273" y="575" type="move" name="top"/>
    </contour>
  </outline>
</glyph>
<glyph name="uni0615" format="1">
  <advance width="263"/>
  <unicode hex="0615"/>
  <outline>
    <contour>
      <point x="198" y="794"/>
      <point x="177" y="789"/>
      <point x="157" y="779" type="curve"/>
      <point x="171" y="840"/>
      <point x="185" y="894"/>
      <point x="185" y="900" type="curve" smooth="yes"/>
      <point x="185" y="918"/>
      <point x="178" y="926"/>
      <point x="161" y="926" type="curve" smooth="yes"/>
      <point x="145" y="926"/>
      <point x="126" y="919"/>
      <point x="112" y="908" type="curve"/>
      <point x="133" y="887" type="line"/>
      <point x="112" y="791"/>
      <point x="100" y="731"/>
      <point x="93" y="692" type="curve"/>
      <point x="90" y="679"/>
      <point x="88" y="664"/>
      <point x="88" y="648" type="curve" smooth="yes"/>
      <point x="88" y="636"/>
      <point x="89" y="623"/>
      <point x="90" y="617" type="curve"/>
      <point x="79" y="618"/>
      <point x="68" y="622"/>
      <point x="59" y="624" type="curve"/>
      <point x="50" y="603"/>
      <point x="46" y="588"/>
      <point x="46" y="572" type="curve" smooth="yes"/>
      <point x="46" y="554"/>
      <point x="51" y="541"/>
      <point x="83" y="541" type="curve" smooth="yes"/>
      <point x="131" y="541"/>
      <point x="179" y="571"/>
      <point x="247" y="571" type="curve" smooth="yes"/>
      <point x="264" y="571"/>
      <point x="273" y="569"/>
      <point x="273" y="569" type="curve"/>
      <point x="297" y="595"/>
      <point x="324" y="626"/>
      <point x="324" y="683" type="curve" smooth="yes"/>
      <point x="324" y="759"/>
      <point x="276" y="794"/>
      <point x="220" y="794" type="curve" smooth="yes"/>
    </contour>
    <contour>
      <point x="287" y="646"/>
      <point x="278" y="647"/>
      <point x="270" y="647" type="curve" smooth="yes"/>
      <point x="227" y="647"/>
      <point x="183" y="619"/>
      <point x="117" y="616" type="curve"/>
      <point x="118" y="690"/>
      <point x="159" y="732"/>
      <point x="217" y="732" type="curve" smooth="yes"/>
      <point x="256" y="732"/>
      <point x="293" y="713"/>
      <point x="293" y="646" type="curve" smooth="yes"/>
      <point x="293" y="644"/>
      <point x="293" y="646"/>
      <point x="293" y="644" type="curve"/>
    </contour>
    <contour>
      <point x="215" y="926" type="move" name="top"/>
    </contour>
    <contour>
      <point x="151" y="521" type="move" name="_top"/>
    </contour>
  </outline>
</glyph>
<glyph name="uni0621" format="1">
  <advance width="494"/>
  <unicode hex="0621"/>
  <outline>
    <contour>
      <point x="313" y="111"/>
      <point x="289" y="102"/>
      <point x="235" y="87" type="curve"/>
      <point x="201" y="122"/>
      <point x="178" y="156"/>
      <point x="178" y="192" type="curve" smooth="yes"/>
      <point x="178" y="235"/>
      <point x="210" y="270"/>
      <point x="258" y="273" type="curve"/>
      <point x="270" y="247"/>
      <point x="289" y="219"/>
      <point x="318" y="216" type="curve"/>
      <point x="371" y="213"/>
      <point x="390" y="242"/>
      <point x="391" y="264" type="curve" smooth="yes"/>
      <point x="392" y="311"/>
      <point x="304" y="346"/>
      <point x="222" y="346" type="curve" smooth="yes"/>
      <point x="129" y="346"/>
      <point x="87" y="301"/>
      <point x="87" y="226" type="curve" smooth="yes"/>
      <point x="87" y="170"/>
      <point x="111" y="113"/>
      <point x="156" y="68" type="curve"/>
      <point x="137" y="67"/>
      <point x="119" y="65"/>
      <point x="104" y="65" type="curve" smooth="yes"/>
      <point x="76" y="65"/>
      <point x="53" y="71"/>
      <point x="32" y="77" type="curve"/>
      <point x="21" y="50"/>
      <point x="13" y="34"/>
      <point x="13" y="13" type="curve" smooth="yes"/>
      <point x="13" y="-8"/>
      <point x="21" y="-25"/>
      <point x="67" y="-25" type="curve" smooth="yes"/>
      <point x="140" y="-25"/>
      <point x="211" y="19"/>
      <point x="311" y="19" type="curve" smooth="yes"/>
      <point x="341" y="19"/>
      <point x="365" y="15"/>
      <point x="385" y="9" type="curve"/>
      <point x="397" y="34"/>
      <point x="404" y="50"/>
      <point x="404" y="71" type="curve" smooth="yes"/>
      <point x="404" y="93"/>
      <point x="396" y="111"/>
      <point x="347" y="111" type="curve" smooth="yes"/>
    </contour>
    <contour>
      <point x="258" y="420" type="move" name="top"/>
    </contour>
    <contour>
      <point x="188" y="-81" type="move" name="bottom"/>
    </contour>
  </outline>
</glyph>
<glyph name="uni0623" format="1">
  <advance width="275"/>
  <unicode hex="0623"/>
  <outline>
    <component base="uni0627.short"/>
    <component base="uni0654" xOffset="28" yOffset="215"/>
    <contour>
      <point x="250" y="1080" type="move" name="top"/>
    </contour>
    <contour>
      <point x="116" y="-100" type="move" name="bottom"/>
    </contour>
  </outline>
</glyph>
<glyph name="uni0625" format="1">
  <advance width="273"/>
  <unicode hex="0625"/>
  <outline>
    <component base="uni0627"/>
    <component base="uni0655" xOffset="54" yOffset="-22"/>
    <contour>
      <point x="220" y="830" type="move" name="top"/>
    </contour>
    <contour>
      <point x="66" y="-389" type="move" name="bottom"/>
    </contour>
  </outline>
</glyph>
<glyph name="uni0627" format="1">
  <advance width="273"/>
  <unicode hex="0627"/>
  <outline>
    <contour>
      <point x="142" y="-25"/>
      <point x="162" y="-15"/>
      <point x="177" y="-2" type="curve"/>
      <point x="165" y="7"/>
      <point x="159" y="34"/>
      <point x="159" y="47" type="curve" smooth="yes"/>
      <point x="159" y="270"/>
      <point x="263" y="676"/>
      <point x="263" y="724" type="curve" smooth="yes"/>
      <point x="263" y="762"/>
      <point x="250" y="775"/>
      <point x="219" y="775" type="curve" smooth="yes"/>
      <point x="191" y="775"/>
      <point x="149" y="763"/>
      <point x="122" y="740" type="curve"/>
      <point x="163" y="697" type="line"/>
      <point x="128" y="505"/>
      <point x="64" y="107"/>
      <point x="64" y="38" type="curve" smooth="yes"/>
      <point x="64" y="-5"/>
      <point x="84" y="-25"/>
      <point x="114" y="-25" type="curve" smooth="yes"/>
    </contour>
    <contour>
      <point x="219" y="815" type="move" name="top"/>
    </contour>
    <contour>
      <point x="114" y="-55" type="move" name="bottom"/>
    </contour>
  </outline>
</glyph>
<glyph name="uni0628" format="1">
  <advance width="969"/>
  <unicode hex="0628"/>
  <outline>
    <component base="uni066E"/>
    <component base="uniFBB3" xOffset="417" yOffset="-16"/>
    <contour>
      <point x="531" y="575" type="move" name="top"/>
    </contour>
    <contour>
      <point x="394" y="-287" type="move" name="bottom"/>
    </contour>
  </outline>
</glyph>
<glyph name="uni062B" format="1">
  <advance width="969"/>
  <unicode hex="062B"/>
  <outline>
    <component base="uni066E"/>
    <component base="uniFBB6" xOffset="331" yOffset="-101"/>
    <contour>
      <point x="587" y="900" type="move" name="top"/>
    </contour>
    <contour>
      <point x="426" y="-100" type="move" name="bottom"/>
    </contour>
  </outline>
</glyph>
<glyph name="uni062C" format="1">
  <advance width="956"/>
  <unicode hex="062C"/>
  <outline>
    <component base="uni062D"/>
    <component base="dotcenter-ar" xOffset="370" yOffset="-859"/>
    <contour>
      <point x="470" y="630" type="move" name="top"/>
    </contour>
    <contour>
      <point x="390" y="-570" type="move" name="bottom"/>
    </contour>
  </outline>
</glyph>
<glyph name="uni062D" format="1">
  <advance width="956"/>
  <unicode hex="062D"/>
  <outline>
    <contour>
      <point x="732" y="-297"/>
      <point x="664" y="-392"/>
      <point x="525" y="-392" type="curve" smooth="yes"/>
      <point x="400" y="-392"/>
      <point x="266" y="-314"/>
      <point x="266" y="-97" type="curve" smooth="yes"/>
      <point x="266" y="122"/>
      <point x="402" y="340"/>
      <point x="575" y="410" type="curve"/>
      <point x="578" y="424" type="line"/>
      <point x="618" y="413"/>
      <point x="657" y="405"/>
      <point x="696" y="405" type="curve" smooth="yes"/>
      <point x="742" y="405"/>
      <point x="788" y="416"/>
      <point x="788" y="463" type="curve" smooth="yes"/>
      <point x="788" y="480"/>
      <point x="782" y="498"/>
      <point x="768" y="520" type="curve"/>
      <point x="746" y="507"/>
      <point x="729" y="505"/>
      <point x="696" y="505" type="curve" smooth="yes"/>
      <point x="516" y="505"/>
      <point x="235" y="563"/>
      <point x="112" y="600" type="curve"/>
      <point x="98" y="581"/>
      <point x="92" y="563"/>
      <point x="92" y="543" type="curve" smooth="yes"/>
      <point x="92" y="432"/>
      <point x="275" y="432"/>
      <point x="367" y="432" type="curve" smooth="yes"/>
      <point x="381" y="432"/>
      <point x="418" y="433"/>
      <point x="446" y="433" type="curve"/>
      <point x="278" y="336"/>
      <point x="157" y="127"/>
      <point x="157" y="-98" type="curve" smooth="yes"/>
      <point x="157" y="-359"/>
      <point x="321" y="-472"/>
      <point x="535" y="-472" type="curve" smooth="yes"/>
      <point x="739" y="-472"/>
      <point x="823" y="-370"/>
      <point x="823" y="-280" type="curve" smooth="yes"/>
      <point x="823" y="-224"/>
      <point x="790" y="-199"/>
      <point x="732" y="-199" type="curve"/>
    </contour>
    <contour>
      <point x="509" y="-104" type="move" name="center"/>
    </contour>
    <contour>
      <point x="390" y="-570" type="move" name="bottom"/>
    </contour>
    <contour>
      <point x="470" y="630" type="move" name="top"/>
    </contour>
  </outline>
</glyph>
<glyph name="uni062E" format="1">
  <advance width="956"/>
  <unicode hex="062E"/>
  <outline>
    <component base="uni062D"/>
    <component base="uniFBB2" xOffset="343" yOffset="-46"/>
    <contour>
      <point x="503" y="830" type="move" name="top"/>
    </contour>
    <contour>
      <point x="390" y="-570" type="move" name="bottom"/>
    </contour>
  </outline>
</glyph>
<glyph name="uni062F" format="1">
  <advance width="567"/>
  <unicode hex="062F"/>
  <outline>
    <contour>
      <point x="478" y="40" type="line"/>
      <point x="478" y="172"/>
      <point x="519" y="272"/>
      <point x="519" y="360" type="curve" smooth="yes"/>
      <point x="519" y="513"/>
      <point x="433" y="601"/>
      <point x="299" y="601" type="curve" smooth="yes"/>
      <point x="175" y="601"/>
      <point x="75" y="525"/>
      <point x="75" y="439" type="curve" smooth="yes"/>
      <point x="75" y="395"/>
      <point x="101" y="380"/>
      <point x="146" y="380" type="curve"/>
      <point x="151" y="471"/>
      <point x="213" y="529"/>
      <point x="295" y="529" type="curve" smooth="yes"/>
      <point x="372" y="529"/>
      <point x="432" y="478"/>
      <point x="432" y="373" type="curve" smooth="yes"/>
      <point x="432" y="278"/>
      <point x="383" y="139"/>
      <point x="383" y="60" type="curve"/>
      <point x="119" y="60" type="line"/>
      <point x="79" y="64"/>
      <point x="50" y="71"/>
      <point x="20" y="82" type="curve"/>
      <point x="14" y="62"/>
      <point x="12" y="55"/>
      <point x="12" y="44" type="curve" smooth="yes"/>
      <point x="12" y="-4"/>
      <point x="56" y="-25"/>
      <point x="160" y="-25" type="curve" smooth="yes"/>
      <point x="436" y="-25" type="line"/>
    </contour>
    <contour>
      <point x="318" y="670" type="move" name="top"/>
    </contour>
    <contour>
      <point x="195" y="-100" type="move" name="bottom"/>
    </contour>
  </outline>
</glyph>
<glyph name="uni0630" format="1">
  <advance width="567"/>
  <unicode hex="0630"/>
  <outline>
    <component base="uni062F"/>
    <component base="uniFBB2" xOffset="191" yOffset="-6"/>
    <contour>
      <point x="352" y="880" type="move" name="top"/>
    </contour>
    <contour>
      <point x="195" y="-100" type="move" name="bottom"/>
    </contour>
  </outline>
</glyph>
<glyph name="uni0631" format="1">
  <advance width="354"/>
  <unicode hex="0631"/>
  <outline>
    <contour>
      <point x="303" y="279"/>
      <point x="335" y="481"/>
      <point x="335" y="499" type="curve" smooth="yes"/>
      <point x="335" y="511"/>
      <point x="322" y="530"/>
      <point x="295" y="530" type="curve" smooth="yes"/>
      <point x="272" y="530"/>
      <point x="234" y="517"/>
      <point x="197" y="496" type="curve"/>
      <point x="228" y="446" type="line"/>
      <point x="189" y="156" type="line" smooth="yes"/>
      <point x="140" y="-208"/>
      <point x="69" y="-299"/>
      <point x="-138" y="-299" type="curve"/>
      <point x="-138" y="-324"/>
      <point x="-116" y="-365"/>
      <point x="-31" y="-365" type="curve" smooth="yes"/>
      <point x="173" y="-365"/>
      <point x="238" y="-131"/>
      <point x="274" y="97" type="curve" smooth="yes"/>
    </contour>
    <contour>
      <point x="282" y="600" type="move" name="top"/>
    </contour>
    <contour>
      <point x="114" y="-450" type="move" name="bottom"/>
    </contour>
  </outline>
</glyph>
<glyph name="uni0632" format="1">
  <advance width="354"/>
  <unicode hex="0632"/>
  <outline>
    <component base="uni0631"/>
    <component base="uniFBB2" xOffset="155" yOffset="-76"/>
    <contour>
      <point x="314" y="800" type="move" name="top"/>
    </contour>
    <contour>
      <point x="114" y="-450" type="move" name="bottom"/>
    </contour>
  </outline>
</glyph>
<glyph name="uni0633" format="1">
  <advance width="1454"/>
  <unicode hex="0633"/>
  <outline>
    <contour>
      <point x="476" y="-278"/>
      <point x="587" y="-162"/>
      <point x="644" y="8" type="curve"/>
      <point x="659" y="-14"/>
      <point x="674" y="-25"/>
      <point x="704" y="-25" type="curve" smooth="yes"/>
      <point x="774" y="-25"/>
      <point x="858" y="37"/>
      <point x="923" y="158" type="curve"/>
      <point x="933" y="153" type="line"/>
      <point x="929" y="135"/>
      <point x="927" y="120"/>
      <point x="927" y="103" type="curve" smooth="yes"/>
      <point x="927" y="31"/>
      <point x="962" y="-25"/>
      <point x="1033" y="-25" type="curve" smooth="yes"/>
      <point x="1190" y="-25"/>
      <point x="1412" y="245"/>
      <point x="1412" y="455" type="curve" smooth="yes"/>
      <point x="1412" y="506"/>
      <point x="1399" y="530"/>
      <point x="1359" y="530" type="curve" smooth="yes"/>
      <point x="1338" y="530"/>
      <point x="1321" y="523"/>
      <point x="1305" y="507" type="curve"/>
      <point x="1313" y="497"/>
      <point x="1315" y="482"/>
      <point x="1315" y="459" type="curve" smooth="yes"/>
      <point x="1315" y="266"/>
      <point x="1178" y="60"/>
      <point x="1083" y="60" type="curve" smooth="yes"/>
      <point x="1058" y="60"/>
      <point x="1021" y="74"/>
      <point x="1021" y="152" type="curve" smooth="yes"/>
      <point x="1021" y="240"/>
      <point x="1067" y="344"/>
      <point x="1067" y="429" type="curve" smooth="yes"/>
      <point x="1067" y="478"/>
      <point x="1052" y="500"/>
      <point x="1014" y="500" type="curve" smooth="yes"/>
      <point x="993" y="500"/>
      <point x="976" y="493"/>
      <point x="960" y="477" type="curve"/>
      <point x="968" y="467"/>
      <point x="970" y="452"/>
      <point x="970" y="429" type="curve" smooth="yes"/>
      <point x="970" y="243"/>
      <point x="838" y="60"/>
      <point x="747" y="60" type="curve" smooth="yes"/>
      <point x="729" y="60"/>
      <point x="683" y="67"/>
      <point x="683" y="153" type="curve" smooth="yes"/>
      <point x="683" y="239"/>
      <point x="729" y="344"/>
      <point x="729" y="429" type="curve" smooth="yes"/>
      <point x="729" y="478"/>
      <point x="714" y="500"/>
      <point x="676" y="500" type="curve" smooth="yes"/>
      <point x="655" y="500"/>
      <point x="638" y="493"/>
      <point x="622" y="477" type="curve"/>
      <point x="630" y="467"/>
      <point x="632" y="451"/>
      <point x="632" y="430" type="curve" smooth="yes"/>
      <point x="632" y="338"/>
      <point x="595" y="-198"/>
      <point x="335" y="-198" type="curve" smooth="yes"/>
      <point x="196" y="-198"/>
      <point x="138" y="-44"/>
      <point x="138" y="41" type="curve" smooth="yes"/>
      <point x="138" y="130"/>
      <point x="201" y="184"/>
      <point x="201" y="184" type="curve" smooth="yes"/>
      <point x="201" y="184"/>
      <point x="172" y="221"/>
      <point x="132" y="221" type="curve" smooth="yes"/>
      <point x="71" y="221"/>
      <point x="31" y="136"/>
      <point x="31" y="55" type="curve" smooth="yes"/>
      <point x="31" y="-62"/>
      <point x="113" y="-278"/>
      <point x="322" y="-278" type="curve" smooth="yes"/>
    </contour>
    <contour>
      <point x="1026" y="600" type="move" name="top"/>
    </contour>
    <contour>
      <point x="914" y="-100" type="move" name="bottom"/>
    </contour>
  </outline>
</glyph>
<glyph name="uni0634" format="1">
  <advance width="1454"/>
  <unicode hex="0634"/>
  <outline>
    <component base="uni0633"/>
    <component base="uniFBB6" xOffset="826" yOffset="-76"/>
    <contour>
      <point x="1020" y="900" type="move" name="top"/>
    </contour>
    <contour>
      <point x="861" y="-100" type="move" name="bottom"/>
    </contour>
  </outline>
</glyph>
<glyph name="uni0635" format="1">
  <advance width="1476"/>
  <unicode hex="0635"/>
  <outline>
    <contour>
      <point x="796" y="578"/>
      <point x="719" y="365"/>
      <point x="719" y="365" type="curve" smooth="yes"/>
      <point x="719" y="365"/>
      <point x="729" y="396"/>
      <point x="729" y="432" type="curve" smooth="yes"/>
      <point x="729" y="475"/>
      <point x="714" y="500"/>
      <point x="678" y="500" type="curve" smooth="yes"/>
      <point x="643" y="500"/>
      <point x="622" y="477"/>
      <point x="622" y="477" type="curve" smooth="yes"/>
      <point x="622" y="477"/>
      <point x="632" y="470"/>
      <point x="632" y="426" type="curve" smooth="yes"/>
      <point x="632" y="342"/>
      <point x="595" y="-198"/>
      <point x="335" y="-198" type="curve" smooth="yes"/>
      <point x="196" y="-198"/>
      <point x="138" y="-44"/>
      <point x="138" y="41" type="curve" smooth="yes"/>
      <point x="138" y="130"/>
      <point x="201" y="184"/>
      <point x="201" y="184" type="curve" smooth="yes"/>
      <point x="201" y="184"/>
      <point x="172" y="221"/>
      <point x="132" y="221" type="curve" smooth="yes"/>
      <point x="71" y="221"/>
      <point x="31" y="136"/>
      <point x="31" y="55" type="curve" smooth="yes"/>
      <point x="31" y="-62"/>
      <point x="113" y="-278"/>
      <point x="322" y="-278" type="curve" smooth="yes"/>
      <point x="564" y="-278"/>
      <point x="644" y="8"/>
      <point x="644" y="8" type="curve" smooth="yes"/>
      <point x="644" y="8"/>
      <point x="662" y="-25"/>
      <point x="704" y="-25" type="curve" smooth="yes"/>
      <point x="1033" y="-25" type="line" smooth="yes"/>
      <point x="1267" y="-25"/>
      <point x="1411" y="138"/>
      <point x="1411" y="314" type="curve" smooth="yes"/>
      <point x="1411" y="478"/>
      <point x="1287" y="578"/>
      <point x="1087" y="578" type="curve" smooth="yes"/>
    </contour>
    <contour>
      <point x="662" y="60" type="line" smooth="yes"/>
      <point x="662" y="60"/>
      <point x="684" y="478"/>
      <point x="1093" y="478" type="curve" smooth="yes"/>
      <point x="1248" y="478"/>
      <point x="1344" y="418"/>
      <point x="1344" y="295" type="curve" smooth="yes"/>
      <point x="1344" y="171"/>
      <point x="1247" y="60"/>
      <point x="1083" y="60" type="curve" smooth="yes"/>
    </contour>
    <contour>
      <point x="1103" y="678" type="move" name="top"/>
    </contour>
    <contour>
      <point x="978" y="-100" type="move" name="bottom"/>
    </contour>
  </outline>
</glyph>
<glyph name="uni0636" format="1">
  <advance width="1476"/>
  <unicode hex="0636"/>
  <outline>
    <component base="uni0635"/>
    <component base="uniFBB2" xOffset="976" yOffset="2"/>
    <contour>
      <point x="1087" y="912" type="move" name="top"/>
    </contour>
    <contour>
      <point x="925" y="-100" type="move" name="bottom"/>
    </contour>
  </outline>
</glyph>
<glyph name="uni0637" format="1">
  <advance width="1069"/>
  <unicode hex="0637"/>
  <outline>
    <contour>
      <point x="389" y="578"/>
      <point x="311" y="367"/>
      <point x="311" y="367" type="curve"/>
      <point x="306" y="370" type="line"/>
      <point x="340" y="561"/>
      <point x="373" y="688"/>
      <point x="373" y="732" type="curve" smooth="yes"/>
      <point x="373" y="762"/>
      <point x="357" y="775"/>
      <point x="328" y="775" type="curve" smooth="yes"/>
      <point x="301" y="775"/>
      <point x="259" y="763"/>
      <point x="232" y="740" type="curve"/>
      <point x="273" y="697" type="line"/>
      <point x="241" y="520"/>
      <point x="175" y="168"/>
      <point x="175" y="60" type="curve"/>
      <point x="129" y="60" type="line" smooth="yes"/>
      <point x="79" y="60"/>
      <point x="40" y="63"/>
      <point x="0" y="70" type="curve"/>
      <point x="-13" y="54"/>
      <point x="-22" y="36"/>
      <point x="-22" y="17" type="curve" smooth="yes"/>
      <point x="-22" y="-16"/>
      <point x="3" y="-25"/>
      <point x="90" y="-25" type="curve" smooth="yes"/>
      <point x="626" y="-25" type="line" smooth="yes"/>
      <point x="860" y="-25"/>
      <point x="1004" y="138"/>
      <point x="1004" y="314" type="curve" smooth="yes"/>
      <point x="1004" y="478"/>
      <point x="880" y="578"/>
      <point x="680" y="578" type="curve" smooth="yes"/>
    </contour>
    <contour>
      <point x="255" y="59"/>
      <point x="277" y="477"/>
      <point x="686" y="477" type="curve" smooth="yes"/>
      <point x="841" y="477"/>
      <point x="937" y="417"/>
      <point x="937" y="294" type="curve" smooth="yes"/>
      <point x="937" y="170"/>
      <point x="840" y="59"/>
      <point x="676" y="59" type="curve" smooth="yes"/>
      <point x="255" y="59" type="line" smooth="yes"/>
    </contour>
    <contour>
      <point x="694" y="678" type="move" name="top"/>
    </contour>
    <contour>
      <point x="569" y="-100" type="move" name="bottom"/>
    </contour>
  </outline>
</glyph>
<glyph name="uni0638" format="1">
  <advance width="1069"/>
  <unicode hex="0638"/>
  <outline>
    <component base="uni0637"/>
    <component base="uniFBB2" xOffset="567" yOffset="2"/>
    <contour>
      <point x="733" y="912" type="move" name="top"/>
    </contour>
    <contour>
      <point x="571" y="-100" type="move" name="bottom"/>
    </contour>
  </outline>
</glyph>
<glyph name="uni0639" format="1">
  <advance width="822"/>
  <unicode hex="0639"/>
  <outline>
    <contour>
      <point x="576" y="-256"/>
      <point x="547" y="-392"/>
      <point x="356" y="-392" type="curve" smooth="yes"/>
      <point x="218" y="-392"/>
      <point x="121" y="-321"/>
      <point x="121" y="-227" type="curve" smooth="yes"/>
      <point x="121" y="-117"/>
      <point x="252" y="-25"/>
      <point x="423" y="-25" type="curve" smooth="yes"/>
      <point x="464" y="-25"/>
      <point x="574" y="-25"/>
      <point x="574" y="-25" type="curve"/>
      <point x="585" y="60" type="line"/>
      <point x="552" y="60" type="line" smooth="yes"/>
      <point x="520" y="60"/>
      <point x="179" y="47"/>
      <point x="179" y="315" type="curve" smooth="yes"/>
      <point x="179" y="599"/>
      <point x="473" y="544"/>
      <point x="473" y="544" type="curve" smooth="yes"/>
      <point x="473" y="544"/>
      <point x="435" y="392"/>
      <point x="551" y="392" type="curve" smooth="yes"/>
      <point x="622" y="392"/>
      <point x="666" y="442"/>
      <point x="666" y="484" type="curve" smooth="yes"/>
      <point x="666" y="553"/>
      <point x="543" y="632"/>
      <point x="390" y="632" type="curve" smooth="yes"/>
      <point x="192" y="632"/>
      <point x="75" y="499"/>
      <point x="75" y="317" type="curve" smooth="yes"/>
      <point x="75" y="66"/>
      <point x="299" y="31"/>
      <point x="299" y="31" type="curve" smooth="yes"/>
      <point x="299" y="31"/>
      <point x="13" y="1"/>
      <point x="13" y="-235" type="curve" smooth="yes"/>
      <point x="13" y="-479"/>
      <point x="318" y="-475"/>
      <point x="383" y="-472" type="curve" smooth="yes"/>
      <point x="517" y="-466"/>
      <point x="666" y="-417"/>
      <point x="666" y="-281" type="curve" smooth="yes"/>
      <point x="666" y="-212"/>
      <point x="628" y="-199"/>
      <point x="576" y="-199" type="curve"/>
    </contour>
    <contour>
      <point x="396" y="710" type="move" name="top"/>
    </contour>
    <contour>
      <point x="256" y="-570" type="move" name="bottom"/>
    </contour>
  </outline>
</glyph>
<glyph name="uni063A" format="1">
  <advance width="822"/>
  <unicode hex="063A"/>
  <outline>
    <component base="uni0639"/>
    <component base="uniFBB2" xOffset="269" yOffset="34"/>
    <contour>
      <point x="432" y="939" type="move" name="top"/>
    </contour>
    <contour>
      <point x="256" y="-570" type="move" name="bottom"/>
    </contour>
  </outline>
</glyph>
<glyph name="uni0640" format="1">
  <advance width="290"/>
  <unicode hex="0640"/>
  <outline>
    <contour>
      <point x="241" y="-25" type="line"/>
      <point x="254" y="60" type="line"/>
      <point x="-36" y="60" type="line"/>
      <point x="-50" y="-25" type="line"/>
    </contour>
    <contour>
      <point x="247" y="18" type="move" name="entry"/>
    </contour>
    <contour>
      <point x="-42" y="18" type="move" name="exit"/>
    </contour>
  </outline>
</glyph>
<glyph name="uni0641" format="1">
  <advance width="1130"/>
  <unicode hex="0641"/>
  <outline>
    <component base="uni06A1"/>
    <component base="uniFBB2" xOffset="781" yOffset="-1"/>
    <contour>
      <point x="949" y="937" type="move" name="top"/>
    </contour>
    <contour>
      <point x="785" y="-100" type="move" name="bottom"/>
    </contour>
  </outline>
</glyph>
<glyph name="uni0642" format="1">
  <advance width="1083"/>
  <unicode hex="0642"/>
  <outline>
    <component base="uni066F"/>
    <component base="uniFBB4" xOffset="658" yOffset="-1"/>
    <contour>
      <point x="893" y="937" type="move" name="top"/>
    </contour>
    <contour>
      <point x="438" y="-479" type="move" name="bottom"/>
    </contour>
  </outline>
</glyph>
<glyph name="uni0643" format="1">
  <advance width="959"/>
  <unicode hex="0643"/>
  <outline>
    <component base="dotlesskaf-ar"/>
    <component base="uni0654" xOffset="315" yOffset="-145"/>
    <contour>
      <point x="545" y="772" type="move" name="top"/>
    </contour>
    <contour>
      <point x="418" y="-100" type="move" name="bottom"/>
    </contour>
  </outline>
</glyph>
<glyph name="uni064B" format="1">
  <advance width="261"/>
  <unicode hex="064B"/>
  <outline>
    <component base="uni064E"/>
    <component base="uni064E" xOffset="19" yOffset="121"/>
    <contour>
      <point x="220" y="777" type="move" name="top"/>
    </contour>
    <contour>
      <point x="178" y="521" type="move" name="_top"/>
    </contour>
  </outline>
</glyph>
<glyph name="uni064D" format="1">
  <advance width="261"/>
  <unicode hex="064D"/>
  <outline>
    <component base="uni0650" xOffset="16" yOffset="96"/>
    <component base="uni0650" xOffset="-4" yOffset="-25"/>
    <contour>
      <point x="64" y="-126" type="move" name="_bottom"/>
    </contour>
    <contour>
      <point x="29" y="-350" type="move" name="bottom"/>
    </contour>
  </outline>
</glyph>
<glyph name="uni064E" format="1">
  <advance width="261"/>
  <unicode hex="064E"/>
  <outline>
    <contour>
      <point x="122" y="541"/>
      <point x="200" y="557"/>
      <point x="248" y="557" type="curve" smooth="yes"/>
      <point x="268" y="557"/>
      <point x="291" y="554"/>
      <point x="298" y="551" type="curve"/>
      <point x="306" y="569"/>
      <point x="308" y="580"/>
      <point x="308" y="590" type="curve" smooth="yes"/>
      <point x="308" y="615"/>
      <point x="290" y="621"/>
      <point x="251" y="621" type="curve" smooth="yes"/>
      <point x="215" y="621"/>
      <point x="148" y="616"/>
      <point x="119" y="616" type="curve" smooth="yes"/>
      <point x="93" y="616"/>
      <point x="75" y="619"/>
      <point x="63" y="624" type="curve"/>
      <point x="57" y="616"/>
      <point x="46" y="590"/>
      <point x="46" y="570" type="curve" smooth="yes"/>
      <point x="46" y="551"/>
      <point x="56" y="541"/>
      <point x="85" y="541" type="curve" smooth="yes"/>
    </contour>
    <contour>
      <point x="202" y="661" type="move" name="top"/>
    </contour>
    <contour>
      <point x="183" y="540" type="move" name="_top"/>
    </contour>
  </outline>
</glyph>
<glyph name="uni0650" format="1">
  <advance width="260"/>
  <unicode hex="0650"/>
  <outline>
    <contour>
      <point x="-16" y="-325"/>
      <point x="62" y="-309"/>
      <point x="110" y="-309" type="curve" smooth="yes"/>
      <point x="130" y="-309"/>
      <point x="153" y="-312"/>
      <point x="160" y="-315" type="curve"/>
      <point x="168" y="-297"/>
      <point x="170" y="-286"/>
      <point x="170" y="-276" type="curve" smooth="yes"/>
      <point x="170" y="-251"/>
      <point x="152" y="-245"/>
      <point x="113" y="-245" type="curve" smooth="yes"/>
      <point x="77" y="-245"/>
      <point x="10" y="-250"/>
      <point x="-19" y="-250" type="curve" smooth="yes"/>
      <point x="-45" y="-250"/>
      <point x="-63" y="-247"/>
      <point x="-75" y="-242" type="curve"/>
      <point x="-81" y="-250"/>
      <point x="-92" y="-276"/>
      <point x="-92" y="-296" type="curve" smooth="yes"/>
      <point x="-92" y="-315"/>
      <point x="-82" y="-325"/>
      <point x="-53" y="-325" type="curve" smooth="yes"/>
    </contour>
    <contour>
      <point x="60" y="-205" type="move" name="_bottom"/>
    </contour>
    <contour>
      <point x="40" y="-326" type="move" name="bottom"/>
    </contour>
  </outline>
</glyph>
<glyph name="uni0652" format="1">
  <advance width="222"/>
  <unicode hex="0652"/>
  <outline>
    <contour>
      <point x="135" y="586"/>
      <point x="118" y="607"/>
      <point x="118" y="638" type="curve" smooth="yes"/>
      <point x="118" y="664"/>
      <point x="127" y="688"/>
      <point x="145" y="706" type="curve"/>
      <point x="159" y="710"/>
      <point x="167" y="710"/>
      <point x="177" y="710" type="curve" smooth="yes"/>
      <point x="204" y="710"/>
      <point x="217" y="698"/>
      <point x="217" y="662" type="curve" smooth="yes"/>
      <point x="217" y="614"/>
      <point x="193" y="586"/>
      <point x="159" y="586" type="curve" smooth="yes"/>
    </contour>
    <contour>
      <point x="229" y="541"/>
      <point x="280" y="591"/>
      <point x="280" y="662" type="curve" smooth="yes"/>
      <point x="280" y="720"/>
      <point x="243" y="755"/>
      <point x="183" y="755" type="curve" smooth="yes"/>
      <point x="109" y="755"/>
      <point x="58" y="706"/>
      <point x="56" y="634" type="curve" smooth="yes"/>
      <point x="58" y="576"/>
      <point x="94" y="541"/>
      <point x="153" y="541" type="curve" smooth="yes"/>
    </contour>
    <contour>
      <point x="206" y="803" type="move" name="top"/>
    </contour>
    <contour>
      <point x="148" y="521" type="move" name="_top"/>
    </contour>
  </outline>
</glyph>
<glyph name="uni0653" format="1">
  <advance width="257"/>
  <unicode hex="0653"/>
  <outline>
    <contour>
      <point x="282" y="567"/>
      <point x="266" y="571"/>
      <point x="243" y="571" type="curve" smooth="yes"/>
      <point x="179" y="571"/>
      <point x="131" y="541"/>
      <point x="83" y="541" type="curve" smooth="yes"/>
      <point x="51" y="541"/>
      <point x="46" y="554"/>
      <point x="46" y="571" type="curve" smooth="yes"/>
      <point x="46" y="590"/>
      <point x="52" y="608"/>
      <point x="59" y="624" type="curve"/>
      <point x="73" y="620"/>
      <point x="88" y="615"/>
      <point x="113" y="615" type="curve" smooth="yes"/>
      <point x="176" y="615"/>
      <point x="224" y="647"/>
      <point x="272" y="647" type="curve" smooth="yes"/>
      <point x="304" y="647"/>
      <point x="308" y="633"/>
      <point x="308" y="616" type="curve" smooth="yes"/>
      <point x="308" y="598"/>
      <point x="303" y="579"/>
      <point x="295" y="564" type="curve"/>
    </contour>
    <contour>
      <point x="199" y="647" type="move" name="top"/>
    </contour>
    <contour>
      <point x="181" y="540" type="move" name="_top"/>
    </contour>
  </outline>
</glyph>
<glyph name="uni0654" format="1">
  <advance width="257"/>
  <unicode hex="0654"/>
  <outline>
    <contour>
      <point x="247" y="647"/>
      <point x="231" y="641"/>
      <point x="195" y="631" type="curve"/>
      <point x="173" y="653"/>
      <point x="164" y="676"/>
      <point x="164" y="700" type="curve" smooth="yes"/>
      <point x="164" y="730"/>
      <point x="178" y="747"/>
      <point x="210" y="749" type="curve"/>
      <point x="218" y="731"/>
      <point x="231" y="719"/>
      <point x="250" y="717" type="curve"/>
      <point x="284" y="711"/>
      <point x="298" y="734"/>
      <point x="299" y="749" type="curve" smooth="yes"/>
      <point x="300" y="780"/>
      <point x="242" y="804"/>
      <point x="186" y="804" type="curve" smooth="yes"/>
      <point x="124" y="804"/>
      <point x="96" y="774"/>
      <point x="96" y="724" type="curve" smooth="yes"/>
      <point x="96" y="686"/>
      <point x="112" y="648"/>
      <point x="142" y="618" type="curve"/>
      <point x="130" y="617"/>
      <point x="117" y="616"/>
      <point x="107" y="616" type="curve" smooth="yes"/>
      <point x="88" y="616"/>
      <point x="73" y="620"/>
      <point x="59" y="624" type="curve"/>
      <point x="52" y="608"/>
      <point x="46" y="590"/>
      <point x="46" y="572" type="curve" smooth="yes"/>
      <point x="46" y="555"/>
      <point x="51" y="541"/>
      <point x="83" y="541" type="curve" smooth="yes"/>
      <point x="130" y="541"/>
      <point x="180" y="571"/>
      <point x="245" y="571" type="curve" smooth="yes"/>
      <point x="266" y="571"/>
      <point x="282" y="568"/>
      <point x="295" y="564" type="curve"/>
      <point x="303" y="580"/>
      <point x="308" y="599"/>
      <point x="308" y="617" type="curve" smooth="yes"/>
      <point x="308" y="635"/>
      <point x="303" y="647"/>
      <point x="270" y="647" type="curve" smooth="yes"/>
    </contour>
    <contour>
      <point x="228" y="847" type="move" name="top"/>
    </contour>
    <contour>
      <point x="181" y="540" type="move" name="_top"/>
    </contour>
  </outline>
</glyph>
<glyph name="uni0655" format="1">
  <advance width="257"/>
  <unicode hex="0655"/>
  <outline>
    <contour>
      <point x="110" y="-219"/>
      <point x="94" y="-225"/>
      <point x="58" y="-235" type="curve"/>
      <point x="36" y="-213"/>
      <point x="27" y="-190"/>
      <point x="27" y="-166" type="curve" smooth="yes"/>
      <point x="27" y="-136"/>
      <point x="41" y="-119"/>
      <point x="73" y="-117" type="curve"/>
      <point x="81" y="-135"/>
      <point x="94" y="-147"/>
      <point x="113" y="-149" type="curve"/>
      <point x="147" y="-155"/>
      <point x="161" y="-132"/>
      <point x="162" y="-117" type="curve" smooth="yes"/>
      <point x="163" y="-86"/>
      <point x="105" y="-62"/>
      <point x="49" y="-62" type="curve" smooth="yes"/>
      <point x="-13" y="-62"/>
      <point x="-41" y="-92"/>
      <point x="-41" y="-142" type="curve" smooth="yes"/>
      <point x="-41" y="-180"/>
      <point x="-25" y="-218"/>
      <point x="5" y="-248" type="curve"/>
      <point x="-7" y="-249"/>
      <point x="-20" y="-250"/>
      <point x="-30" y="-250" type="curve" smooth="yes"/>
      <point x="-49" y="-250"/>
      <point x="-64" y="-246"/>
      <point x="-78" y="-242" type="curve"/>
      <point x="-85" y="-258"/>
      <point x="-91" y="-276"/>
      <point x="-91" y="-294" type="curve" smooth="yes"/>
      <point x="-91" y="-311"/>
      <point x="-86" y="-325"/>
      <point x="-54" y="-325" type="curve" smooth="yes"/>
      <point x="-7" y="-325"/>
      <point x="43" y="-295"/>
      <point x="108" y="-295" type="curve" smooth="yes"/>
      <point x="129" y="-295"/>
      <point x="145" y="-298"/>
      <point x="158" y="-302" type="curve"/>
      <point x="166" y="-286"/>
      <point x="171" y="-267"/>
      <point x="171" y="-249" type="curve" smooth="yes"/>
      <point x="171" y="-231"/>
      <point x="166" y="-219"/>
      <point x="133" y="-219" type="curve" smooth="yes"/>
    </contour>
    <contour>
      <point x="60" y="-33" type="move" name="_bottom"/>
    </contour>
    <contour>
      <point x="42" y="-325" type="move" name="bottom"/>
    </contour>
  </outline>
</glyph>
<glyph name="uni066E" format="1">
  <advance width="969"/>
  <unicode hex="066E"/>
  <outline>
    <contour>
      <point x="857" y="530"/>
      <point x="818" y="518"/>
      <point x="792" y="496" type="curve"/>
      <point x="834" y="455" type="line"/>
      <point x="772" y="175"/>
      <point x="759" y="78"/>
      <point x="759" y="60" type="curve"/>
      <point x="268" y="60" type="line" smooth="yes"/>
      <point x="202" y="60"/>
      <point x="165" y="105"/>
      <point x="165" y="181" type="curve" smooth="yes"/>
      <point x="165" y="257"/>
      <point x="202" y="354"/>
      <point x="202" y="424" type="curve" smooth="yes"/>
      <point x="202" y="470"/>
      <point x="186" y="489"/>
      <point x="155" y="489" type="curve" smooth="yes"/>
      <point x="133" y="489"/>
      <point x="112" y="479"/>
      <point x="93" y="467" type="curve"/>
      <point x="98" y="446"/>
      <point x="102" y="422"/>
      <point x="102" y="391" type="curve" smooth="yes"/>
      <point x="102" y="305"/>
      <point x="72" y="244"/>
      <point x="72" y="147" type="curve" smooth="yes"/>
      <point x="72" y="27"/>
      <point x="118" y="-25"/>
      <point x="233" y="-25" type="curve" smooth="yes"/>
      <point x="813" y="-25" type="line"/>
      <point x="855" y="40" type="line"/>
      <point x="855" y="185"/>
      <point x="934" y="469"/>
      <point x="934" y="480" type="curve" smooth="yes"/>
      <point x="934" y="517"/>
      <point x="919" y="530"/>
      <point x="887" y="530" type="curve" smooth="yes"/>
    </contour>
    <contour>
      <point x="531" y="575" type="move" name="top"/>
    </contour>
    <contour>
      <point x="426" y="-85" type="move" name="bottom"/>
    </contour>
  </outline>
</glyph>
<glyph name="uni066F" format="1">
  <advance width="1083"/>
  <unicode hex="066F"/>
  <outline>
    <contour>
      <point x="776" y="60" type="line" smooth="yes"/>
      <point x="681" y="60"/>
      <point x="631" y="100"/>
      <point x="631" y="238" type="curve" smooth="yes"/>
      <point x="631" y="424"/>
      <point x="722" y="522"/>
      <point x="859" y="522" type="curve" smooth="yes"/>
      <point x="901" y="522"/>
      <point x="927" y="513"/>
      <point x="942" y="506" type="curve"/>
      <point x="942" y="360"/>
      <point x="918" y="174"/>
      <point x="863" y="60" type="curve"/>
    </contour>
    <contour>
      <point x="636" y="605"/>
      <point x="528" y="414"/>
      <point x="528" y="236" type="curve" smooth="yes"/>
      <point x="528" y="73"/>
      <point x="619" y="-25"/>
      <point x="758" y="-25" type="curve" smooth="yes"/>
      <point x="822" y="-25" type="line"/>
      <point x="729" y="-183"/>
      <point x="600" y="-278"/>
      <point x="458" y="-278" type="curve" smooth="yes"/>
      <point x="257" y="-278"/>
      <point x="138" y="-87"/>
      <point x="138" y="39" type="curve" smooth="yes"/>
      <point x="138" y="130"/>
      <point x="201" y="186"/>
      <point x="201" y="184" type="curve"/>
      <point x="201" y="186"/>
      <point x="171" y="221"/>
      <point x="134" y="221" type="curve" smooth="yes"/>
      <point x="86" y="221"/>
      <point x="31" y="163"/>
      <point x="31" y="51" type="curve" smooth="yes"/>
      <point x="31" y="-122"/>
      <point x="163" y="-358"/>
      <point x="457" y="-358" type="curve" smooth="yes"/>
      <point x="891" y="-358"/>
      <point x="1035" y="156"/>
      <point x="1035" y="500" type="curve"/>
      <point x="1035" y="500"/>
      <point x="998" y="605"/>
      <point x="844" y="605" type="curve" smooth="yes"/>
    </contour>
    <contour>
      <point x="858" y="675" type="move" name="top"/>
    </contour>
    <contour>
      <point x="438" y="-479" type="move" name="bottom"/>
    </contour>
  </outline>
</glyph>
<glyph name="uni0671" format="1">
  <advance width="275"/>
  <unicode hex="0671"/>
  <outline>
    <component base="uni0627.short"/>
    <component base="wasla-ar" xOffset="24" yOffset="215"/>
    <contour>
      <point x="250" y="1080" type="move" name="top"/>
    </contour>
    <contour>
      <point x="116" y="-100" type="move" name="bottom"/>
    </contour>
  </outline>
</glyph>
<glyph name="uni0679" format="1">
  <advance width="969"/>
  <unicode hex="0679"/>
  <outline>
    <component base="uni066E"/>
    <component base="uni0615" xOffset="380" yOffset="54"/>
    <contour>
      <point x="608" y="1050" type="move" name="top"/>
    </contour>
    <contour>
      <point x="424" y="-100" type="move" name="bottom"/>
    </contour>
  </outline>
</glyph>
<glyph name="uni067E" format="1">
  <advance width="969"/>
  <unicode hex="067E"/>
  <outline>
    <component base="uni066E"/>
    <component base="uniFBB9" xOffset="344" yOffset="-15"/>
    <contour>
      <point x="531" y="575" type="move" name="top"/>
    </contour>
    <contour>
      <point x="375" y="-400" type="move" name="bottom"/>
    </contour>
  </outline>
</glyph>
<glyph name="uni0686" format="1">
  <advance width="956"/>
  <unicode hex="0686"/>
  <outline>
    <component base="uni062D"/>
    <component base="uniFBB9" xOffset="441" yOffset="44"/>
    <contour>
      <point x="470" y="630" type="move" name="top"/>
    </contour>
    <contour>
      <point x="390" y="-570" type="move" name="bottom"/>
    </contour>
  </outline>
</glyph>
<glyph name="uni0688" format="1">
  <advance width="567"/>
  <unicode hex="0688"/>
  <outline>
    <component base="uni062F"/>
    <component base="uni0615" xOffset="167" yOffset="149"/>
    <contour>
      <point x="398" y="1170" type="move" name="top"/>
    </contour>
    <contour>
      <point x="195" y="-100" type="move" name="bottom"/>
    </contour>
  </outline>
</glyph>
<glyph name="uni0691" format="1">
  <advance width="354"/>
  <unicode hex="0691"/>
  <outline>
    <component base="uni0631"/>
    <component base="uni0615" xOffset="131" yOffset="79"/>
    <contour>
      <point x="357" y="1070" type="move" name="top"/>
    </contour>
    <contour>
      <point x="114" y="-450" type="move" name="bottom"/>
    </contour>
  </outline>
</glyph>
<glyph name="uni0698" format="1">
  <advance width="354"/>
  <unicode hex="0698"/>
  <outline>
    <component base="uni0631"/>
    <component base="uniFBB6" xOffset="82" yOffset="-76"/>
    <contour>
      <point x="331" y="900" type="move" name="top"/>
    </contour>
    <contour>
      <point x="114" y="-450" type="move" name="bottom"/>
    </contour>
  </outline>
</glyph>
<glyph name="uni06A1" format="1">
  <advance width="1130"/>
  <unicode hex="06A1"/>
  <outline>
    <contour>
      <point x="1095" y="562"/>
      <point x="980" y="605"/>
      <point x="897" y="605" type="curve" smooth="yes"/>
      <point x="745" y="605"/>
      <point x="589" y="463"/>
      <point x="589" y="240" type="curve" smooth="yes"/>
      <point x="589" y="113"/>
      <point x="639" y="60"/>
      <point x="639" y="60" type="curve" smooth="yes"/>
      <point x="268" y="60" type="line" smooth="yes"/>
      <point x="202" y="60"/>
      <point x="165" y="105"/>
      <point x="165" y="181" type="curve" smooth="yes"/>
      <point x="165" y="257"/>
      <point x="202" y="354"/>
      <point x="202" y="424" type="curve" smooth="yes"/>
      <point x="202" y="470"/>
      <point x="186" y="489"/>
      <point x="155" y="489" type="curve" smooth="yes"/>
      <point x="133" y="489"/>
      <point x="112" y="479"/>
      <point x="93" y="467" type="curve"/>
      <point x="98" y="446"/>
      <point x="102" y="422"/>
      <point x="102" y="391" type="curve" smooth="yes"/>
      <point x="102" y="305"/>
      <point x="72" y="244"/>
      <point x="72" y="147" type="curve" smooth="yes"/>
      <point x="72" y="27"/>
      <point x="118" y="-25"/>
      <point x="233" y="-25" type="curve" smooth="yes"/>
      <point x="974" y="-25" type="line"/>
      <point x="1016" y="40" type="line"/>
      <point x="1016" y="183"/>
      <point x="1095" y="477"/>
      <point x="1095" y="480" type="curve" smooth="yes"/>
    </contour>
    <contour>
      <point x="744" y="60" type="line" smooth="yes"/>
      <point x="744" y="60"/>
      <point x="692" y="98"/>
      <point x="692" y="234" type="curve" smooth="yes"/>
      <point x="692" y="424"/>
      <point x="794" y="522"/>
      <point x="920" y="522" type="curve" smooth="yes"/>
      <point x="972" y="522"/>
      <point x="1006" y="505"/>
      <point x="1006" y="505" type="curve" smooth="yes"/>
      <point x="1006" y="505"/>
      <point x="920" y="104"/>
      <point x="920" y="60" type="curve"/>
    </contour>
    <contour>
      <point x="908" y="675" type="move" name="top"/>
    </contour>
    <contour>
      <point x="785" y="-100" type="move" name="bottom"/>
    </contour>
  </outline>
</glyph>
<glyph name="uni06A4" format="1">
  <advance width="1130"/>
  <unicode hex="06A4"/>
  <outline>
    <component base="uni06A1"/>
    <component base="uniFBB6" xOffset="708" yOffset="-1"/>
    <contour>
      <point x="966" y="1034" type="move" name="top"/>
    </contour>
    <contour>
      <point x="785" y="-100" type="move" name="bottom"/>
    </contour>
  </outline>
</glyph>
<glyph name="endash" format="1">
  <advance width="655"/>
  <unicode hex="2013"/>
  <outline>
    <contour>
      <point x="236" y="236"/>
      <point x="403" y="267"/>
      <point x="486" y="267" type="curve" smooth="yes"/>
      <point x="541" y="267"/>
      <point x="581" y="259"/>
      <point x="597" y="250" type="curve"/>
      <point x="607" y="277"/>
      <point x="613" y="298"/>
      <point x="613" y="318" type="curve" smooth="yes"/>
      <point x="613" y="349"/>
      <point x="598" y="359"/>
      <point x="553" y="359" type="curve" smooth="yes"/>
      <point x="421" y="359"/>
      <point x="254" y="327"/>
      <point x="171" y="327" type="curve" smooth="yes"/>
      <point x="117" y="327"/>
      <point x="77" y="335"/>
      <point x="60" y="344" type="curve"/>
      <point x="50" y="318"/>
      <point x="44" y="296"/>
      <point x="44" y="276" type="curve" smooth="yes"/>
      <point x="44" y="245"/>
      <point x="59" y="236"/>
      <point x="104" y="236" type="curve" smooth="yes"/>
    </contour>
  </outline>
</glyph>
<glyph name="emdash" format="1">
  <advance width="798"/>
  <unicode hex="2014"/>
  <outline>
    <contour>
      <point x="268" y="236"/>
      <point x="487" y="267"/>
      <point x="599" y="267" type="curve" smooth="yes"/>
      <point x="664" y="267"/>
      <point x="713" y="260"/>
      <point x="740" y="250" type="curve"/>
      <point x="751" y="282"/>
      <point x="757" y="305"/>
      <point x="757" y="324" type="curve" smooth="yes"/>
      <point x="757" y="351"/>
      <point x="743" y="359"/>
      <point x="702" y="359" type="curve" smooth="yes"/>
      <point x="532" y="359"/>
      <point x="313" y="327"/>
      <point x="200" y="327" type="curve" smooth="yes"/>
      <point x="134" y="327"/>
      <point x="85" y="335"/>
      <point x="60" y="344" type="curve"/>
      <point x="49" y="313"/>
      <point x="43" y="290"/>
      <point x="43" y="271" type="curve" smooth="yes"/>
      <point x="43" y="244"/>
      <point x="56" y="236"/>
      <point x="98" y="236" type="curve" smooth="yes"/>
    </contour>
  </outline>
</glyph>
<glyph name="ellipsis" format="1">
  <advance width="811"/>
  <unicode hex="2026"/>
  <outline>
    <contour>
      <point x="73" y="74"/>
      <point x="105" y="108"/>
      <point x="145" y="108" type="curve" smooth="yes"/>
      <point x="181" y="108"/>
      <point x="207" y="82"/>
      <point x="207" y="48" type="curve" smooth="yes"/>
      <point x="207" y="10"/>
      <point x="175" y="-25"/>
      <point x="135" y="-25" type="curve" smooth="yes"/>
      <point x="100" y="-25"/>
      <point x="73" y="2"/>
      <point x="73" y="35" type="curve" smooth="yes"/>
    </contour>
    <contour>
      <point x="337" y="74"/>
      <point x="369" y="108"/>
      <point x="409" y="108" type="curve" smooth="yes"/>
      <point x="445" y="108"/>
      <point x="471" y="82"/>
      <point x="471" y="48" type="curve" smooth="yes"/>
      <point x="471" y="10"/>
      <point x="439" y="-25"/>
      <point x="399" y="-25" type="curve" smooth="yes"/>
      <point x="364" y="-25"/>
      <point x="337" y="2"/>
      <point x="337" y="35" type="curve" smooth="yes"/>
    </contour>
    <contour>
      <point x="601" y="74"/>
      <point x="633" y="108"/>
      <point x="673" y="108" type="curve" smooth="yes"/>
      <point x="709" y="108"/>
      <point x="735" y="82"/>
      <point x="735" y="48" type="curve" smooth="yes"/>
      <point x="735" y="10"/>
      <point x="703" y="-25"/>
      <point x="663" y="-25" type="curve" smooth="yes"/>
      <point x="628" y="-25"/>
      <point x="601" y="2"/>
      <point x="601" y="35" type="curve" smooth="yes"/>
    </contour>
  </outline>
</glyph>
<glyph name="guilsinglleft" format="1">
  <advance width="378"/>
  <unicode hex="2039"/>
  <outline>
    <contour>
      <point x="90" y="377"/>
      <point x="61" y="353"/>
      <point x="61" y="288" type="curve" smooth="yes"/>
      <point x="61" y="238"/>
      <point x="156" y="111"/>
      <point x="225" y="25" type="curve"/>
      <point x="259" y="25"/>
      <point x="278" y="37"/>
      <point x="278" y="78" type="curve" smooth="yes"/>
      <point x="278" y="137"/>
      <point x="221" y="187"/>
      <point x="110" y="300" type="curve"/>
      <point x="232" y="376"/>
      <point x="339" y="453"/>
      <point x="339" y="501" type="curve" smooth="yes"/>
      <point x="339" y="546"/>
      <point x="292" y="549"/>
      <point x="296" y="549" type="curve"/>
    </contour>
  </outline>
</glyph>
<glyph name="fraction" format="1">
  <advance width="236"/>
  <unicode hex="2044"/>
  <outline>
    <contour>
      <point x="-88" y="-36"/>
      <point x="-74" y="-40"/>
      <point x="-59" y="-40" type="curve" smooth="yes"/>
      <point x="-28" y="-40"/>
      <point x="-7" y="-25"/>
      <point x="9" y="9" type="curve" smooth="yes"/>
      <point x="159" y="352"/>
      <point x="267" y="599"/>
      <point x="366" y="783" type="curve"/>
      <point x="353" y="792"/>
      <point x="339" y="796"/>
      <point x="325" y="796" type="curve" smooth="yes"/>
      <point x="294" y="796"/>
      <point x="273" y="781"/>
      <point x="259" y="747" type="curve" smooth="yes"/>
      <point x="115" y="402"/>
      <point x="2" y="171"/>
      <point x="-100" y="-27" type="curve"/>
    </contour>
  </outline>
</glyph>
<glyph name="lira" format="1">
  <advance width="600"/>
  <unicode hex="20A4"/>
  <outline>
    <contour>
      <point x="211" y="74" type="line"/>
      <point x="307" y="610" type="line"/>
      <point x="416" y="610"/>
      <point x="519" y="592"/>
      <point x="580" y="563" type="curve"/>
      <point x="585" y="587"/>
      <point x="587" y="597"/>
      <point x="587" y="606" type="curve" smooth="yes"/>
      <point x="587" y="669"/>
      <point x="519" y="698"/>
      <point x="413" y="698" type="curve" smooth="yes"/>
      <point x="272" y="698"/>
      <point x="197" y="639"/>
      <point x="181" y="469" type="curve" smooth="yes"/>
      <point x="144" y="72" type="line"/>
    </contour>
    <contour>
      <point x="520" y="-30"/>
      <point x="576" y="6"/>
      <point x="576" y="54" type="curve" smooth="yes"/>
      <point x="576" y="69"/>
      <point x="569" y="84"/>
      <point x="550" y="110" type="curve"/>
      <point x="450" y="51" type="line"/>
      <point x="374" y="51"/>
      <point x="211" y="118"/>
      <point x="155" y="118" type="curve" smooth="yes"/>
      <point x="88" y="118"/>
      <point x="41" y="81"/>
      <point x="41" y="30" type="curve" smooth="yes"/>
      <point x="41" y="1"/>
      <point x="65" y="-22"/>
      <point x="96" y="-22" type="curve" smooth="yes"/>
      <point x="130" y="-22"/>
      <point x="156" y="-7"/>
      <point x="194" y="34" type="curve"/>
      <point x="331" y="-21"/>
      <point x="386" y="-30"/>
      <point x="450" y="-30" type="curve" smooth="yes"/>
    </contour>
    <component base="uni0335" xOffset="-55" yOffset="123" xScale="0.9" yScale="0.8"/>
    <component base="uni0335" xOffset="-76" yOffset="-7" xScale="0.9" yScale="0.8"/>
  </outline>
</glyph>
<glyph name="Euro" format="1">
  <advance width="648"/>
  <unicode hex="20AC"/>
  <outline>
    <contour>
      <point x="460" y="-27"/>
      <point x="544" y="5"/>
      <point x="544" y="60" type="curve" smooth="yes"/>
      <point x="544" y="66"/>
      <point x="543" y="84"/>
      <point x="540" y="103" type="curve"/>
      <point x="491" y="61"/>
      <point x="435" y="35"/>
      <point x="377" y="35" type="curve" smooth="yes"/>
      <point x="235" y="35"/>
      <point x="214" y="145"/>
      <point x="214" y="278" type="curve" smooth="yes"/>
      <point x="214" y="396"/>
      <point x="267" y="549"/>
      <point x="328" y="609" type="curve"/>
      <point x="441" y="609"/>
      <point x="548" y="593"/>
      <point x="611" y="562" type="curve"/>
      <point x="616" y="586"/>
      <point x="618" y="597"/>
      <point x="618" y="605" type="curve" smooth="yes"/>
      <point x="618" y="669"/>
      <point x="545" y="698"/>
      <point x="429" y="698" type="curve" smooth="yes"/>
      <point x="226" y="698"/>
      <point x="105" y="505"/>
      <point x="105" y="276" type="curve" smooth="yes"/>
      <point x="105" y="80"/>
      <point x="183" y="-27"/>
      <point x="358" y="-27" type="curve" smooth="yes"/>
    </contour>
    <component base="uni0335" xOffset="-108" yOffset="113" xScale="0.9" yScale="0.8"/>
    <component base="uni0335" xOffset="-133" yOffset="-47" xScale="0.9" yScale="0.8"/>
  </outline>
</glyph>
<glyph name="uni2113" format="1">
  <advance width="363"/>
  <unicode hex="2113"/>
  <outline>
    <contour>
      <point x="189" y="-25"/>
      <point x="241" y="0"/>
      <point x="265" y="48" type="curve"/>
      <point x="248" y="71" type="line"/>
      <point x="228" y="48"/>
      <point x="212" y="39"/>
      <point x="201" y="39" type="curve" smooth="yes"/>
      <point x="179" y="39"/>
      <point x="173" y="59"/>
      <point x="173" y="81" type="curve" smooth="yes"/>
      <point x="173" y="137"/>
      <point x="183" y="202"/>
      <point x="198" y="273" type="curve"/>
      <point x="289" y="421"/>
      <point x="342" y="575"/>
      <point x="342" y="672" type="curve" smooth="yes"/>
      <point x="342" y="736"/>
      <point x="318" y="775"/>
      <point x="266" y="775" type="curve" smooth="yes"/>
      <point x="246" y="775"/>
      <point x="183" y="764"/>
      <point x="166" y="634" type="curve" smooth="yes"/>
      <point x="140" y="468"/>
      <point x="86" y="163"/>
      <point x="86" y="79" type="curve" smooth="yes"/>
      <point x="86" y="9"/>
      <point x="100" y="-25"/>
      <point x="156" y="-25" type="curve" smooth="yes"/>
    </contour>
    <contour>
      <point x="274" y="747" type="line"/>
      <point x="300" y="743"/>
      <point x="312" y="720"/>
      <point x="312" y="672" type="curve" smooth="yes"/>
      <point x="312" y="593"/>
      <point x="274" y="478"/>
      <point x="212" y="359" type="curve"/>
    </contour>
  </outline>
</glyph>
<glyph name="partialdiff" format="1">
  <advance width="692"/>
  <unicode hex="2202"/>
  <outline>
    <contour>
      <point x="462" y="-200"/>
      <point x="594" y="-23"/>
      <point x="594" y="229" type="curve" smooth="yes"/>
      <point x="594" y="505"/>
      <point x="430" y="752"/>
      <point x="246" y="752" type="curve" smooth="yes"/>
      <point x="210" y="752"/>
      <point x="182" y="724"/>
      <point x="182" y="688" type="curve"/>
      <point x="360" y="688"/>
      <point x="505" y="489"/>
      <point x="505" y="181" type="curve" smooth="yes"/>
      <point x="505" y="-16"/>
      <point x="424" y="-142"/>
      <point x="300" y="-142" type="curve" smooth="yes"/>
      <point x="209" y="-142"/>
      <point x="155" y="-69"/>
      <point x="155" y="55" type="curve" smooth="yes"/>
      <point x="155" y="256"/>
      <point x="288" y="379"/>
      <point x="500" y="379" type="curve"/>
      <point x="499" y="392"/>
      <point x="495" y="404"/>
      <point x="486" y="417" type="curve"/>
      <point x="466" y="423"/>
      <point x="444" y="425"/>
      <point x="408" y="425" type="curve" smooth="yes"/>
      <point x="198" y="425"/>
      <point x="50" y="274"/>
      <point x="50" y="60" type="curve" smooth="yes"/>
      <point x="50" y="-98"/>
      <point x="138" y="-200"/>
      <point x="276" y="-200" type="curve" smooth="yes"/>
    </contour>
  </outline>
</glyph>
<glyph name="product" format="1">
  <advance width="785"/>
  <unicode hex="220F"/>
  <outline>
    <contour>
      <point x="502" y="-5"/>
      <point x="520" y="-25"/>
      <point x="560" y="-25" type="curve" smooth="yes"/>
      <point x="581" y="-25"/>
      <point x="601" y="-19"/>
      <point x="625" y="-4" type="curve"/>
      <point x="611" y="14"/>
      <point x="603" y="42"/>
      <point x="603" y="75" type="curve" smooth="yes"/>
      <point x="603" y="165"/>
      <point x="687" y="627"/>
      <point x="687" y="655" type="curve"/>
      <point x="585" y="655" type="line"/>
      <point x="520" y="266"/>
      <point x="502" y="127"/>
      <point x="502" y="43" type="curve" smooth="yes"/>
    </contour>
    <contour>
      <point x="135" y="-5"/>
      <point x="153" y="-25"/>
      <point x="193" y="-25" type="curve" smooth="yes"/>
      <point x="214" y="-25"/>
      <point x="234" y="-19"/>
      <point x="258" y="-4" type="curve"/>
      <point x="244" y="14"/>
      <point x="236" y="42"/>
      <point x="236" y="75" type="curve" smooth="yes"/>
      <point x="236" y="165"/>
      <point x="320" y="627"/>
      <point x="320" y="655" type="curve"/>
      <point x="218" y="655" type="line"/>
      <point x="153" y="266"/>
      <point x="135" y="127"/>
      <point x="135" y="43" type="curve" smooth="yes"/>
    </contour>
    <component base="uni0336" xOffset="19" yOffset="282"/>
  </outline>
</glyph>
<glyph name="summation" format="1">
  <advance width="815"/>
  <unicode hex="2211"/>
  <outline>
    <contour>
      <point x="602" y="227" type="line" smooth="yes"/>
      <point x="629" y="250"/>
      <point x="632" y="277"/>
      <point x="609" y="305" type="curve" smooth="yes"/>
      <point x="211" y="779" type="line"/>
      <point x="180" y="753" type="line" smooth="yes"/>
      <point x="153" y="730"/>
      <point x="150" y="704"/>
      <point x="173" y="675" type="curve" smooth="yes"/>
      <point x="572" y="202" type="line"/>
    </contour>
    <contour>
      <point x="637" y="-225" type="line"/>
      <point x="647" y="-199"/>
      <point x="653" y="-182"/>
      <point x="653" y="-165" type="curve" smooth="yes"/>
      <point x="653" y="-138"/>
      <point x="639" y="-130"/>
      <point x="598" y="-130" type="curve" smooth="yes"/>
      <point x="59" y="-130" type="line"/>
      <point x="60" y="-225" type="line"/>
    </contour>
    <contour>
      <point x="572" y="202" type="line"/>
      <point x="512" y="275" type="line"/>
      <point x="41" y="-117" type="line" smooth="yes"/>
      <point x="15" y="-139"/>
      <point x="11" y="-168"/>
      <point x="34" y="-195" type="curve" smooth="yes"/>
      <point x="60" y="-225" type="line"/>
    </contour>
    <contour>
      <point x="781" y="683" type="line"/>
      <point x="792" y="709"/>
      <point x="797" y="726"/>
      <point x="797" y="743" type="curve" smooth="yes"/>
      <point x="797" y="770"/>
      <point x="784" y="778"/>
      <point x="743" y="778" type="curve" smooth="yes"/>
      <point x="211" y="779" type="line"/>
      <point x="212" y="684" type="line"/>
    </contour>
  </outline>
</glyph>
<glyph name="minus" format="1">
  <advance width="700"/>
  <unicode hex="2212"/>
  <outline>
    <contour>
      <point x="569" y="321" type="line"/>
      <point x="580" y="350"/>
      <point x="585" y="372"/>
      <point x="585" y="389" type="curve" smooth="yes"/>
      <point x="585" y="416"/>
      <point x="572" y="424"/>
      <point x="531" y="424" type="curve" smooth="yes"/>
      <point x="158" y="424" type="line"/>
      <point x="148" y="396"/>
      <point x="142" y="374"/>
      <point x="142" y="357" type="curve" smooth="yes"/>
      <point x="142" y="330"/>
      <point x="156" y="321"/>
      <point x="197" y="321" type="curve" smooth="yes"/>
    </contour>
  </outline>
</glyph>
<glyph name="radical" format="1">
  <advance width="679"/>
  <unicode hex="221A"/>
  <outline>
    <contour>
      <point x="184" y="-191"/>
      <point x="205" y="-236"/>
      <point x="288" y="-236" type="curve" smooth="yes"/>
      <point x="317" y="-236"/>
      <point x="348" y="-223"/>
      <point x="369" y="-211" type="curve"/>
      <point x="711" y="832" type="line"/>
      <point x="621" y="866" type="line"/>
      <point x="289" y="-159" type="line"/>
      <point x="279" y="-159" type="line"/>
      <point x="279" y="-145"/>
      <point x="278" y="-135"/>
      <point x="278" y="64" type="curve" smooth="yes"/>
      <point x="278" y="307"/>
      <point x="263" y="389"/>
      <point x="180" y="389" type="curve" smooth="yes"/>
      <point x="158" y="389"/>
      <point x="139" y="383"/>
      <point x="121" y="369" type="curve"/>
      <point x="200" y="288"/>
      <point x="184" y="125"/>
      <point x="184" y="-33" type="curve" smooth="yes"/>
    </contour>
    <contour>
      <point x="1002" y="770" type="line"/>
      <point x="1013" y="796"/>
      <point x="1018" y="813"/>
      <point x="1018" y="830" type="curve" smooth="yes"/>
      <point x="1018" y="857"/>
      <point x="1005" y="866"/>
      <point x="964" y="866" type="curve" smooth="yes"/>
      <point x="621" y="866" type="line"/>
      <point x="622" y="770" type="line"/>
    </contour>
  </outline>
</glyph>
<glyph name="integral" format="1">
  <advance width="372"/>
  <unicode hex="222B"/>
  <outline>
    <contour>
      <point x="134" y="-235"/>
      <point x="179" y="-191"/>
      <point x="194" y="-75" type="curve" smooth="yes"/>
      <point x="260" y="578" type="line" smooth="yes"/>
      <point x="268" y="693"/>
      <point x="303" y="732"/>
      <point x="363" y="743" type="curve"/>
      <point x="349" y="758"/>
      <point x="329" y="775"/>
      <point x="285" y="775" type="curve" smooth="yes"/>
      <point x="231" y="775"/>
      <point x="182" y="731"/>
      <point x="171" y="615" type="curve" smooth="yes"/>
      <point x="105" y="-38" type="line" smooth="yes"/>
      <point x="97" y="-153"/>
      <point x="62" y="-192"/>
      <point x="1" y="-203" type="curve"/>
      <point x="16" y="-218"/>
      <point x="36" y="-235"/>
      <point x="80" y="-235" type="curve" smooth="yes"/>
    </contour>
  </outline>
</glyph>
<glyph name="approxequal" format="1">
  <advance width="708"/>
  <unicode hex="2248"/>
  <outline>
    <contour>
      <point x="611" y="506"/>
      <point x="617" y="525"/>
      <point x="617" y="540" type="curve" smooth="yes"/>
      <point x="617" y="580"/>
      <point x="604" y="585"/>
      <point x="567" y="585" type="curve" smooth="yes"/>
      <point x="514" y="585"/>
      <point x="319" y="530"/>
      <point x="175" y="530" type="curve"/>
      <point x="165" y="506"/>
      <point x="159" y="487"/>
      <point x="159" y="472" type="curve" smooth="yes"/>
      <point x="159" y="432"/>
      <point x="173" y="427"/>
      <point x="209" y="427" type="curve" smooth="yes"/>
      <point x="263" y="427"/>
      <point x="458" y="482"/>
      <point x="601" y="482" type="curve"/>
    </contour>
    <contour>
      <point x="572" y="256"/>
      <point x="578" y="275"/>
      <point x="578" y="290" type="curve" smooth="yes"/>
      <point x="578" y="330"/>
      <point x="565" y="335"/>
      <point x="528" y="335" type="curve" smooth="yes"/>
      <point x="475" y="335"/>
      <point x="280" y="280"/>
      <point x="136" y="280" type="curve"/>
      <point x="126" y="256"/>
      <point x="120" y="237"/>
      <point x="120" y="222" type="curve" smooth="yes"/>
      <point x="120" y="182"/>
      <point x="134" y="177"/>
      <point x="170" y="177" type="curve" smooth="yes"/>
      <point x="224" y="177"/>
      <point x="419" y="232"/>
      <point x="562" y="232" type="curve"/>
    </contour>
  </outline>
</glyph>
<glyph name="lozenge" format="1">
  <advance width="827"/>
  <unicode hex="25CA"/>
  <outline>
    <contour>
      <point x="345" y="-225" type="line" smooth="yes"/>
      <point x="361" y="-225"/>
      <point x="370" y="-212"/>
      <point x="395" y="-182" type="curve" smooth="yes"/>
      <point x="768" y="276" type="line"/>
      <point x="542" y="735" type="line" smooth="yes"/>
      <point x="525" y="767"/>
      <point x="518" y="779"/>
      <point x="503" y="779" type="curve" smooth="yes"/>
      <point x="480" y="779" type="line" smooth="yes"/>
      <point x="465" y="779"/>
      <point x="452" y="768"/>
      <point x="427" y="738" type="curve" smooth="yes"/>
      <point x="53" y="277" type="line"/>
      <point x="283" y="-180" type="line" smooth="yes"/>
      <point x="300" y="-213"/>
      <point x="307" y="-225"/>
      <point x="322" y="-225" type="curve" smooth="yes"/>
    </contour>
    <contour>
      <point x="165" y="265" type="line"/>
      <point x="480" y="653" type="line"/>
      <point x="656" y="293" type="line"/>
      <point x="344" y="-97" type="line"/>
    </contour>
  </outline>
</glyph>
<glyph name="uniFB51" format="1">
  <advance width="342"/>
  <unicode hex="FB51"/>
  <outline>
    <component base="uniFE8E.short"/>
    <component base="wasla-ar" xOffset="24" yOffset="215"/>
    <contour>
      <point x="297" y="18" type="move" name="entry"/>
    </contour>
    <contour>
      <point x="114" y="-100" type="move" name="bottom"/>
    </contour>
    <contour>
      <point x="250" y="1080" type="move" name="top"/>
    </contour>
  </outline>
</glyph>
<glyph name="uniFB57" format="1">
  <advance width="1049"/>
  <unicode hex="FB57"/>
  <outline>
    <component base="uni066E.fina"/>
    <component base="uniFBB9" xOffset="344" yOffset="-15"/>
    <contour>
      <point x="1006" y="18" type="move" name="entry"/>
    </contour>
    <contour>
      <point x="375" y="-400" type="move" name="bottom"/>
    </contour>
    <contour>
      <point x="531" y="575" type="move" name="top"/>
    </contour>
  </outline>
</glyph>
<glyph name="uniFB58" format="1">
  <advance width="290"/>
  <unicode hex="FB58"/>
  <outline>
    <component base="uni066E.init"/>
    <component base="uniFBB9" xOffset="21" yOffset="-15"/>
    <contour>
      <point x="-43" y="18" type="move" name="exit"/>
    </contour>
    <contour>
      <point x="53" y="-400" type="move" name="bottom"/>
    </contour>
    <contour>
      <point x="213" y="600" type="move" name="top"/>
    </contour>
  </outline>
</glyph>
<glyph name="uniFB59" format="1">
  <advance width="366"/>
  <unicode hex="FB59"/>
  <outline>
    <component base="uni066E.medi"/>
    <component base="uniFBB9" xOffset="9" yOffset="-15"/>
    <contour>
      <point x="323" y="18" type="move" name="entry"/>
    </contour>
    <contour>
      <point x="213" y="600" type="move" name="top"/>
    </contour>
    <contour>
      <point x="-43" y="18" type="move" name="exit"/>
    </contour>
    <contour>
      <point x="53" y="-400" type="move" name="bottom"/>
    </contour>
  </outline>
</glyph>
<glyph name="uniFB67" format="1">
  <advance width="1049"/>
  <unicode hex="FB67"/>
  <outline>
    <component base="uni066E.fina"/>
    <component base="uni0615" xOffset="380" yOffset="54"/>
    <contour>
      <point x="1006" y="18" type="move" name="entry"/>
    </contour>
    <contour>
      <point x="424" y="-100" type="move" name="bottom"/>
    </contour>
    <contour>
      <point x="608" y="1050" type="move" name="top"/>
    </contour>
  </outline>
</glyph>
<glyph name="uniFB68" format="1">
  <advance width="290"/>
  <unicode hex="FB68"/>
  <outline>
    <component base="uni066E.init"/>
    <component base="uni0615" xOffset="62" yOffset="79"/>
    <contour>
      <point x="-43" y="18" type="move" name="exit"/>
    </contour>
    <contour>
      <point x="100" y="-100" type="move" name="bottom"/>
    </contour>
    <contour>
      <point x="288" y="1070" type="move" name="top"/>
    </contour>
  </outline>
</glyph>
<glyph name="uniFB69" format="1">
  <advance width="366"/>
  <unicode hex="FB69"/>
  <outline>
    <component base="uni066E.medi"/>
    <component base="uni0615" xOffset="50" yOffset="79"/>
    <contour>
      <point x="323" y="18" type="move" name="entry"/>
    </contour>
    <contour>
      <point x="277" y="1070" type="move" name="top"/>
    </contour>
    <contour>
      <point x="-42" y="18" type="move" name="exit"/>
    </contour>
    <contour>
      <point x="89" y="-100" type="move" name="bottom"/>
    </contour>
  </outline>
</glyph>
<glyph name="uniFB6B" format="1">
  <advance width="1213"/>
  <unicode hex="FB6B"/>
  <outline>
    <component base="uni06A1.fina"/>
    <component base="uniFBB6" xOffset="708" yOffset="-1"/>
    <contour>
      <point x="1170" y="18" type="move" name="entry"/>
    </contour>
    <contour>
      <point x="785" y="-100" type="move" name="bottom"/>
    </contour>
    <contour>
      <point x="966" y="1034" type="move" name="top"/>
    </contour>
  </outline>
</glyph>
<glyph name="uniFB6C" format="1">
  <advance width="646"/>
  <unicode hex="FB6C"/>
  <outline>
    <component base="uni06A1.init"/>
    <component base="uniFBB6" xOffset="224" yOffset="-1"/>
    <contour>
      <point x="-43" y="18" type="move" name="exit"/>
    </contour>
    <contour>
      <point x="301" y="-100" type="move" name="bottom"/>
    </contour>
    <contour>
      <point x="482" y="1034" type="move" name="top"/>
    </contour>
  </outline>
</glyph>
<glyph name="uniFB6D" format="1">
  <advance width="729"/>
  <unicode hex="FB6D"/>
  <outline>
    <component base="uni06A1.medi"/>
    <component base="uniFBB6" xOffset="224" yOffset="-1"/>
    <contour>
      <point x="687" y="18" type="move" name="entry"/>
    </contour>
    <contour>
      <point x="482" y="1034" type="move" name="top"/>
    </contour>
    <contour>
      <point x="-43" y="18" type="move" name="exit"/>
    </contour>
    <contour>
      <point x="301" y="-100" type="move" name="bottom"/>
    </contour>
  </outline>
</glyph>
<glyph name="uniFB7B" format="1">
  <advance width="962"/>
  <unicode hex="FB7B"/>
  <outline>
    <component base="uniFEA2"/>
    <component base="uniFBB9" xOffset="441" yOffset="44"/>
    <contour>
      <point x="919" y="18" type="move" name="entry"/>
    </contour>
    <contour>
      <point x="390" y="-570" type="move" name="bottom"/>
    </contour>
    <contour>
      <point x="470" y="630" type="move" name="top"/>
    </contour>
  </outline>
</glyph>
<glyph name="uniFB7C" format="1">
  <advance width="865"/>
  <unicode hex="FB7C"/>
  <outline>
    <component base="uniFEA3"/>
    <component base="uniFBB9" xOffset="237" yOffset="-15"/>
    <contour>
      <point x="-42" y="18" type="move" name="exit"/>
    </contour>
    <contour>
      <point x="268" y="-400" type="move" name="bottom"/>
    </contour>
    <contour>
      <point x="433" y="630" type="move" name="top"/>
    </contour>
  </outline>
</glyph>
<glyph name="uniFB7D" format="1">
  <advance width="936"/>
  <unicode hex="FB7D"/>
  <outline>
    <component base="uniFEA4"/>
    <component base="uniFBB9" xOffset="237" yOffset="-15"/>
    <contour>
      <point x="893" y="18" type="move" name="entry"/>
    </contour>
    <contour>
      <point x="433" y="630" type="move" name="top"/>
    </contour>
    <contour>
      <point x="-42" y="18" type="move" name="exit"/>
    </contour>
    <contour>
      <point x="268" y="-400" type="move" name="bottom"/>
    </contour>
  </outline>
</glyph>
<glyph name="uniFB89" format="1">
  <advance width="673"/>
  <unicode hex="FB89"/>
  <outline>
    <component base="uniFEAA"/>
    <component base="uni0615" xOffset="167" yOffset="149"/>
    <contour>
      <point x="630" y="18" type="move" name="entry"/>
    </contour>
    <contour>
      <point x="195" y="-100" type="move" name="bottom"/>
    </contour>
    <contour>
      <point x="398" y="1170" type="move" name="top"/>
    </contour>
  </outline>
</glyph>
<glyph name="uniFB8B" format="1">
  <advance width="465"/>
  <unicode hex="FB8B"/>
  <outline>
    <component base="uniFEAE"/>
    <component base="uniFBB6" xOffset="82" yOffset="-76"/>
    <contour>
      <point x="422" y="18" type="move" name="entry"/>
    </contour>
    <contour>
      <point x="114" y="-450" type="move" name="bottom"/>
    </contour>
    <contour>
      <point x="331" y="900" type="move" name="top"/>
    </contour>
  </outline>
</glyph>
<glyph name="uniFB8D" format="1">
  <advance width="465"/>
  <unicode hex="FB8D"/>
  <outline>
    <component base="uniFEAE"/>
    <component base="uni0615" xOffset="131" yOffset="79"/>
    <contour>
      <point x="422" y="18" type="move" name="entry"/>
    </contour>
    <contour>
      <point x="114" y="-450" type="move" name="bottom"/>
    </contour>
    <contour>
      <point x="357" y="1070" type="move" name="top"/>
    </contour>
  </outline>
</glyph>
<glyph name="uniFBB2" format="1">
  <advance width="130"/>
  <unicode hex="FBB2"/>
  <outline>
    <contour>
      <point x="95" y="696"/>
      <point x="73" y="715"/>
      <point x="73" y="743" type="curve" smooth="yes"/>
      <point x="73" y="785"/>
      <point x="105" y="813"/>
      <point x="149" y="813" type="curve" smooth="yes"/>
      <point x="183" y="813"/>
      <point x="205" y="794"/>
      <point x="205" y="765" type="curve" smooth="yes"/>
      <point x="205" y="724"/>
      <point x="174" y="696"/>
      <point x="129" y="696" type="curve" smooth="yes"/>
    </contour>
    <contour>
      <point x="148" y="813" type="move" name="top"/>
    </contour>
    <contour>
      <point x="127" y="676" type="move" name="_top"/>
    </contour>
  </outline>
</glyph>
<glyph name="uniFBB3" format="1">
  <advance width="130"/>
  <unicode hex="FBB3"/>
  <outline>
    <contour>
      <point x="-48" y="-207"/>
      <point x="-70" y="-188"/>
      <point x="-70" y="-160" type="curve" smooth="yes"/>
      <point x="-70" y="-118"/>
      <point x="-39" y="-89"/>
      <point x="6" y="-89" type="curve" smooth="yes"/>
      <point x="40" y="-89"/>
      <point x="62" y="-109"/>
      <point x="62" y="-138" type="curve" smooth="yes"/>
      <point x="62" y="-179"/>
      <point x="31" y="-207"/>
      <point x="-14" y="-207" type="curve" smooth="yes"/>
    </contour>
    <contour>
      <point x="9" y="-69" type="move" name="_bottom"/>
    </contour>
    <contour>
      <point x="-13" y="-207" type="move" name="bottom"/>
    </contour>
  </outline>
</glyph>
<glyph name="uniFBB4" format="1">
  <advance width="277"/>
  <unicode hex="FBB4"/>
  <outline>
    <contour>
      <point x="95" y="696"/>
      <point x="73" y="715"/>
      <point x="73" y="743" type="curve" smooth="yes"/>
      <point x="73" y="785"/>
      <point x="105" y="813"/>
      <point x="149" y="813" type="curve" smooth="yes"/>
      <point x="183" y="813"/>
      <point x="205" y="794"/>
      <point x="205" y="765" type="curve" smooth="yes"/>
      <point x="205" y="724"/>
      <point x="174" y="696"/>
      <point x="129" y="696" type="curve" smooth="yes"/>
    </contour>
    <contour>
      <point x="242" y="696"/>
      <point x="220" y="715"/>
      <point x="220" y="743" type="curve" smooth="yes"/>
      <point x="220" y="785"/>
      <point x="252" y="813"/>
      <point x="296" y="813" type="curve" smooth="yes"/>
      <point x="330" y="813"/>
      <point x="352" y="794"/>
      <point x="352" y="765" type="curve" smooth="yes"/>
      <point x="352" y="724"/>
      <point x="321" y="696"/>
      <point x="276" y="696" type="curve" smooth="yes"/>
    </contour>
    <contour>
      <point x="222" y="813" type="move" name="top"/>
    </contour>
    <contour>
      <point x="200" y="676" type="move" name="_top"/>
    </contour>
  </outline>
</glyph>
<glyph name="uniFBB5" format="1">
  <advance width="277"/>
  <unicode hex="FBB5"/>
  <outline>
    <contour>
      <point x="-48" y="-207"/>
      <point x="-70" y="-188"/>
      <point x="-70" y="-160" type="curve" smooth="yes"/>
      <point x="-70" y="-118"/>
      <point x="-38" y="-90"/>
      <point x="6" y="-90" type="curve" smooth="yes"/>
      <point x="40" y="-90"/>
      <point x="62" y="-109"/>
      <point x="62" y="-138" type="curve" smooth="yes"/>
      <point x="62" y="-179"/>
      <point x="31" y="-207"/>
      <point x="-14" y="-207" type="curve" smooth="yes"/>
    </contour>
    <contour>
      <point x="99" y="-207"/>
      <point x="77" y="-188"/>
      <point x="77" y="-160" type="curve" smooth="yes"/>
      <point x="77" y="-118"/>
      <point x="109" y="-90"/>
      <point x="153" y="-90" type="curve" smooth="yes"/>
      <point x="187" y="-90"/>
      <point x="209" y="-109"/>
      <point x="209" y="-138" type="curve" smooth="yes"/>
      <point x="209" y="-179"/>
      <point x="178" y="-207"/>
      <point x="133" y="-207" type="curve" smooth="yes"/>
    </contour>
    <contour>
      <point x="82" y="-70" type="move" name="_bottom"/>
    </contour>
    <contour>
      <point x="60" y="-207" type="move" name="bottom"/>
    </contour>
  </outline>
</glyph>
<glyph name="uniFBB6" format="1">
  <advance width="277"/>
  <unicode hex="FBB6"/>
  <outline>
    <contour>
      <point x="95" y="696"/>
      <point x="73" y="715"/>
      <point x="73" y="743" type="curve" smooth="yes"/>
      <point x="73" y="785"/>
      <point x="105" y="813"/>
      <point x="149" y="813" type="curve" smooth="yes"/>
      <point x="183" y="813"/>
      <point x="205" y="794"/>
      <point x="205" y="765" type="curve" smooth="yes"/>
      <point x="205" y="724"/>
      <point x="174" y="696"/>
      <point x="129" y="696" type="curve" smooth="yes"/>
    </contour>
    <contour>
      <point x="242" y="696"/>
      <point x="220" y="715"/>
      <point x="220" y="743" type="curve" smooth="yes"/>
      <point x="220" y="785"/>
      <point x="252" y="813"/>
      <point x="296" y="813" type="curve" smooth="yes"/>
      <point x="330" y="813"/>
      <point x="352" y="794"/>
      <point x="352" y="765" type="curve" smooth="yes"/>
      <point x="352" y="724"/>
      <point x="321" y="696"/>
      <point x="276" y="696" type="curve" smooth="yes"/>
    </contour>
    <contour>
      <point x="193" y="826"/>
      <point x="173" y="843"/>
      <point x="173" y="869" type="curve" smooth="yes"/>
      <point x="173" y="907"/>
      <point x="202" y="932"/>
      <point x="242" y="932" type="curve" smooth="yes"/>
      <point x="273" y="932"/>
      <point x="293" y="915"/>
      <point x="293" y="889" type="curve" smooth="yes"/>
      <point x="293" y="851"/>
      <point x="265" y="826"/>
      <point x="224" y="826" type="curve" smooth="yes"/>
    </contour>
    <contour>
      <point x="240" y="932" type="move" name="top"/>
    </contour>
    <contour>
      <point x="200" y="676" type="move" name="_top"/>
    </contour>
  </outline>
</glyph>
<glyph name="uniFBB8" format="1">
  <advance width="277"/>
  <unicode hex="FBB8"/>
  <outline>
    <contour>
      <point x="153" y="578"/>
      <point x="133" y="595"/>
      <point x="133" y="621" type="curve" smooth="yes"/>
      <point x="133" y="659"/>
      <point x="162" y="684"/>
      <point x="202" y="684" type="curve" smooth="yes"/>
      <point x="233" y="684"/>
      <point x="253" y="667"/>
      <point x="253" y="641" type="curve" smooth="yes"/>
      <point x="253" y="603"/>
      <point x="225" y="578"/>
      <point x="184" y="578" type="curve" smooth="yes"/>
    </contour>
    <contour>
      <point x="242" y="696"/>
      <point x="220" y="715"/>
      <point x="220" y="743" type="curve" smooth="yes"/>
      <point x="220" y="785"/>
      <point x="252" y="813"/>
      <point x="296" y="813" type="curve" smooth="yes"/>
      <point x="330" y="813"/>
      <point x="352" y="794"/>
      <point x="352" y="765" type="curve" smooth="yes"/>
      <point x="352" y="724"/>
      <point x="321" y="696"/>
      <point x="276" y="696" type="curve" smooth="yes"/>
    </contour>
    <contour>
      <point x="95" y="696"/>
      <point x="73" y="715"/>
      <point x="73" y="743" type="curve" smooth="yes"/>
      <point x="73" y="785"/>
      <point x="105" y="813"/>
      <point x="149" y="813" type="curve" smooth="yes"/>
      <point x="183" y="813"/>
      <point x="205" y="794"/>
      <point x="205" y="765" type="curve" smooth="yes"/>
      <point x="205" y="724"/>
      <point x="174" y="696"/>
      <point x="129" y="696" type="curve" smooth="yes"/>
    </contour>
    <contour>
      <point x="222" y="813" type="move" name="top"/>
    </contour>
    <contour>
      <point x="182" y="558" type="move" name="_top"/>
    </contour>
  </outline>
</glyph>
<glyph name="uniFBB9" format="1">
  <advance width="277"/>
  <unicode hex="FBB9"/>
  <outline>
    <contour>
      <point x="10" y="-325"/>
      <point x="-10" y="-308"/>
      <point x="-10" y="-282" type="curve" smooth="yes"/>
      <point x="-10" y="-244"/>
      <point x="19" y="-219"/>
      <point x="59" y="-219" type="curve" smooth="yes"/>
      <point x="90" y="-219"/>
      <point x="110" y="-236"/>
      <point x="110" y="-262" type="curve" smooth="yes"/>
      <point x="110" y="-300"/>
      <point x="82" y="-325"/>
      <point x="41" y="-325" type="curve" smooth="yes"/>
    </contour>
    <contour>
      <point x="99" y="-207"/>
      <point x="77" y="-188"/>
      <point x="77" y="-160" type="curve" smooth="yes"/>
      <point x="77" y="-118"/>
      <point x="109" y="-90"/>
      <point x="153" y="-90" type="curve" smooth="yes"/>
      <point x="187" y="-90"/>
      <point x="209" y="-109"/>
      <point x="209" y="-138" type="curve" smooth="yes"/>
      <point x="209" y="-179"/>
      <point x="178" y="-207"/>
      <point x="133" y="-207" type="curve" smooth="yes"/>
    </contour>
    <contour>
      <point x="-48" y="-207"/>
      <point x="-70" y="-188"/>
      <point x="-70" y="-160" type="curve" smooth="yes"/>
      <point x="-70" y="-118"/>
      <point x="-38" y="-90"/>
      <point x="6" y="-90" type="curve" smooth="yes"/>
      <point x="40" y="-90"/>
      <point x="62" y="-109"/>
      <point x="62" y="-138" type="curve" smooth="yes"/>
      <point x="62" y="-179"/>
      <point x="31" y="-207"/>
      <point x="-14" y="-207" type="curve" smooth="yes"/>
    </contour>
    <contour>
      <point x="82" y="-70" type="move" name="_bottom"/>
    </contour>
    <contour>
      <point x="42" y="-325" type="move" name="bottom"/>
    </contour>
  </outline>
</glyph>
<glyph name="uniFBBD" format="1">
  <advance width="131"/>
  <unicode hex="FBBD"/>
  <outline>
    <contour>
      <point x="96" y="696"/>
      <point x="74" y="715"/>
      <point x="74" y="743" type="curve" smooth="yes"/>
      <point x="74" y="785"/>
      <point x="106" y="813"/>
      <point x="150" y="813" type="curve" smooth="yes"/>
      <point x="184" y="813"/>
      <point x="206" y="794"/>
      <point x="206" y="765" type="curve" smooth="yes"/>
      <point x="206" y="724"/>
      <point x="175" y="696"/>
      <point x="130" y="696" type="curve" smooth="yes"/>
    </contour>
    <contour>
      <point x="117" y="831"/>
      <point x="95" y="850"/>
      <point x="95" y="878" type="curve" smooth="yes"/>
      <point x="95" y="920"/>
      <point x="127" y="948"/>
      <point x="171" y="948" type="curve" smooth="yes"/>
      <point x="205" y="948"/>
      <point x="227" y="929"/>
      <point x="227" y="900" type="curve" smooth="yes"/>
      <point x="227" y="859"/>
      <point x="196" y="831"/>
      <point x="151" y="831" type="curve" smooth="yes"/>
    </contour>
    <contour>
      <point x="170" y="948" type="move" name="top"/>
    </contour>
    <contour>
      <point x="127" y="676" type="move" name="_top"/>
    </contour>
  </outline>
</glyph>
